<?xml version="1.0" standalone="no"?>
<!DOCTYPE svg PUBLIC "-//W3C//DTD SVG 1.1//EN" "http://www.w3.org/Graphics/SVG/1.1/DTD/svg11.dtd" >
<svg xmlns="http://www.w3.org/2000/svg">
<metadata>
Created by FontPrep 20130207 at Thu Apr  5 17:20:48 2018
 By eli
Copyright (c) Esselte Corporation 1997.  Portions Copyright Microsoft Corporation 1997.  All rights reserved.
</metadata>
<defs>
<font id="a57fa4c3938d69d0579506f0af9fc113" horiz-adv-x='1024' >
  <font-face 
    font-family="Papyrus-Regular"
    font-weight="400"
    font-stretch="normal"
    units-per-em="2048"
    panose-1="3 7 5 2 6 5 2 3 2 5"
    ascent="1638"
    descent="-410"
    x-height="754"
    cap-height="1682"
    bbox="-464 -1068 3456 2155"
    underline-thickness="120"
    underline-position="-352"
    unicode-range="U+0020-F002"
  />
<missing-glyph horiz-adv-x="437" 
d="M349 44v1550h-261v-1550h261zM44 0v1638h349v-1638h-349z" />
    <glyph glyph-name=".notdef" horiz-adv-x="437" 
d="M349 44v1550h-261v-1550h261zM44 0v1638h349v-1638h-349z" />
    <glyph glyph-name="glyph1" horiz-adv-x="0" 
 />
    <glyph glyph-name="glyph2" horiz-adv-x="437" 
 />
    <glyph glyph-name="space" unicode=" " horiz-adv-x="437" 
 />
    <glyph glyph-name="exclam" unicode="!" horiz-adv-x="437" 
d="M291 1262q0 -42 -34 -62l-56 -32l86 -26l-16 -22q15 -58 15 -74t-3 -50l1 -29l-12 -35q6 -39 6 -42t-3 -53l-4 -62q-9 -38 -9 -53t17 -31q1 -58 -1 -70t-14 -31q16 -21 20 -47t7 -41l3 -22q-16 -18 -24 -38t-34 -44q-18 4 -26 4l-38 -1q-12 0 -34 24q8 22 35 56
q2 4 16 126q29 1 29 20q0 11 -4 26l-30 -3q-3 13 -3 59t7 56q7 11 12 18q-16 29 -17 39q-1 96 -4 119h-6l-2 2v15h35q-1 18 -7 23t-34 11q29 22 47 32t18 17l-67 44v2l5 32q-40 36 -40 63t33 54q33 26 65 32t53 15q12 -9 12 -21zM220 199q8 0 20 -11q12 -12 52 -38t40 -55
q0 -4 -13 -25t-15 -22q-52 -37 -69 -51q-16 15 -44 49l-27 24q-17 28 -25 34t-33 9q12 20 17 23l52 31q25 26 31 29t14 3z" />
    <glyph glyph-name="quotedbl" unicode="&#x22;" horiz-adv-x="732" 
d="M430 674q0 2 35 57q6 40 8 114l-10 3v17h32v11l3 3q-10 9 -22 13t-19 8q64 25 64 48q0 3 -12 24q-11 50 -14 54t-39 19q-35 16 -35 44q-1 27 37 57t98 31q9 9 18 11q11 -13 11 -23v-3l-20 -21l-8 -34q-63 -29 -63 -31t2 -3q35 -22 85 -25l-17 -23q17 -68 17 -83l-4 -34
l1 -39l-14 -37q16 -46 18 -68t5 -39q-15 -16 -21 -34t-21 -32.5t-17 -14.5l-24 5l-42 -1q-16 2 -24 13t-8 13zM125 1092q0 35 63 70q14 8 42 12t47 13q12 -12 12 -16t-22 -61l-69 -35q84 -27 84 -31t-14 -19q15 -58 15 -69l-1 -63q0 -8 2 -29l-15 -21q13 -52 22 -117
q-15 -19 -33 -59q-3 -7 -26 -23q-17 4 -24 4l-37 -1q-10 0 -36 25q3 9 19 36q16 18 17 20t5 36t4 46q0 10 -4 35l-8 3v17h32v17q-16 10 -38 16q29 22 48 32t19 16t-61 36q-9 4 -9 14l4 19q0 5 -3 15q-35 27 -35 62z" />
    <glyph glyph-name="numbersign" unicode="#" 
d="M652 697l-80 -3q-30 0 -49 14t-23 14t-7 -1l-3 -21q-18 -6 -28 -6t-30 3q-4 -19 -6 -41t-5 -29q-5 -8 -26 -20v-3l5 -17q1 -8 13 -13l-10 -81v-30h3l3 2l7 -7h23v-6q29 -11 40 -11t26 19l17 -2h179l36 7q5 21 9 41t4 29t-3 40l4 29l4 47q8 16 12 38q-19 5 -68 6zM945 464
q24 35 64 35q41 0 46 -13l-49 -37v-26q-44 -24 -52 -24t-20 4q-26 -23 -36 -23t-59 6l-25 -3l-23 5q-1 0 -6 -2l-3 -4l9 -14q-8 -27 -23 -106l-8 -25v-32l-14 -98q-1 -94 -56 -94q-19 0 -45 24q7 21 14 53t15 50q8 20 8 21l-3 49l13 37l6 27l14 52q3 32 8 57q-22 6 -60 6
l-52 4h-3l-60 -7q-11 0 -41 7t-47 23q-21 -28 -33 -28l-46 3v-4l15 -20q-9 -25 -23 -98l-10 -35v-31l-15 -96q-1 -94 -53 -94q-21 0 -33 11t-12 17l8 32l11 51l15 37l-3 44l13 40l6 26q15 53 17 75t5 44q-16 14 -39 54l-43 -33q-39 -10 -81 -22l-35 -5q-6 -2 -22 -13l-11 15
v17l41 14v14q15 9 18 23t13 38l7 -6q16 4 23 4t37 -7l14 1q5 0 16 -6l1 1q37 -5 77 -17q15 60 15 77l-3 28l8 79q9 28 11 52q-27 11 -34 11t-49 -14q-113 -9 -137 -16q-9 15 -9 21t2 14q29 2 34 11l5 8l11 15l6 17l3 2q6 21 12 28q8 -3 9 -3l30 4l102 -19q15 -5 34 -10l4 28
q6 28 6 38v19l14 6l4 31q-15 7 -15 19t11 38q11 28 11 62l8 35l2 27l3 19q-10 27 -10 34t19 21t61 18q2 -15 2 -23t-16 -86l-2 -44l-10 -28q-2 -43 -2.5 -47t-16.5 -24t-15 -28q0 -8 18 -23l-14 -90h11l5 -5h21q26 -18 38 -18t30 18l81 -4l4 4q12 -4 18 -4l29 3h65q4 0 36 8
l13 79l13 9l2 25q-14 16 -14 25q1 9 11 35t12 59l7 40l2 27l3 17q-10 29 -10 36t19 21t60 18q4 -13 4 -14l-15 -85l-3 -49l-10 -27l-3 -47l-28 -47q10 -42 10 -49l-16 -103h11q14 0 24 7q9 18 25 21v5q36 0 67 13q11 -13 28 -16q13 18 21.5 23.5t55.5 10.5h1l26 -5v-11
l-50 -33l4 -24l-47 -26l-26 4q-26 -23 -42 -23q-15 3 -36 47l-40 -43l-18 3q-6 0 -15 -1q-5 -23 -6 -41t-4 -24q2 -6 -27 -20l8 -30l12 -3q-12 -85 -13 -133h-15v-6q16 -7 25 -7q15 0 23 31q11 3 23 8q35 2 65 12l13 -13z" />
    <glyph glyph-name="dollar" unicode="$" 
d="M628 166h13q5 0 15 -1q14 16 18 19l30 16q30 19 45 29q51 44 73 121l-5 53q0 5 11 20l23 -3l6 23v1q0 9 -49 37l-13 45l-22 12q-3 31 -23 53l-41 -23q-6 0 -30 12q-14 4 -61 10l-5 -7v-77l-21 -11l11 -23l12 -8q-1 -22 -1 -39l4 -49q0 -17 -26 -48l3 -2l3 -6
q25 -16 25 -30l-6 -36v-46l-5 -32q6 -10 16 -10zM566 812q0 15 -15 39q16 18 16 28v15l-19 11q6 31 6 68q-18 4 -32 4q-36 0 -108 -85q-14 -16 -23 -55q5 -9 6 -9l46 -25l22 -23q55 -15 83 -15q18 32 18 47zM259 171q-23 18 -85 77q1 8 12 39l5 26q1 4 11 12q2 20 8 39
q32 -11 38 -22t10 -33q12 -13 30 -25t22 -18t11 -22q13 -1 15 -3l19 -17q6 -6 63 -25q52 -29 66 -33t44 -7q12 13 14 21t4 43l4 48v33l8 129q0 3 -6 16t-6 71l2 46q0 9 -9 36q-15 6 -21 14t-10 13q-33 10 -47 10h-21q-21 22 -35 23l-14 -10h-1q-27 7 -107 69q-1 33 -5 51
t-4 26t22 51q29 0 31 6q4 -2 13 23q-14 18 -14 26t7 20q28 1 40 11l-5 28q22 11 52 31t40 20q9 0 21 -2q18 27 40 31t33 13q4 36 4 58t-20 44q15 24 24 27q1 3 23 8l1 -2l27 5q5 -19 5 -29l-2 -41q-2 -42 6 -50t23 -20l28 6l11 -1l59 -2q37 -10 66 -11q3 -13 6 -18t27 -9
q-6 -23 -20 -33q-57 -41 -63 -41q-15 0 -28 29q-37 0 -73 8t-44 9v-21q0 -6 4 -42q1 -8 -20 -27q0 -6 10 -20t8 -26v-38q-1 -21 -1 -31t1 -35q23 -13 49 -20v-16q0 -31 6 -55q7 -24 9 -24t17 70l11 18q20 -7 26 -8t15 -10q10 -9 35 -12q25 -4 82 -34t90 -89q-21 -7 -21 -20
q0 -27 36 -27q6 -43 8 -60l-5 -31l-18 2l-1 -1l3 -35q-3 -3 -12 -31q-10 -28 -18 -42q-8 -13 -67 -86l-90 -69l-32 -30q-85 -30 -96 -30h-20q-6 -25 -6 -33l1 -36v-35q5 -31 5 -35q0 -45 -43 -45q-19 0 -48 18q4 19 6 45t8 42t6 26t-18 26t-30 16l-35 -6q-28 0 -66 18
t-63 19q-4 5 -10 26t-25 21t-46 -9z" />
    <glyph glyph-name="percent" unicode="%" horiz-adv-x="1344" 
d="M731 195q0 -7 6 -19q9 1 21 1t26 -11q13 -12 22 -18t9 -23q9 -4 30 -6q54 -21 63 -21t76 20q38 22 66 29q9 15 21 25t18 25l21 8q12 37 40 67l-7 14q2 15 14 44l-4 4h-7q0 17 11 38q-24 19 -37 40l11 38q-7 2 -13 2t-23 -8q-8 24 -14 26q-2 7 -31 14q1 10 1 18t-5 21h-12
l-11 -17h-7q-8 0 -18 10t-34 12q-24 1 -46 8q-18 -13 -26 -13t-15 1q-39 -35 -61 -43t-36 -24t-28 -29q-13 -13 -15 -16l-17 -47q-3 -9 -19 -17v-27q11 -11 11 -13l-1 -48q0 -25 30 -43q-10 -15 -10 -22zM840 15q-4 0 -34 15l-33 2q-7 1 -20 17q-5 -1 -13 -1t-34 17
q-4 15 -6 18q-31 26 -43 47l-20 4q0 37 -5 60h-5q-15 45 -15 64l1 11q16 19 16 30t-5 49l14 8h15q15 10 29 44t30 47q14 13 24 27l18 13l22 20l33 26q19 17 47 25l4 14q20 5 50 14q30 10 50 14t34 10t16 6l25 -8l24 -4l52 -15q19 -1 40 -15q3 -8 7 -14t5 -21q5 -17 39 -23
q26 -78 34 -109v-3q-2 -37 -4 -72t-42 -83q-8 -9 -22 -37t-24 -34q-10 -7 -32 -13v-22q-10 -7 -36 -25t-63 -40q-37 -24 -52 -29t-74 -18q-43 -16 -47 -16zM763 808q-1 26 21 55t22 43t-2 18q-2 6 6 11t16 19t20 26l-2 2q2 20 2 34t6 22t28 20q-3 14 -3 25q1 11 25 46t37 36
l27 3q8 1 30 14t35 13q25 0 25 -21q0 -12 -18 -37t-31 -51q-13 -5 -35 -5q-7 -11 -6 -25q0 -14 -14 -31t-16 -23t-6 -10q-5 -4 -11 -11q5 -9 5 -15t-24 -36t-29 -59l-32 -15v-15q0 -14 -1 -16l-71 -107l-12 -30l-26 -42l-10 -24l-15 -21q-50 -74 -66 -97h-11v-3
q0 -14 -17 -62q-30 -9 -36 -23t-6 -51q-17 -17 -19 -21l-26 -73l-30 -43q-9 -50 -15 -61t-33 -20q9 -17 9 -25t-14 -32t-26 -31q-11 -8 -38 -18q-27 -11 -44 -19t-29 -8t-26 11q9 31 23 53t23 44q31 2 35 7t14 31q8 26 45 65l-7 15q-2 3 4 12q6 10 14 26t34 33v21l31 18
q4 34 22 60q61 84 62 92q3 25 6 32q24 10 24 13q9 5 21 31t33 62t27 57l27 -5l4 5v5q-13 16 -13 25q0 22 42 46q15 9 15 35zM199 887h5l3 -2q-52 -19 -52 -41t82 -44l-6 -51q26 1 35 -3t45 -35l-4 -4l6 -16q11 1 19 1t30 -11t58 -11t69 20t54 26v8q26 17 30 27q14 19 24 25
q11 6 21 28q10 23 12 26t15 17q-5 13 -5 19t10 35q-8 25 -8 31t3 19h-6l-24 36l11 21l-7 7q-6 -1 -11 -1q-4 0 -24 15t-26 23l-18 7l5 33l-37 -14q-38 24 -63 24q-70 0 -81 -11l-14 -16q-26 -17 -30 -21t-27 -10l-30 -35q-33 -30 -37 -41t-4 -34l-26 -13l3 -3v-31zM132 923
q24 0 57 78q17 24 43 29l-6 7v2q18 15 37 33q21 20 86 59v10q19 5 45 15t59 13l12 5l24 7l18 7l16 -24q3 -6 29 -16t34 -38l7 -26l23 83q28 -17 33 -26q6 -10 22 -50h28q7 -9 9 -21t12 -40t11 -36q0 -8 -2 -30l3 -31q-4 -43 -5 -47t-14 -17q-3 -15 -5 -19t-25 -34
q-31 -60 -39 -66t-16 -6t-9 1q-6 -9 -9 -25q-46 -46 -74 -58t-40 -22q-10 -10 -32 -16t-48 -14q-24 -8 -39 -10t-26 -8q-11 -4 -19 -4t-32 16l-26 -5l-20 18q-10 -2 -24 -2q-14 1 -24 21t-13 22t-14 4q-15 18 -33 36t-19 32q0 14 4 33l-16 2l-9 76l19 29l-8 47q0 2 1 7
q8 -1 14 -1z" />
    <glyph glyph-name="ampersand" unicode="&#x26;" horiz-adv-x="1357" 
d="M1073 322q0 -12 12 -35q-18 -13 -19 -19q-4 -35 -14 -54l-39 4q-1 -18 15 -36q-14 -15 -36 -32l-23 -24l-39 -20q-8 -5 -22 -27h-8l-30 -9l-14 -9l-37 -16q-23 -18 -82 -43l-52 -14l-32 -12l-81 -11q-86 -16 -92 -16t-33 12q-13 -16 -21 -16q-8 -1 -20 1q-11 2 -33 4
t-39 19t-28 24l-11 -23q-33 12 -57 33t-43 38q-36 49 -36 51t7 44l-2 3l-4 10q-38 19 -40 21t-3 6v17l-1 11q29 4 29 19t-22 15h-9q-8 12 -8 26t11 40l6 22l13 23q9 35 25 55t23 33t16 19t22 22q12 16 35 28t33 32t10 21l24 21q11 9 13 26q51 18 83 56q-51 13 -51 44
q0 8 1 20l-38 -9q-11 19 -23 29t-34 40l4 29l-19 11l17 44h-5q-1 10 -1 25t25 43h21q9 19 13 23l30 25l30 31q5 3 24 9l10 22l35 4q15 21 25 25t49 15l26 12l18 7q59 32 75 33q6 -4 35 -47l47 49q11 11 33 11t56 -33q24 -16 26 -20q3 -4 5 -20t19 -42q-8 -18 -15 -18t-41 38
l-55 28l-19 12q-13 0 -16 -53l-25 14l-12 -20q-4 -1 -6 -1l-39 10l-51 -12q-18 9 -25 9t-33 -12l-34 -10l-21 -11q-19 -8 -26 -12t-48 -41q-39 -29 -41 -31t-8 -30q-8 -30 -12 -43q16 -21 27 -29t16 -30q20 -10 36 -21t95 -31l25 -1l32 -11l113 -5q9 0 52 17l58 3q30 8 36 8
t26 -11q-12 -20 -18 -44t-20 -29q-60 -23 -64 -25t-22 -18q-18 10 -26 20t-27 14l-15 -10q-22 43 -28 43t-17 -43q-21 42 -39 42q-7 0 -12 -5l-47 -56q-20 6 -26 6t-29 -10l11 -22l-4 -4h-13q-16 -1 -22 -3t-36 -24q-46 -25 -48 -27t-21 -31q-16 -14 -30 -32t-43 -26
q-4 -22 -18 -50t-18 -42q-4 -13 -7 -54l-6 -22l9 -25q4 -30 13 -47t15 -32t29 -30q9 -24 14 -28l29 -26q47 -48 67 -63t75 -15l42 -11h31l34 -2l14 1l42 1l21 9l29 9l32 16l49 15q17 7 22 7h10q11 18 14 20l69 45q10 6 42 50t32 90q0 44 -33 64t-34 21l-14 19l-22 14l-34 30
l-34 11l-36 15l-15 1l-17 11l-37 -11q-34 -5 -41 -10q-12 -3 -31 -38t-32 -56l12 -26q0 -23 -34 -23q-7 0 -15 1q-8 11 -28 21t-21 32q0 20 13 36t57 50l38 33l61 24l25 14l29 8l26 10l56 7l35 -8l17 -2l31 -12q26 -9 44 -21q3 -51 26 -51q5 0 10 6v22q102 -61 114 -61
q33 0 65 23q33 23 44 28q32 15 30 68l6 37q0 15 -20 35t-22 35q13 11 64 26l17 -29q37 -9 49 -19l6 -24l27 -4q-1 -21 -3 -55t-17 -56q-1 -1 -29 -22q-14 -27 -62 -55l-16 -12q-20 -1 -24 -3t-29 -19q-58 -15 -69 -23t-11 -20z" />
    <glyph glyph-name="quotesingle" unicode="'" horiz-adv-x="437" 
d="M125 1092q0 35 63 70q14 8 42 12t47 13q12 -12 12 -16t-22 -61l-69 -35q84 -27 84 -31t-14 -19q15 -58 15 -69l-1 -63q0 -8 2 -29l-15 -21q13 -52 22 -117q-15 -19 -33 -59q-3 -7 -26 -23q-17 4 -24 4l-37 -1q-10 0 -36 25q3 9 19 36q16 18 17 20t5 36t4 46q0 10 -4 35
l-8 3v17h32v17q-16 10 -38 16q29 22 48 32t19 16t-61 36q-9 4 -9 14l4 19q0 5 -3 15q-35 27 -35 62z" />
    <glyph glyph-name="parenleft" unicode="(" horiz-adv-x="654" 
d="M143 742q0 6 2 21q2 16 4 75l5 30l4 44l10 20t8 17l-1 38q0 6 20 36l3 30l51 139q3 10 7 35l27 53l5 23q12 22 16 37t9 34q28 16 63 61l23 34l35 36q18 41 38 61t35 40q14 2 26 23t27 27t45 12l7 -7q-5 -11 -5 -17l14 -47q0 -3 -14 -40q-15 -37 -21 -40t-53 -9
q-30 -8 -65 -51l-29 -26q-4 -4 -19 -30q-15 -27 -39 -51t-26.5 -29t-10.5 -28t-25 -54t-32 -70l-11 -19l-6 -24l-9 -30l-2 -21l-15 -38l-12 -120l-10 -46l8 -47q2 -54 2 -60t-12 -39l10 -75l-2 -32l16 -67l-51 -37q22 -37 43 -95q6 -35 7 -37l14 -16l13 -25l18 -27l4 -25
l24 -35l11 -34l4 -6l-1 -53q1 -11 31 -24q4 -15 21 -28q45 -79 61 -96q-13 -35 -13 -51t19 -16t39 3q37 -47 56 -55t69 -10q6 -16 13 -28t9 -19l-4 -4h-22l-21 -61q18 -24 18 -38q0 -36 -40 -64q-28 36 -43 44l-45 26l-27 25q-41 29 -53 47q-18 34 -18.5 35t-15.5 13l-5 12
l-26 38q-5 12 -13 22t-18 37l12 13v4q-24 10 -34 20q-38 70 -58 164l-6 18l-6 24l-17 50q0 25 -4 45l8 3q-11 23 -27 80t-15 85l4 43q0 4 -14 34l49 105q0 13 -54 24l7 32q-4 23 -4 29z" />
    <glyph glyph-name="parenright" unicode=")" horiz-adv-x="654" 
d="M464 1038v-7l-7 -10l14 -7q3 -29 25 -106q2 -8 4 -93l11 -30q-3 -16 -3 -20t3 -85l2 -25q0 -1 -4 -29l3 -37l-5 -29l-2 -64l-6 -32l-1 -32l-19 -42l1 -23q0 -4 -10 -42l-13 -8l3 -20l-55 -155q-4 -11 -4 -13l1 -16l-29 -53l-5 -24q-13 -26 -25 -71q-40 -22 -61 -57
t-25 -39l-34 -34l-22 -44q-51 -55 -59 -59t-24 -29q-18 -24 -67 -32l-8 7q4 12 4 20l-13 37q0 31 20 61t24 31q5 1 42 3q37 19 44 23q5 4 21 25l27 26q59 84 66 92t27 23q6 28 9 33l38 78l16 42l12 19l14 54l3 22l15 45l1 46l8 40l2 29l10 45l-7 36q-2 67 -2 72t12 36
l-12 81l2 39l-15 51v1l3 34v1q0 7 -14 37t-16 97q-10 10 -15 28l-16 38l-6 33q-13 28 -15 42t-7 27v29q1 14 1 26t-16 18t-20 18q-15 11 -17 14l-34 63q-24 33 -24 39t12 53q-11 9 -26 9q-14 0 -31 -5q-36 47 -58 57t-69 10q-5 12 -21 40v9l2 2h23l18 56q0 11 -17 32
q10 68 43 73q26 -33 39 -41l35 -19l40 -33q29 -22 39 -31t32 -48l13 -14l12 -22l20 -27q8 -17 16 -27t16 -34l-12 -15q26 -13 33 -21q8 -8 16 -30t20 -51q12 -27 17 -57q4 -30 14 -46q4 -22 13 -42t9 -41l-3 -18z" />
    <glyph glyph-name="asterisk" unicode="*" horiz-adv-x="710" 
d="M81 924q0 8 11 29t12 52t5 56q7 -2 27 -17t22 -18t2 -18l59 -34l15 15q29 -27 78 -40l13 13v4l-11 3q-18 57 -18 74t15 43q-47 11 -47 58q0 10 8 16t11 7l78 -2q14 0 53 17l11 -7q-45 -93 -46 -101t-2 -28l17 -5q-16 -64 -16 -74t12 -23q10 16 20 22t35 14q19 22 30 21h1
l24 -6q9 61 53 61q4 0 13 -5q8 -21 16 -58q33 -57 42 -78h-25l-55 15l-57 -4v-23q-23 3 -43 3t-55 -22v-8l3 -4h24q27 -33 61 -55l3 -33q16 7 32 7q16 -1 27 -15t11 -22t-2 -20q-41 -20 -52.5 -30.5t-27.5 -35.5t-20.5 -25t-9.5 3q-4 27 -10 39q-6 13 -6 17t3 19v1
q0 10 -8 24t-14 31l-21 -5q-8 37 -18 55t-37 29l-5 -5l9 -33q-13 -18 -21 -36t-21 -32q-15 -1 -15 -6q0 -6 7 -18t7 -26t-12 -26t-23 -12t-33 20t-96 48q17 19 47 38l5 4l17 -1q16 3 46 44l-12 8v5q23 16 44 30t21 29q0 14 -11 14h-2l-5 -1l-75 7q-7 0 -16 -1l-19 22
q-14 -24 -25 -26t-41 -6q-17 20 -17 28z" />
    <glyph glyph-name="plus" unicode="+" 
d="M172 658q72 -6 77 -7l42 2q29 -11 31 -11t33 7l22 -1l25 1l15 -50q31 53 35 53l37 -54q26 46 31 50h1l17 -2l6 48q0 2 -2 12t-2 69l7 30q-9 27 -9 63t10 62l-17 10l2 59q9 8 19 8l24 -1l37 1q5 0 24 -5q5 -16 5 -26t-10 -25q5 -13 5 -15l-7 -43l3 -29l-1 -32v-64
q-1 -16 -1 -48t5 -71l61 2q5 0 39 -9l20 6l14 -50l25 50l70 -1q8 0 25 6v-6l12 -11q22 18 49 20t46 4q7 -10 7 -48t-3 -58q-21 -2 -32 -4t-19 -1q-8 0 -15 3l-23 8l-29 -4l-24 45l-18 -43l-41 51l-42 -50l-34 13l-25 -11q-24 51 -28 51q-11 0 -37 -61q1 -19 1 -29t-5 -47
q5 -58 5 -94t-9 -65l18 -17q-5 -17 -6 -69q-1 -25 -51 -25q-17 0 -54 6l-1 36v7l11 38q0 4 -7 24q7 30 7 31l-7 46q0 16 9 31q-7 27 -7 65t9 67q-12 7 -15 7l-34 -4l-31 47l-48 -46q-35 49 -43 49t-33 -51l-40 4l-31 -5l-30 55l-25 -49q-5 -8 -13 -8q-8 -1 -16 1t-27 4l1 2
l-2 10l4 34q0 1 -2 18t0 20q0 3 10 14z" />
    <glyph glyph-name="comma" unicode="," horiz-adv-x="437" 
d="M326 5l-17 -45q0 -8 1 -15l5 -37q-1 -14 -15 -43t-36 -50v-8l8 -7v-5l2 -3q-20 -26 -34 -48t-42 -45t-40 -23l-38 1q-2 1 -29 1t-27 16q0 4 18 16t24 13q6 0 9 -3h21l11 18q25 6 53 26q2 17 8 24t27 22q2 18 3 35t12 38l-2 27l8 24q-8 13 -10 26q-11 62 -37 75
q-14 8 -21 18l-12 4q-3 14 -11 25l-43 -4l-7 7q2 19 57 62q19 19 44 47q58 -6 87 -55l7 -47l8 -27z" />
    <glyph glyph-name="hyphen" unicode="-" horiz-adv-x="693" 
d="M140 333q-10 0 -24 2q-15 -13 -25 -13t-33 11q-17 -32 -33 -32q-9 0 -21 3q-4 8 -4 18t9 20t66 51l18 16l24 14q29 19 33 20t47 3l27 2q33 -12 53 -12q-2 -7 -2 -11t9 -13q8 -9 20 -9t20 7l3 15q19 3 37 12q19 -11 36 -12l46 -4l43 3l67 -14q27 0 49 10q21 10 29 10
t13 -5q24 35 45 35q-8 -33 -14 -45q-6 -13 -28 -33t-64 -50t-67 -29l-47 7l-71 -1l-20 11l-39 18l-32 26l-90 -44l-22 11q-10 7 -25 12q-23 -10 -33 -10z" />
    <glyph glyph-name="period" unicode="." horiz-adv-x="437" 
d="M333 104q0 -8 -19 -47q-9 -19 -79 -61q-15 16 -27 28t-30 25t-37 42q-26 1 -38 7v12q17 13 39 29t36 31t33 27q35 -27 63 -40t44 -29t15 -24z" />
    <glyph glyph-name="slash" unicode="/" horiz-adv-x="1214" 
d="M664 682q0 11 -2 24l20 20q22 21 29 34l27 -5q32 77 64 110q32 34 44 50q12 17 22 17t22 18t11 27v17q15 18 57 78q44 51 54 73t19 37h11l10 9v21l22 -7q7 7 7 13t-4 16l-13 9q33 41 79 43q14 2 35 6t37 5q16 0 39 -19q-19 -23 -41 -51t-64 -68q-2 -3 -21 -38t-110 -126
l-96 -119q-29 -27 -31 -29t-33 -52q-2 -4 -24 -22t-59 -63l-35 -35q-14 -13 -32 -45t-30 -37t-41 -16q1 -8 1 -19t-16 -25q-11 7 -14 7q-14 0 -34 -29l11 -22q-20 -21 -75 -76t-69 -100l-27 7l-31 -27l5 -23q-6 -8 -8 -8t-24 -4q-22 -3 -22 -23l4 -17q-18 -26 -28 -36
t-34 -40t-36 -42q-12 -10 -40 -16q-9 -33 -17 -43t-76 -79l-28 -39q-35 -39 -46 -59l-23 4q-26 -32 -42 -72l-24 -30l-13 -22l-23 -16q-4 0 -15 -23q-19 -3 -39 -9t-26 -6q-41 0 -79 15q46 54 78 80q32 27 47 51l32 -4q19 31 26 42t55 58l25 30q42 44 58 64t39 30v27
q20 15 81 75l35 34q34 39 39 43q32 19 34 23t5 26q46 44 82 93q7 10 23 14q2 1 30 37l-2 12q22 18 42 44t57 65q30 37 36 41q32 16 49 26l-12 18l9 22q35 3 41 9t6 17z" />
    <glyph glyph-name="zero" unicode="0" 
d="M142 541q0 -89 6 -111t57 -89q72 -69 92 -90q-6 -13 -6 -23q-1 -10 7 -20q8 -11 18 -11t28 10q32 -36 109 -56l-131 -25l125 -13q21 10 37 11v2l-3 2v6q32 -15 44 -19t58 -6q42 -6 47 -6t57 16q84 13 92 18t48 40l24 16l29 37q40 38 42 40q6 7 19 60l22 15q-2 13 -2 23
l14 49q0 11 -12 32q18 10 27 22l-24 21q4 28 4 50v47v59t-7 34l-25 59q13 35 13 39q0 18 -17 18q-11 0 -27 -17q-7 21 -26 40q4 13 4 21t-11 22q-22 -8 -38 -8t-33 25q2 11 2 22q0 19 -39 23q-13 2 -20 13q-24 10 -34 19t-12 9l-47 -5l-86 9q-29 0 -91 -10l-15 -12
q-13 1 -25 -5t-51 -20t-54 -31l-27 -28l-33 -24l-30 -56l-35 -36l-8 -26l-29 -53l-11 -66q-16 -54 -16 -63zM93 546q0 8 2 20l-19 -10q-2 24 -2 52q0 49 56 73v7l-11 13q7 23 51 97t62 74q6 0 15 -2q11 17 25 23l-8 15q15 12 42 32t58 37t56 32v5l6 7l22 -13q25 14 51 28
t54 36q4 -4 12 -4l30 5l69 3l35 5h1q8 0 57 -29q2 -2 26 -2l3 -3q2 -42 27 -43q2 22 11 31l88 -24l-5 -28l31 -5q18 -24 56 -53q29 -43 42 -62l-4 -34q28 -4 51 -79q11 -27 13 -51l-20 -4q11 -9 16 -26l12 -3q10 -40 10 -56t-2 -26l-11 -53l3 -18v-1q-4 -12 -22 -63
q-42 -3 -42 -28q0 -15 12 -32t12 -21t-25 -64t-28 -64t-44 -42l-28 -33q-101 -57 -109 -65t-15 -29h-32q-12 -15 -38 -27t-48 -27q-9 1 -15 1l-44 -12h-3q-42 8 -53 8t-26 -17q-90 19 -126 31l-1 -5l-3 -2q-19 8 -34 8l-5 13l-25 -9q-18 14 -43 22v5q-14 2 -18 4
q-12 8 -61 56l-17 5q-12 23 -12 34v18q-8 11 -16 11t-20 -12q-12 19 -42 49q-6 6 -28 72l-18 35l-6 24l-8 18l-4 30q-8 30 -8 34t7 31l-4 24q0 10 14 16q13 0 25 6q-10 23 -10 31z" />
    <glyph glyph-name="one" unicode="1" 
d="M420 974q0 12 4 18t42 20q38 16 65 41t59 53t48 27q16 0 35 -12q-3 -16 -3 -53v-13q1 -44 -56 -68l-82 -32l103 -47q7 0 31 -33l-3 -2q-24 -1 -24 -27t29 -35v-13q0 -21 -19 -34q-1 -14 -1 -25t2 -29t-4 -60q18 -49 18 -53l-11 -63q0 -4 13 -49q-6 -25 -7 -44l-10 -19
q7 -9 10 -16t2 -51l4 -30l-7 -36v-13q-25 -18 -25 -33t25 -34v-16q0 -17 5 -67l1 -26q2 -17 2 -25v-13t-6 -10t-73 -38q-49 -11 -59 -11t-20 9q-1 12 -1 16l4 68l23 18l-16 33q0 13 18 37q-14 22 -14 53t12 55t13 40l-11 52q0 26 6 30l16 10q8 6 8 16t-12 39q-12 28 -12 51
t4 46q0 3 -12 29t-13 59l17 215q0 32 -9 77l-32 3l-4 -5h-68q-5 8 -5 20z" />
    <glyph glyph-name="two" unicode="2" 
d="M445 20l-25 1l-45 -1v26l-35 2v-19l-6 -7q-12 1 -18 1t-44 -12t-84 -12t-50 14v1l4 13q18 9 28 23t45 16q9 32 19 42t39 13l7 15l19 9l-7 28q58 53 93 94l20 22q15 33 28 45t37 39l23 25l12 29l20 30l13 35l8 19l9 28l11 12l47 78l55 81l8 28l12 26q2 6 4 34t6 46t4 22
q0 6 -12 28t-15 43l-50 30l6 37q-15 12 -35 19l-6 -23q-125 104 -192 104q-40 0 -101 -71q-3 -3 -13 -23t-16 -21q-5 0 -50 24q6 19 16 31t20 30h19l7 12q18 2 37 16l25 14q29 23 52 33q22 10 70 10t87 -8q14 -28 26 -28t26 22q11 -9 15 -23t17 -14h9l16 13q30 -15 44 -19
t32 -18v-12q65 -31 98 -76q10 -15 8 -19l2 -50q7 -27 7 -33t-13 -33l-22 -5q5 -23 5 -43t-27 -54q-27 -35 -58 -87l-61 -89q-33 -62 -34 -63t-10 -4q-10 -22 -33 -52l-22 -35l-23 -25q-76 -112 -80 -125h-5q-37 -65 -48 -79q-12 -14 -29 -24v-26l53 -3q2 0 23 4h2q1 0 49 -7
l38 -10l63 6q24 -7 56 -7l38 -4l34 5l66 -10q2 0 30 6l34 -9l26 3l47 -4q7 0 32 8t42 30l31 -9q2 -14 2 -25q0 -12 -18 -36t-27 -50q-18 0 -30 -2t-36 -24t-41 -20l-30 6l-29 5q-40 10 -58 10l-54 -1q-7 0 -36 4h-32q-28 5 -35 6h-1l-66 -6q-4 0 -22 2t-38 2l-19 18l-9 -9
l-17 5l-3 -3v-8z" />
    <glyph glyph-name="three" unicode="3" 
d="M731 1152q0 -6 -12 -48q-4 -28 -14.5 -54.5t-86.5 -125.5l-64 -102q-5 -6 -26 -29q30 -13 54 -13l38 3q1 0 39 -8q45 -3 55 -7t31 -21q13 0 22 -1t53 -24l62 -27l41 -58q15 -16 18 -43l-27 -28q18 -18 22 -28t4 -57q0 -46 -11 -89q1 -32 -9 -60t-18 -34t-19 -11l-31 -63
q-21 -28 -31 -57t-17 -35l-35 -31l-9 -28l-48 -43q-31 -43 -47 -59v-13h-5q-26 -26 -56 -35q-10 -16 -14 -18l-26 -17q-4 -3 -14 -12q-71 -62 -125 -65q-13 -37 -60 -55t-54 -18t-31 17l-42 -3q-11 13 -11 24q0 33 75 43l23 14l24 1q53 27 71 30q18 2 22 4t19 13t34 21
t63 42l5 2q13 17 17 20t34 5l-6 26q32 24 71 69h7l6 6q-7 14 -7 22t13 24l19 34q35 48 39 59t23 61l5 24q5 15 5 27l8 22l1 12l3 14q-1 3 -9 8q-1 7 -1 13t10 41q-16 15 -17 21l-6 27l-14 31l94 25l-45 22l-17 19q-7 7 -32 11h-14l2 16q-12 71 -19 72v-2q-14 -34 -20 -88
q-44 34 -68 46q-3 25 -13 38h-5l-15 -15h-12l-13 -12q-14 9 -36 9l-17 2l-30 -2l-22 4q-38 1 -46 1t-26 -16l-67 -43l-27 -8q-33 -13 -41 -13t-23 3q8 20 14 39q6 18 18 24q11 6 35 9q11 35 17 39t33 16t37 26t14 33q4 18 27 33q4 22 7 46t9 31l33 37l14 35q26 53 27.5 56.5
t3.5 23.5q-17 11 -39 11h-45q-5 0 -23 6t-80 7l-86 10q-10 -1 -34 -17t-38 -16q-24 0 -24 20t40 43l21 14q60 30 77 49l54 -12l24 2q82 -2 109 -9l68 2l40 -5q30 2 41 2t76 35q9 -13 9 -19z" />
    <glyph glyph-name="four" unicode="4" 
d="M582 608q9 0 17 -1l13 14v4h39q8 37 8 62l-10 62q-1 11 20 33q5 13 5 20q0 6 -17 26t-17 43l2 52q0 26 -19 26t-30 -39q-25 -6 -53 -36t-60 -59l-16 -17l-122 -103q-60 -43 -72 -61t-12 -32q0 -12 11 -23l44 53l43 -11h39l48 -14l33 13q4 0 17 -19l24 -6l23 -29l2 -1
q18 31 24.5 37t15.5 6zM711 1175q20 0 34 -11q-2 -9 -2 -15q-1 -6 5 -16q10 -19 11 -75l-4 -63q0 -3 5 -30l-6 -23l-3 -36l-7 -25l12 -62q-2 -41 -3 -65t-21 -84q11 -22 15 -41h37l11 -17q23 24 31 24h1l54 -7l71 9q40 0 99 15q42 16 47 16t18 -6q20 23 38 23t19 -20
q0 -20 -39 -37q-16 -18 -49 -33v-23q-10 -5 -19 -17t-27 -12l-23 -2q-16 0 -42 29t-36 29q-8 0 -57 -19q-52 -37 -59 -37l-51 7h-2q-13 -1 -21 -19t-9 -46v-79q-4 -57 -4 -63t8 -21l-19 -14l4 -24l-10 -11v-5l26 -17l12 -91l3 -25l-1 -48q0 -7 2 -24l-8 -3q-4 -13 -8 -17
t-31 -17l-39 -26q-11 1 -26 -4q-17 -36 -41 -36q-24 1 -24 25t25 42q-1 8 -1 16t10 31v28q24 45 24 51l-1 15l-1 56l-8 26l55 99l-52 30v1q0 35 20 60l-4 56l-21 -5l-2 3v16q0 10 -5 22q-46 3 -54 3t-65 -9l-27 5l-22 1l-35 2l-24 -7l-27 49l-25 -46q-5 -7 -17 -7t-67 9
q-15 23 -23 23t-25 -17q-18 -17 -28 -17l-17 1l-93 -3h-7t-64 1q4 30 11 44q5 7 25 19l36 28l24 12l39 35l23 10l49 34l41 19l33 26q25 10 35 18t40 37q7 5 42 21l39 37l27 16l16 26l26 19l26 44l26 35q17 27 18 28t16 9t24 22t24 34q15 18 32 50t37 31z" />
    <glyph glyph-name="five" unicode="5" 
d="M143 -256q4 22 22 46l48 -4q21 17 29 19l35 7q12 2 53 41q10 -1 22 -1t28 14t20 36q22 13 134 110q30 20 32 22t24 39l23 20l24 25l32 20q7 6 13 35q20 18 24 26t10 42l25 40l10 29q25 50 27 60t1 54l10 37l-1 20l-2 30q-1 8 -13 28q18 2 32 12l-3 12q-15 77 -21 77
q-14 -42 -14 -62t1 -37q-6 3 -17 26q-2 3 -54 41q-2 28 -10 34t-24 7l-4 5q-9 -1 -17 -1q-8 -1 -28 11t-52 18q-30 6 -42 9t-30 5q-19 2 -41 7v4q6 11 6 17t-15 22l-20 -35h-26q-46 0 -69 -25t-24 -26l-32 -13q-32 -14 -40 -14t-27 11q-1 4 -1 8t19 29t30 30t17 15t22 22
q15 14 25 31t13 19t16 8q9 25 11 35t45 76q6 11 23 70q16 40 17 43.5t1 23.5q34 4 38 10t11 26t21 20h26l4 -1l50 6l30 -52q29 42 37.5 49.5t30.5 7.5t27 -16l11 -41q2 -5 4 -5t47 69l36 -1l35 5l23 3q31 22 40 25t33 4q6 -21 6 -28t-37 -58l-28 -48l-23 -13
q-26 -17 -48 -25q-23 16 -31 16h-80l-20 48q-6 10 -13 10t-66 -57l-26 46l-18 -6l-21 -5q-13 -4 -19 -44l-4 24l-4 -31q-25 -5 -29.5 -9.5t-30.5 -60.5t-36 -86q24 -6 73 -12t63 -12t16 -7l67 2q25 -5 57 -5l-3 -15q17 10 27 10t30 -18l32 -3v-17q0 -19 11 -38q7 -1 11 -1
l38 19q4 0 25 -25q41 -34 53 -50t11 -34v-2l-3 -24l7 -45l-5 -34l-1 -29l-13 -35q-11 -58 -25 -69q-14 -12 -27 -50t-36 -68t-29 -38l-12 -27l-21 -25l-22 -32q-71 -81 -98 -102t-57 -54t-68 -60q0 -15 -3 -21t-35 -29q-14 -33 -40 -44q-16 -4 -17 -5t-8 -12q-10 -9 -83 -60
l-38 -23q-3 -1 -18 -20q-10 -3 -26 -3q-17 0 -106 25z" />
    <glyph glyph-name="six" unicode="6" 
d="M287 566q1 12 7 23t44 58q2 2 28 57t67 83q5 11 28 35q26 52 44 79t65 72l16 20l7 7q11 22 35 38q2 14 8 20t12 15q6 8 43 45q38 37 51 60q13 24 17 26t30 14q11 14 43 45l30 34q29 28 34 33t54 35t53 30q15 0 30 -27q-9 -16 -19 -40t-14 -27t-34 -11t-49 -40
q-39 -2 -66 -37q-17 -26 -21 -31t-40 -15q-12 -29 -48 -69t-63 -49l-11 -31l-98 -115q-66 -77 -81 -114q-4 -7 -20 -27q-7 -22 -17 -33t-23 -31h-4q-19 -26 -25 -43t-19 -41q-12 -24 -12 -36t9 -43q-28 -61 -39 -98q8 -13 8 -18t-8 -23t-12 -69v-1l2 -23q0 -7 -16 -47
l32 -20q8 -36 25 -66t25 -45q28 -6 42 -21v-7q1 -21 13 -28q17 4 25 4t25 -8q17 -9 34 -13t32 -14l13 9l18 -9h1q6 0 16 6t34 9q42 25 102 57l22 25q48 44 59 65t16 51q22 6 29 22l-20 27q10 10 10 17l-3 21q-2 16 -3 17l-12 18q-4 13 -22 29l11 39v27q0 42 -11 71l-8 -16
l-30 -79q-16 34 -26 44t-32 14q6 15 6 24t-7 17h-10l-34 -14q-2 0 -29 8l-61 -5q-35 11 -57 11t-43 -19q-15 4 -19 4t-8 -1l-26 -6q-11 3 -11 19t98 80q87 28 95 28l46 -1h52l23 -4q16 -1 21 -3t21 -24q18 12 27 12q40 0 54 -25q1 -1 8 -23t23 -38h30q11 -26 29 -93l10 -30
v-17l2 -32q0 -3 -11 -59q-27 -51 -30 -57t-32 -41q-17 -37 -31 -53t-46 -30q-29 -61 -148 -120l-32 -21q-8 -3 -50 -15t-72 -22t-42 -10t-63 14q-60 16 -117 44v21q-32 22 -44 38q-12 15 -24 27t-30 45l10 5q-24 50 -24 82l19 58q0 4 -7 35l7 49l-7 32l31 60l14 24l15 34
l13 10q12 8 22 17q-4 17 -4 29z" />
    <glyph glyph-name="seven" unicode="7" 
d="M1048 1170q23 0 23 -22q0 -13 -21 -29q-51 -53 -86 -142l-31 -44q-41 -44 -47 -54t-12 -36q-11 -5 -22 -22l-23 -30l-6 -22q-20 -32 -20 -40v-12q-22 -11 -25 -18l-10 -27l-41 -80q-21 -18 -23 -21t-8 -17t-30 -50t-34 -62q-33 -78 -71 -107q1 -20 -3 -27t-45 -82
q-45 -71 -52 -91l-24 -6l2 -27v-3q0 -13 -5 -21t-24 -21q-18 -13 -20 -20t-3 -39q0 -2 -14 -28t-22 -58q-8 -31 -17 -40l-15 -13q-8 -5 -8 -25v-29q1 -8 -15 -23t-17 -18l-4 -30q-16 -36 -25 -45t-25 -22q-18 -5 -33 -7q-32 -22 -40 -24t-42 -11q-9 9 -9 21q-1 12 23 50
t30 44t31 7q7 20 9 30t40 87l-5 3q41 55 51 74t34 32l-5 34q18 11 24 25t47 74q5 6 15 58l28 9v28q20 17 22 25l8 22q42 66 52 87q17 6 19 10t5 23q4 19 31 62l33 56l19 27l35 64q13 31 18 39t34 23l-6 33q16 16 22 26q1 3 40 85l39 64l5 36l20 31q0 31 11 69h-188l-13 1v23
l-25 5h-2q-20 0 -20 -27l-3 -4q-23 8 -30 8t-46 -6q-5 19 -16 19t-23 -26l-20 82l-37 -79q-63 0 -99 -23t-54 -24q-18 14 -18 32q0 3 63 69l60 40l22 25l77 30q40 -8 48 -8t18 1q20 -14 25 -14l71 -5q39 -17 53 -22l-3 28q29 -9 35 -9t63 13l77 -6q10 0 24 12l9 -25l46 -11
l12 34q22 10 40 16t24 12l19 20q6 6 29 6z" />
    <glyph glyph-name="eight" unicode="8" 
d="M406 756q0 -8 93 -26h11l28 21q19 -13 39 -18v-17l5 -5q11 1 27 8l70 -87q34 69 56 93q11 31 16 34t22 11t23 30q6 21 8 54t6 55q-8 5 -14 15t-30 38t-36 33t-27 13q-29 22 -51 29l-19 -25q-11 2 -19 2t-24 -7t-35 -12q-65 -15 -74 -74q-16 -19 -26 -58q0 -22 40 -80
q-89 -19 -89 -27zM828 268q19 0 19 18t-31 26q5 15 5 21l-9 64q0 14 1 33q-24 8 -28 13q-30 39 -49 55l5 29q-27 9 -29 15t-3 6l-20 -5h-7q-4 0 -50 26q-13 15 -19 15h-12l-61 1l-10 -17l-3 4q-32 -8 -80 -30t-76 -49q-29 -27 -35 -35t-17 -41q-21 -35 -25 -47t-6 -52
l-3 -24l4 -34q-12 -21 -13 -24q8 -24 12 -30q3 -3 25 -10q27 -24 53 -48t74 -28l14 -18l18 5q14 -26 24 -29t27 -5l15 24l63 -8q15 0 40 21q23 5 40 25q20 3 26 7t39 38l25 17q13 37 35 74q16 -3 22 -3zM809 1124q23 -39 85 -57l-12 -46q15 -5 21 -5t14 2q10 -37 10 -40
t-1 -9l-11 -7q13 -20 13 -44t-18 -66t-30 -56q-10 -14 -43 -30q-10 -6 -14 -42q-21 -18 -49 -33t-28 -19t3 -11q23 -7 51 -21t47 -22q9 -21 11 -27t16 -15q14 -8 31 -32t17 -28t-1 -20q-2 -16 -2 -19q0 -34 39 -49q-4 -24 -4 -52t-10 -43l-19 -38l-10 -25q-30 -39 -67 -69
l-32 -21l-39 -49l-42 -30l-24 -23l-28 -16q-30 -22 -55 -28l-22 -27q-25 -1 -30 -3l-65 -24q-9 -3 -15 -3t-40 4l-38 -3l-44 24q-34 -9 -44 -9t-82 37q-11 30 -20 38t-34 14q-17 44 -19 76t-15 82l13 47l4 20l16 25q13 33 19 41t26 31l17 -8q11 13 11 21t-11 17q5 22 8 25
l33 35q30 32 66 56t44 23q8 0 23 -8l6 7v17q23 13 39 34q-25 9 -38 13t-15 7l-41 53q-3 5 -28 10l6 25v2q-1 5 -13 27t-12 32t5 28l30 4q5 9 5 26l-21 17l20 28q32 47 90 101t86 74q26 20 41 25t37 17t42 16q22 4 28 6t9 2t11 -6t58 -21q9 0 35 15z" />
    <glyph glyph-name="nine" unicode="9" 
d="M849 722l-11 60q0 18 6 55q-18 9 -22 13t-16 35q-14 30 -32 43t-40 29q2 10 2 18q0 15 -27 30l-27 -15q-20 8 -38 14t-32 15l-12 -12q-18 11 -31 11q-16 -12 -22 -12t-12 2l-3 -3l-5 15l-4 -4l-5 -21q-71 -34 -111 -69q-40 -36 -53 -54t-23 -59l-24 -14l11 -37v-1l-3 -37
v-1q-1 -15 15 -39t23 -40t24 -30q23 -28 35 -36t25 -22q0 -6 30 -5q16 -29 55 -29l61 1q29 -9 51 -9t39 17l24 -4q17 -1 32 -11q-23 -37 -42 -50q-80 -57 -182 -55l-20 -2q-31 11 -35 11l-31 -7q-10 0 -34 9l-12 21l-27 -6h-1q-27 9 -37 13t-22 20q-14 16 -30 35t-19 33
l-30 127l3 29q4 50 6 56t27 44l15 28l26 28l8 27l12 7l17 16l35 28q16 26 20 30t44 34t106 68l31 18l29 22q30 18 47 33q15 -2 23 -2t41 10l22 -8l33 -9l19 -9l82 -19l22 -23l37 -22q35 -29 39 -35t7 -27t19 -45q15 -24 19 -73l4 -20q-1 -6 -14 -30t-13 -44l5 -41l-11 -54
q0 -2 7 -7l-22 -16q0 -15 -6 -28l-9 -24l-25 -41q-12 -30 -19 -40t-10 -20t-22 -20q-6 -38 -8 -41l-21 -32q-6 -4 -15 -44q-23 -10 -23 -13q0 -2 -6 -24t-87 -130l-20 2l-24 -39l-1 -29l-71 -70l-12 -22l-41 -47l-24 -35l-40 -34l-17 -27q-39 -43 -45 -49t-31 -11
q-7 -27 -31 -53t-34 -34q-11 -6 -40 -12l-3 -16q-19 -10 -37 -24t-34 -18l-24 -7q-28 3 -34 3t-15 15q-22 14 -26 17t-4 10q0 20 17 20h31q6 9 25 14q71 16 150 108l19 -4q24 15 28 22l21 33l44 41q18 26 24 31t25 16q2 16 4 18l46 39q3 15 17 32t22 27l22 26l29 44l19 23
q18 36 24 42t27 16q7 28 14 38t37 47q30 35 29 45q0 10 -8 19q12 18 24 53l12 31l1 25q0 2 17 28t17 44t-6 35q13 18 19 50t6 37z" />
    <glyph glyph-name="colon" unicode=":" horiz-adv-x="437" 
d="M333 516q0 -8 -14 -23q-7 -16 -8 -22q-1 -3 -9 -7t-19 -14t-43 -37q-22 19 -32 30t-42 36l-24 28q-6 5 -32 6l-5 6q-2 1 -2 5t68 57q16 19 40 34q19 -14 61 -37q42 -22 52 -38q9 -16 9 -24zM333 104q0 -8 -19 -47q-9 -19 -79 -61q-15 16 -27 28t-30 24t-37 43
q-26 1 -38 7v12q17 13 39 29t36 31t34 27q33 -27 61 -39t44 -30q16 -16 16 -24z" />
    <glyph glyph-name="semicolon" unicode=";" horiz-adv-x="437" 
d="M238 418q-4 0 -37 34l-34 27l-24 28q-6 5 -32 6l-7 7v10q57 42 106 86q22 -16 91 -54q31 -21 33 -46v-1l-12 -24q-12 -25 -36 -41t-34 -24t-14 -8zM326 5l-17 -45q0 -8 1 -15l5 -37q-1 -14 -15 -43t-36 -50v-8l8 -7v-5l2 -3q-20 -26 -34 -48t-42 -45t-40 -23l-38 1
q-2 1 -29 1t-27 16q0 4 18 16t24 13q6 0 9 -3h21l11 18q25 6 53 26q2 17 8 24t27 22q2 18 3 35t12 38l-2 27l8 24q-8 13 -10 26q-11 62 -37 75q-14 8 -21 18l-12 4q-3 14 -11 25l-43 -4l-7 7q2 19 57 62q19 19 44 47q58 -6 87 -55l7 -47l8 -27z" />
    <glyph glyph-name="less" unicode="&#x3c;" 
d="M508 780q12 14 30 60h42q9 32 16 35l38 19l74 46l41 15l25 20q36 23 42 29t22 33l51 -6l15 60l74 -6q12 29 26 47t73 40q-6 -22 -6 -26l-3 -111q0 -22 -46 -36q-46 -15 -68 -40t-33 -38l-45 5l-23 -30l-33 -5l-18 -35l-35 -7l-17 -29h-41q-16 -18 -50 -38q-7 -4 -20 -31
l-39 4q-12 -42 -22 -47t-63 -8q-59 -33 -61 -35q-2 -1 -18 -27t-51 -36q-16 -28 -31 -28h-4q-9 2 -27 4l-58 -62q32 -14 70 -15q9 -10 39 -53l42 -2q10 -12 24 -32t43 -19l27 1h1q15 0 19 -9q13 -55 16 -65l82 13l45 -75l47 4l13 -39l46 5q23 -23 70 -52q10 -6 27 -38
q20 -4 44 -6t40 -40q20 -4 38 -7t31 -9q3 -28 10 -40l31 -12q9 -34 9 -38t-16 -46v-11q11 -16 18 -31q-49 19 -61 31t-23 37q-9 1 -15 1l-19 -2q-4 0 -40 44q-7 7 -73 25q-12 2 -40 51h-10q-20 1 -30 5t-23 28h-37l-19 33q-35 12 -47 30t-21 28l-52 -10l-18 42q-27 5 -58 9
t-37 14t-11 46q-17 -1 -33 -1t-23 5q-6 5 -42 53q-9 8 -56 11l-14 37q-29 5 -39 9t-49 28l-31 16l-40 43q-3 7 -39 27v8q23 9 49 10q26 0 36 10q9 10 18 41q31 7 99 33l10 41q33 9 45 13t53 38q47 22 53 28t15 25z" />
    <glyph glyph-name="equal" unicode="=" 
d="M702 781l33 -9l38 6h67q17 0 36 -16l15 19q21 3 51 5t60 7q9 -11 9 -23v-15q-1 -45 -2 -74l-25 -4q-24 -3 -38 -3t-31 9l-6 -4l-46 26l-22 7l-32 20l-37 -47l-37 41l-53 -40q-2 0 -8 11q-29 -18 -37 -18t-40 40l-55 -38q-2 1 -20 13l-6 -10l-46 47l-40 -47q-32 50 -38 50
t-45 -32l-32 -9l-37 -13q-7 1 -20 17l-19 -22q-33 58 -44 58q-18 0 -25 -49l-5 11l6 33q0 4 -1 9l-3 23q1 10 11 28h20q23 0 28 -8l32 -45l41 51q12 -14 37 -22l26 16h49l13 -50l16 29q12 22 20 22l41 -4q2 0 57 6l49 -18q24 15 28 15h20l44 1h3zM799 517q6 0 22 2
q15 -14 19 -14t43 18h39l15 1q37 0 59 3q13 -15 13 -19l-3 -41l6 -29q0 -3 -7 -13q-13 1 -23 1l-43 -8q-7 2 -18 22q-25 -18 -39 -17h-1q-29 -1 -46 28l-17 27l-68 -51l-35 49l-54 -48q-2 0 -7 9l-9 -13l-55 50l-22 -25q-13 -25 -23 -25h-1l-44 12h-1l-20 -7l-42 42l-41 -43
l-34 6l-18 -5l-34 -3l-32 -2q-17 0 -27 -6l-85 6q0 21 2 52l-1 29q0 5 4 21q38 -1 118 -8v-3l14 -14q20 18 31 17h1l59 -3h22l24 -5l22 9l57 -44l30 44q7 -9 21 -19q37 21 45 20l71 -5l44 2q7 0 27 -4l13 7q23 -3 29 -3z" />
    <glyph glyph-name="greater" unicode="&#x3e;" 
d="M692 669q-26 0 -50 8l-13 66l-83 -14q-29 52 -47 77l-43 -6l-14 40l-45 -6q-21 23 -73 56q-10 7 -23 39q-27 5 -45 7t-24 12q-7 10 -18 33q-38 3 -63 11q-6 20 -9 35t-35 23q-10 27 -10 46l19 47q0 3 -6 13t-14 29q44 -17 56 -29t25 -45h45q24 -42 34 -48t70 -22
q7 -1 19 -21t23 -35l40 -3l21 -31h37q10 -23 16 -29t22 -14t25 -23q9 -14 22 -31l54 10q8 -32 19 -39t66 -14q36 -8 37 -57l51 -2q14 -12 28 -30t30 -35l46 -4l15 -37q29 -6 72 -28t45 -23t28 -28t52 -44v-8q-24 -8 -60 -9q-32 -4 -42 -51q-30 -6 -99 -33l-10 -41l-33 -9
q-17 -5 -19 -7l-47 -35q-47 -22 -53 -28t-15 -25l-48 7q-16 -17 -31 -60h-43q-6 -26 -10 -30t-36 -20l-83 -51l-30 -9l-34 -24q-36 -24 -43 -32t-21 -31l-49 7l-19 -61l-70 7q-24 -46 -28 -50t-23 -12t-50 -25q8 28 8 41l-2 69q0 31 8 41t44 23t46 21t50 55l48 -3
q16 25 23 27q4 5 32 7l17 34q28 2 36 10t17 29l41 -4q18 22 37 32t34 37h40q7 40 19 46t65 8q3 1 31 17t28 17l26 38q5 10 24 18q20 8 24 12t18 21l39 -4l59 62v2q-23 9 -62 15q-26 9 -46 50l-42 4q-12 13 -27 32t-41 19z" />
    <glyph glyph-name="question" unicode="?" horiz-adv-x="806" 
d="M315 123l2 16q20 15 45 29t35 24t29 20q19 -17 76 -56q27 -19 36 -56q-10 -12 -25 -40q-1 -2 -27 -20t-44 -33q-58 53 -88 93q-10 14 -39 23zM456 1131q6 0 32 -4l61 3q39 -10 51 -14t36 -23q33 -10 72 -22q8 -22 33 -56t25 -61q0 -52 -55 -58l3 -26l-59 -63
q-39 -37 -63 -55q-16 12 -24 12t-27 -16l10 -17q-1 -17 -45 -57t-43 -69q0 -29 30 -54l-16 -8q5 -28 23 -39q-18 -35 -44 -35t-54 8q-28 9 -31 15q-4 6 -8 22t-19 34q6 11 19 20l-4 19q12 18 35 35l20 33l16 20q36 57 180 161q2 30 12 50t10 25q0 38 -47 87l-8 14l-18 -6
q-25 21 -59 28q-35 7 -43 12l8 8v4q0 11 -15 11t-36 -22q-28 4 -39 4t-59 -5l-34 2l-27 -9q-25 -5 -43 -17t-50 -32l18 -54q-23 -24 -42 -56q-18 -4 -38 -15t-29 -12h-3l-25 5q-9 14 -9 37t6 35t31 40l16 21l31 19q47 42 53 46t61 30l33 17l35 6l41 17q52 2 76 8
q9 -10 15 -10q18 7 24 7z" />
    <glyph glyph-name="at" unicode="@" horiz-adv-x="1607" 
d="M814 761q-12 0 -46 -12q-25 -1 -34 -3t-25 -21l-20 3q-9 -10 -29 -20t-22 -18q-4 -8 -12 -29q-1 -3 -27 -27t-26 -63t16 -68t16 -36v-12q14 -4 28 -26q13 -22 53 -42t55 -21q15 0 29 -6t30 -6q14 0 83 3q85 19 91 23t16 26t11 41l-2 63q-1 39 -5 60l24 10q-4 20 -8 34
t-7 51l-5 35l5 27q0 4 -7 15l-45 -9q-9 0 -46 13q-45 7 -61 11q-18 4 -30 4zM515 55q-10 0 -55 13l-38 7l-45 13q-27 4 -31 6t-16 14q-14 14 -45 17q-16 48 -26 89t-33 67q-11 -3 -25 -99q-21 19 -20 33l4 29q-25 20 -47 27t-27 13q-2 4 -19 30q0 14 -11 44t-12 34l-1 25
l-9 57l2 24l1 46l10 43l1 35l53 133q6 19 28 43t28 36h5l33 41q8 -2 17 -2t18 12q9 13 9 21t-2 19q32 39 48 47t39 18q3 14 7 19t55 39t61 35q10 0 19 -4l14 27q27 2 63 20t84 35q49 17 67 17t56 -9l17 24q11 -10 13 -10l62 12q31 -5 36 -5l52 9l44 -4l27 1q35 -12 56 -14
t58 -25q82 -12 140 -67l-11 -30l5 -5h12q11 8 17 8t20 -21q-3 -15 -3 -24q0 -20 16 -20l29 8q29 0 48 -37q25 -11 29 -19t9 -19q4 -12 13 -24t19 -30q-41 -4 -59 -16t-17 -20q0 -8 6 -12t45 -22t43 -26l11 -21q25 -38 25 -48t-16 -25l14 -7q5 -23 7 -64l2 -22l-91 -56
l82 -61q0 -1 -16 -7l-2 2h-14l-12 -29q17 -29 19 -33t2 -18q-22 -18 -30 -43q-19 -8 -42 -9t-44 -8t-26 -7t-40 10l-48 3l-61 15q-59 4 -75 11t-35 14v-10l-83 -13q-7 0 -26 4q-22 -13 -28 -15t-41 -7q-113 -30 -170 -30t-101 11l-12 17l-19 -11l-18 28l-35 -7
q-15 25 -41 41q2 10 2 16q1 6 -19 32t-20 68q0 41 7 59l22 53q20 56 42 56q9 0 21 -2l3 45q17 7 23 11t25 28q20 24 40 25l40 -7h1l17 6l4 26q49 18 111 27l22 -23l27 18q18 -7 64 -16q22 -12 29 -12t22 6v4l59 7q-1 -9 -1 -15t2 -13q-12 -26 -12 -30t2 -16l8 -120l1 -18
l1 -54l8 -40q4 -58 8 -80q13 4 38 4q25 1 39 -5t17 -6h7l2 -2q2 -18 13 -28q30 22 40 22t30 -9q25 -3 74 -7v14q0 8 16 50q5 28 8 34h11q0 25 10 54q-21 28 -21 54t8 50l-5 42l26 47q0 40 -44 46q-11 15 -11 27t3 29q-29 28 -37 42t-13 42q-10 2 -19 12t-22 24l-23 31
l-37 25q-28 26 -42 30t-19 20q-27 1 -41 5t-91 46l-78 13l-54 11l-54 -3h-39l-47 -12q-29 -3 -39 -7t-33 -22q-16 7 -26 7t-62 -31t-77 -32q-32 -47 -39 -40l-25 -10l-38 -38q-67 -62 -84 -87t-40 -60l-17 -4q-18 -28 -18 -41v-18q-12 -10 -14 -27l-6 -5q-19 78 -26 79
q-5 -1 -13 -41t-25 -67l3 -9q23 -10 28 -18t5 -25v-34l-2 -23l2 -24l1 -17l7 -30q0 -29 2 -35q1 -6 11 -18t12 -29q-16 -7 -16 -17q0 -28 26 -28q7 0 17 1l30 -35l-7 -32q19 -13 48 -36l56 -36q51 -40 52 -40l26 -7q7 -1 29 -6q9 -20 18 -25q32 -14 122 -45q16 -20 24 -22
t38 -3l144 -16q40 -5 52 -5t43 11l47 -8l20 1q44 0 63 7q63 27 95 36q6 -10 10 -10l10 5l16 7q12 34 14 38t12 10q10 8 26 24q50 -22 50 -53q-1 -10 -17 -21t-42 -27l-42 -19l-25 -13l-31 -11q-92 -37 -184 -37q-29 0 -58 19l-52 -27q-9 13 -14 23t-26 18q-12 -12 -36 -16
t-34 -8t-14 -3q-3 0 -82 19q-17 8 -20 8l-54 -2l-18 17q-19 -4 -29 -4z" />
    <glyph glyph-name="A" unicode="A" horiz-adv-x="1993" 
d="M580 430q6 0 20 -13l31 4l12 -21q21 7 57 7h89q25 -1 67 -15q44 -3 65 -7q21 -31 49 -31l63 31l34 -7h57l22 -6l29 4l27 -3l27 2l25 -7l59 10l46 3l89 9l74 -6q16 0 16 8t-6 28q-6 18 -6 34q-19 13 -28 30q-35 71 -40 71l-31 69q5 26 5 40t-8 37l-35 -5q-11 23 -13 30
l-7 25l-22 31l-36 63q-7 41 -23 70t-16 48l20 9q-10 16 -20 16t-19 -1q-9 21 -23 41t-15 23l-6 39l-15 26l-15 35l-33 41l-18 58l-17 30q-13 27 -29 50q-52 -31 -50 -92h-6q-17 -29 -44 -67l-58 -110q-16 -28 -21 -48q-18 -11 -30 -41t-47 -42l5 -28l-15 -7h-1q-19 2 -33 3
l-8 -13l26 -16q-12 -39 -35 -79q-47 -90 -89 -116q-10 -6 -12 -28t-9 -40l-27 -50l-23 -25l-12 -28q-23 -37 -29 -53l-12 -32q22 12 28 12zM91 -312l-33 13q-8 0 -16 -1q-19 19 -42 26q7 13 9 15l29 18q11 8 27 30q15 21 31 33t24 27q-1 9 -1 23q1 14 33 44t40 42l55 100
q1 1 19 6l4 4q-1 11 -1 21t2 13l25 33l99 154l2 10q-8 6 -12 6l-21 -3q-8 0 -19 1q-6 19 -6 26t13 25q8 27 41 74q20 0 28 -3l44 -15q6 4 6 15t-5 26q18 12 20 17l20 38q7 14 39 43q3 24 7 29t38 36q3 4 16 36t62 104l66 128l27 29q2 18 4 21q2 4 16 24t14 26t-2 14
q9 8 19 28t19 34l20 -29q5 13 5 19t-8 22l34 63q1 1 1 13q-1 12 7 24t17 38q9 24 18 45l43 4l-4 13l-26 12v16q15 12 22 27l-11 10v4q15 15 29 39t23 40q-8 14 -8 23v38l81 56l19 -14q11 19 15 31t11 11q7 0 16 -4q5 21 23 33t33 13q30 0 33 -73q12 -48 14 -72t24 -64
q13 -52 13 -66v-26l-40 -21q9 -20 17 -25q5 -2 45 -14q19 -6 37 -51t18 -52t-12 -26q16 -16 31 -29t17 -18l32 -81q3 -6 5 -33q38 -39 38 -94l22 -34l42 -84l-23 -14q6 -19 16 -28l15 -3l-3 -22q102 -97 105 -189q5 -22 51 -108t53 -106t21 -41l62 -137l-2 -29
q60 -32 60 -61q0 -14 -29 -28q8 -17 13 -20q5 -2 21 -8t28 -30t30 -80q43 -66 54 -86q-19 -14 -19 -26t1 -21q-44 -20 -71 -21q-26 -1 -82 -24q-26 59 -30 82t-20 47q-27 74 -27 82t1 17q-18 17 -20 25q-2 7 -4 27t-1 28q0 8 10 29l-30 27q11 16 19 22t8 12t-2 14l-48 -4
q-24 32 -31 48t-18 66l-15 35q-12 64 -18 76q-17 36 -54 36t-41 -75q-9 -3 -15 -3t-29 17t-46 21t-55 19t-46 15q-16 0 -62 -10l-29 5l-32 -3h-27l-27 -4l-47 -1q-30 -1 -40 -1l-15 -1l-62 14l-30 -6q-32 9 -35 9l-103 -20l-28 32q-32 -5 -57 -19t-67 -14l-74 8
q-15 0 -43 -8t-51 -9q-11 -19 -20 -37t-33 -47q-17 -27 -47 -79l-18 4q-8 -8 -8 -15l5 -38q-19 -22 -21 -27l-48 -97l-37 -60l-55 -35q-4 -2 -4 -12t23 -29l-15 -47q-23 -10 -35 -18t-27 -42q-29 -12 -40 -20t-16 -8z" />
    <glyph glyph-name="B" unicode="B" horiz-adv-x="1983" 
d="M1704 133q35 67 39 123l-4 4l18 14q-11 17 -11 22v49l-20 36l1 29q0 57 -160 215q2 11 1.5 19t-8.5 16t-11 8h-11q-85 38 -93 52q-7 14 -15 18t-22 16q-14 11 -36 17l-21 13q-17 10 -19 12t-18 36q-2 4 -8 4l-40 -15q-13 0 -31 11t-46 21l-20 10l-90 27l-62 33
q-28 11 -44 24q-34 -16 -40 -16l-56 18l-36 14l-41 6l-33 8l-19 3l-37 8q-85 8 -88 8l-53 -2l-82 3q-45 0 -91 -42l14 -83q0 -11 -9 -37h-2q-24 0 -33 -7q5 -34 7 -40t21 -27q-4 -15 -5 -33v-38l9 -86q0 -13 -2 -37l-5 -59l-2 -21l10 -38l2 -49q7 -41 7 -57t-9 -62h-16
l5 -50q26 -20 26 -40l-1 -67q0 -9 1 -29l-6 -6h-5l-4 -4v-6q-16 1 -28 1t-18 -9l9 -33l31 5q12 -28 12 -49v-5l-5 -44q14 -75 14 -87t-24 -36q-10 3 -17 3t-15 -10q24 -16 53 -20t51 -16l4 -20q17 3 29 19q34 -16 76 -24l34 -14l31 -4q121 -18 185 -18t169 22l20 -16
q13 16 18 17l44 6q11 1 33 22q37 1 47 4l56 14q45 9 71 23t33 13q7 0 19 -4q9 11 74 39t112 70q10 8 88 50q5 3 21 33q23 28 32 38t46 23l2 21q92 15 92 22t-95 18zM441 1102q1 0 39 -4t82 -7q-4 -16 -4 -37t15 -21q9 0 46 50v15l182 37q12 3 44 24l41 14l35 24
q74 43 106 73t34 38l18 50q16 42 16 50t-18 25l13 30q-9 4 -12 4t-33 -12l-44 48q-10 -1 -19 -1t-34 6q-10 16 -12 17l-100 19l-37 12l-32 -5l-19 2h-27l-37 9l-39 2l-34 2l-85 -12l-76 -7q-31 -7 -44 -7h-31q-10 -22 -11 -25l-7 -116q-1 -16 -26 -36q8 -12 10 -26h4l6 3
q10 -20 26 -34v-168l-5 -28q42 -10 45 -10l23 2h1zM145 -297q-52 0 -52 23q0 4 12 15t32 19l77 30q10 4 19 20t9 23l-2 28l88 25l-73 20q-16 4 -16 16t13 38l1 57v16q0 9 -17 45l96 41l-94 30q12 15 14 17t3 16t7 35q16 2 23 5v18l-17 14q-2 22 -4 39t-3 29q0 12 22 38l-3 3
q-2 17 -15 32t-13 66l7 79v69l14 16q-21 7 -21 10q6 75 6 83t-7 61l4 4l-3 50l44 18q-4 16 -18 28q2 9 2 17t-9 25l-20 -13q-15 34 -15 47t5 35l-2 56v29l-4 20l3 42q-15 93 -15 105t6 22q6 12 7 29q10 9 10 17v6l4 26l-29 -3q0 21 -7 48l-4 27q-10 57 -10 83t6 51
q-11 -3 -43 -4l-52 -11q-3 0 -12 3q15 40 17 40q22 12 31 20v5l57 13l44 -7q13 0 62 22q4 1 44 1l76 9l76 -14q8 0 38 5q14 -26 24 -28t34 -2l7 13q25 6 44 18q49 -5 95 -7t115 -15h37l62 -7q22 -1 30 -3t24 -17q20 3 34 3t121 -41q49 -14 63 -30t13 -59q0 -43 -53 -121
l-28 -45q-56 -49 -73 -72h-43l-4 -3v-31q-22 -13 -50 -29t-65 -28l-36 -17q-49 -9 -66 -23q21 -10 27 -12t52 -4q46 -4 95 -20q47 -16 73 -22t47 -17q-4 -15 -4 -29t27 -27q8 9 25 47q27 -1 114 -37q11 -2 19 -28l27 -12l3 -11l15 7l10 -11q13 13 36 13t169 -103
q16 -12 39 -41q-4 -9 -4 -15t8 -17q12 12 18 12t88 -60l13 -19q20 -10 24 -14t32 -38q26 -34 37 -54q-25 -21 -25 -33t1 -20l34 5q19 -27 27 -45t24 -81q22 -48 23 -68v-1l-3 -37v-39q-1 -20 -36 -57q1 -8 15 -15q-1 -12 -1 -21l3 -31q0 -6 -63 -92l-22 -16l-23 -21
q-26 -17 -30 -21t-19 -31q-26 -35 -105 -66l-13 12q-30 -2 -42 -8t-28 -30q21 -2 21 -17q-1 -22 -53 -32t-94 -29t-70 -29q-26 -10 -36 -15t-16 -5t-18 9l-30 -10l-9 -15q-20 -4 -38 -7t-28 -8l-26 -15q-39 11 -43 11t-16 -10q-10 -10 -40 -16q-30 -4 -52 -17l-25 23h-6
q-12 1 -25 5l-20 -28l-196 -6l-43 11l7 30l-28 6q-10 -13 -36 -21t-29 -8t-77 17l-17 9l-34 -2q-23 9 -97 15l-27 -3l-39 3l-91 4l-5 1q-46 -6 -55 -6z" />
    <glyph glyph-name="C" unicode="C" horiz-adv-x="2052" 
d="M1134 -319q-11 -17 -68 -17t-85 11t-42 11t-28 -18l-49 2q-18 28 -34 28h-3l-55 -3q-38 -1 -88 27t-103 50q-83 52 -110 65l-7 18h22v14q0 33 -25 36q-15 -17 -23 -17t-37 25l-68 47l-21 29l-10 11l-35 52q-78 106 -104 238l20 12v19l-22 15q0 23 -9 43l-6 21
q-11 18 -12 22t-1 38l-4 44l6 20q-10 29 -10 45q1 15 9 27t14 47q-15 9 -15 17q0 26 37 153l43 3l-17 54q0 12 25 81q9 41 23 68t35 62l35 -9q7 0 20 11q13 2 17 6t7 16l-24 3l-10 36q0 10 18 28t30 36q11 18 22 29t18 30l36 41q6 5 41 28l3 -3l28 14l2 23l129 103
q7 6 30 18l27 18l25 7q39 27 46 27t27 -10l14 37l41 -8l3 19q32 10 56 19t60 12l30 9q36 7 42 10t21 17q14 -1 25 -1l80 18q16 1 30 -3q12 -4 15 -3l133 4q38 -1 65 -31t32 -30q18 0 34 42q33 -21 47 -21t21 1l27 6l32 -11q132 -34 170 -51v-30h-1q-17 -16 -37 -38t-31 -22
t-34 13q-57 23 -131 50l-13 33l-45 -11q-4 0 -44 14t-44 21q-5 7 -9 14q-33 -13 -42 -13h-137l-25 3q-45 -7 -69 -17l-61 -7q-39 -8 -56 -11t-44 -18l-50 -23l-36 -25q-109 -45 -147 -96q-25 -7 -59 -28q0 -12 -4 -23q-20 -10 -53 -43l-24 -22q-38 -52 -54 -52q-6 0 -14 1
q6 -11 6 -14t-49 -83q-39 -39 -43 -47t-24 -55l-21 -50l-9 -29q-28 -49 -34 -69q-6 -19 -17 -71q-12 -52 -14 -58q-3 -14 -33 -20q3 -26 23 -43q-10 -26 -10 -34l9 -59q0 -9 -9 -13l-79 -30q-9 -3 -9 -9t10 -21t16 -31t18 -26t35 -28l17 -46q7 -15 9 -36h-6l6 -34l14 -4
q11 -19 11 -31h3q8 -56 13 -64l18 -36q28 -73 28 -85t-20 -11l10 -25q28 1 50 -13q20 -23 38 -47l30 -27l23 -29q40 -22 55 -34q1 -24 18 -36t46 -23l45 -27l65 -32l33 -13l23 -17q10 -5 20 -17q13 14 21 14t122 -31q124 -1 130 -1l45 -17l29 20l19 -2l81 11q19 1 90 20
q37 -11 48 -11t46 23l47 11q43 14 57 22l23 -5q13 -2 91 24t81 28t16 19l38 19q31 18 47 18t35 -6q1 25 7 31t36 18q32 19 38 19t19 -9q-4 -53 -17 -75q-13 -23 -17 -39q-5 -16 -13 -22t-84 -18q-34 -15 -44 -17t-57 -13l-44 -9l-47 -13l-42 -6q-62 -19 -76 -19t-68 2v-6
q0 -19 -24 -19l-28 3q-1 0 -11 -2l-123 -28q-39 -8 -90 -10l-76 -4h-4z" />
    <glyph glyph-name="D" unicode="D" horiz-adv-x="2023" 
d="M1544 1272l-36 -4q-4 0 -58 45l-46 27l-30 24l-102 52l-30 9l-26 9l-51 7l-38 11l-81 13l-61 13q-80 14 -84 16q-3 2 -17 15q-14 12 -19 12l-43 -14q-1 0 -34 5l-41 1l-106 7l-86 -3h-63q-13 0 -32 8t-21 8q-1 -1 -13 -5t-29 -6q-9 -16 -9 -21l3 -36l-8 -29
q-4 -35 -11 -56l-18 6q-9 -15 -9 -22t11 -20h24q8 -20 13 -65l5 -22l-2 -64l3 -37q-15 -33 -15 -37t8 -32l-4 -73l1 -21l1 -33q7 -32 7 -39t-5 -17l-26 8q-6 -12 -6 -26t17.5 -16t32.5 -7q-21 -21 -32 -29q-48 -36 -48 -58q0 -3 81 -127q-9 -43 -10 -77l-24 -11l5 -10l25 -9
l2 -10v-143q0 -133 3 -141t3 -12l-6 -50l12 -94q0 -9 -7 -21l-41 13q-11 -16 -11 -26q0 -33 37 -33h11l10 -93q0 -32 8 -91q-30 -21 -41 -48l-29 -12v-6l3 -4q10 4 12 4l54 -2q34 0 38 -1t19 -10l14 20q14 -2 19 -2l100 3q2 0 17 -7q10 20 22 26t39 5h10q56 0 71 6l27 12
l40 12q88 36 108 48l32 9q54 23 59 24t24 2l53 29q36 8 39 12q1 3 2 12q20 9 41 17t76 46q31 15 40 21t101 83l56 44l29 43l49 46q7 6 16 24t68 89q2 2 8 18t20 44t16 54q1 24 22 71q20 47 17 58l1 46l9 54q3 33 7 48q37 7 37 45t-37 55q-2 26 -12 71l-2 29q-12 35 -12 45
t4 30q-32 29 -70 104q-2 3 -4 30l-11 11q-17 -1 -25 1t-34 24q6 16 6 25t-9 21q-15 2 -23 2zM1855 616l12 -36q1 -10 -7 -28t-16 -44t-21 -26t-26 31l-22 -36l7 -12l-5 -20l18 -26q-16 -21 -43 -79l-25 -32l-4 -12l-45 -47l-7 -18l-29 -34q-16 -19 -21 -19t-14 9h-15l-13 17
q-18 -20 -18 -30t14 -27q-24 -23 -53 -42t-41 -34q-31 13 -64 17l-4 -12q13 -18 17 -30q-19 -19 -68 -53l-68 -35q-8 -4 -33 -28q-23 21 -42 22q-7 -32 -15 -38t-40 -14t-40 -15q-37 -31 -39 -31h-22q-5 0 -19 -11t-37 -19t-58 -24t-61 -20q-26 -3 -65 -15l-96 -33l-66 -6
l-25 -8l-54 -7h-22l-42 -10l-57 -2l-79 -6q-49 3 -58 4l-152 -6l-15 -4q-26 0 -26 25q0 8 6.5 12t46.5 19t57 27q4 27 20 48q-3 32 -3 47l13 76v1q0 14 -7 38l16 80q0 10 -12 37l82 23l-79 127l2 4q38 8 38 26q0 11 -14 31q-9 -4 -17 -4q-15 0 -15 33l2 25v135l-3 36
q0 16 17 43l-17 12v29l16 16q-19 19 -19 45v26l-2 58q-2 58 4 71q12 -2 23 -2t11 11q-1 4 -11 16t-19 19q-25 2 -27 23l7 55l-8 198l7 7h8q11 32 11 44t-29 27q-2 22 -19 90l-2 36q-9 27 -9 54t-10 96q-22 0 -30 1q-8 2 -23 -4q-14 -6 -44 -6q-6 12 -6 28t22 26t28 17
q17 0 44 29h30q18 -1 22 -1l54 2l29 -10q28 -10 45 -1h11l187 6q8 0 20 -8t31 -14l17 17q55 0 113 -8l3 3q17 -23 31 -23t28 24q28 -2 49 -2l140 -18l44 -1q33 -8 58 -10q4 -20 10 -22t42 -6q11 22 23 22q2 0 20 -6l34 -1q10 1 38 -17t37 -18l21 6l92 -39q90 -19 102 -28
t14 -9l20 -3q23 -17 34 -24l42 -33l45 -28q38 -29 61 -40q-6 -22 -6 -40t16 -17q16 0 32 7q20 -22 48 -50t26 -34l7 -30l25 -69l2 -46l17 -62l3 -76l7 -32l-5 -76q-3 -82 -32 -161h-18q-1 -4 -1 -6z" />
    <glyph glyph-name="E" unicode="E" horiz-adv-x="2018" 
d="M418 690l20 -85v-27l-22 -11q-2 -13 -2 -27t31 -31q-9 -15 -8 -18l9 -45l2 -39l4 -24l-4 -30l1 -37l-5 -22l-3 -64q-1 -26 -1 -30t5 -19l-37 -22q0 -18 11 -43h6q13 9 19 9t19 -12q-13 -36 -13 -44t9 -36l1 -71l6 -83q0 -40 -53 -81q1 -41 15 -47q14 -7 31 -20l39 35h44
l78 15l35 -3q52 0 54.5 -0.5t20.5 -9.5t26 -9q9 0 42 22l27 -39l38 32q8 12 14 13h5l113 -8l38 -1h35q13 -1 14 -1l42 7l74 -6q1 0 40 5h16l179 3l14 -1q1 -1 9 1t12 2q3 0 19 -4t41 -4l12 -35l29 -5v34l2 3l10 5q29 -49 33 -49t36 27q33 27 45 27t28 -15q23 6 36 8t21 6
q3 20 34 28q23 1 41 1q88 19 102 23q23 14 30 14q16 0 16 -23q0 -9 -9 -27t-14 -36q-16 -8 -17 -13l-7 -21q-26 -33 -103 -32l-32 -6l-54 47l-71 -54l-40 8l-52 2l-36 6h-47l-55 5q-2 0 -14 -3l-14 10q-26 -15 -36 -15t-50 7t-89 7l-88 -6q-1 0 -87 14q-18 -2 -22 -2t-15 2
l-16 -17q-22 4 -25 4l-105 -2h-42l-60 -4q-5 0 -22 5l7 17q-25 0 -51 -8l-3 -27h-22l-2 -1h-2q-2 -1 -14 5t-33 6t-29 -4q-2 0 -21 23t-28 23t-49 -25t-58 -25l-57 11q-6 0 -64 -9l-53 -2q-70 -16 -78 -16t-31 6q-1 10 -1 19t8 27q5 -1 12 -1q7 -1 16 9t38 72l-1 56l17 24
q-6 19 -6 20l6 150q3 71 29 89q9 5 10 23t4 27l-13 -25h-8q-4 14 -15 29v25l-1 43v1l22 29l17 54q4 9 48 27q-1 8 -78 27l33 15v13l-21 10q-5 18 -18 28q0 24 5 48l-12 90l80 59l-80 103l61 26l-63 24l24 13q0 28 7 54q-11 6 -19 15t-15 12q-4 33 -4 43l-4 56q0 11 15 28
q-6 11 -12 11t-11 -1q-3 18 -3 33t17 33q-23 20 -23 39v124q0 23 -6 79t-7 58q-2 2 -14 10v46l-34 -4v5l-5 3h-18q-14 0 -27 4q3 27 15 42h19q13 20 29 30t34 25q16 -6 24 -6l39 7l132 -10q9 0 22 4q34 -24 45 -25h13l21 -3q28 17 44 17t67 -18l42 -7l44 -11q1 0 15 5t24 4
l206 -2l8 -12l55 -4l15 18q65 2 101 6t39 4l75 -5q7 0 141 27l57 7q43 6 47 6t37 -7q-1 -19 -27 -47l-50 -27q-7 -4 -29 -22t-33 -18h-2q-55 4 -86 18h-65q-13 0 -62 6l-57 -5h-41l-62 -12l-73 7l-37 1l-22 2l-61 -6l-52 2l-24 -9l-113 6l-32 -5q-1 0 -19 6t-91 6h-19
q-9 0 -39 -3l-32 7q-7 0 -22 -17q15 -28 16 -56t2 -44q-21 -22 -29 -22t-18 4q-3 -20 -3 -28t14 -18t30 -23q-7 -31 -7 -38t11 -64q21 -5 76 -10l66 -12l47 -2l39 -5l112 -8l70 8l46 -9l78 4q128 1 159 7t35 6l65 -4v14q25 1 39 12l42 -55q16 28 21.5 34.5t25.5 20.5t32 14
q10 0 26 -3q-2 -33 -8 -36q-1 -7 -27 -22v-27q-22 -12 -34 -29q-25 -7 -37 -7t-37 28t-28 27q-3 0 -38 -49q-1 -1 -4 -1l-35 11q-11 -6 -54 -10q-48 6 -54 6t-62 -7l-36 8l-64 3l-73 -10l-71 11l-91 -2l-30 7l-36 -1l-30 1l-25 -7l-39 -2q-34 -4 -65 -4q11 -27 13 -60l4 -30
l-1 -88l6 -56q-1 -7 -13 -24l-17 -5l-3 3q-8 -20 -8 -28t3 -19l8 4q19 -14 22 -20t3 -28t-19 -36z" />
    <glyph glyph-name="F" unicode="F" horiz-adv-x="1543" 
d="M1008 1142l87 47l46 -12q15 0 41 9t117 20q63 19 88 23v-10q0 -19 -5 -29t-27 -19l5 -33q-28 -17 -54 -41l-60 2t-54 11t-45 17q-27 -17 -37 -19t-82 -4l-22 -1q-39 9 -42 9l-80 -9l-52 6l-56 -3q-7 0 -38 8l-60 -12l-34 3l-34 -3h-27l-40 -3q-35 13 -56 17l-4 -5l-3 -22
l-53 6q-3 -3 -7 -27t-3 -25l7 -134q-12 -9 -24 -10q-11 -13 -11 -29t30 -32q-48 -15 -62 -32t-14 -58t39 -59t39 -25q-17 -34 -17 -44t3 -23l17 -13l3 -10l-7 -7q-14 -1 -21 -6q4 -11 19 -21v-15l2 -152q0 -11 -4 -16t-20 -19t-16 -22q0 -20 39 -24l2 -87l2 -162
q6 -35 6 -38q0 -23 -30 -45q12 -65 39 -61l5 -112q0 -30 -18 -30q-10 0 -23 5q-2 -26 -6 -30t-23 -10l-29 -13l-42 -13l-35 -12q-8 0 -26 15q4 10 4 17t-14 25q11 18 25 50q16 24 17 28t1 27q13 68 13 102t-3 55q6 5 13 5t20 -6l-8 18q-11 4 -20 6t-13 6t-3 56q-1 52 1 58
t19 18q-2 6 -2 14t13 14l3 -3l8 6v26l-7 -3l-5 21q-5 -1 -9 -1q-18 0 -18 17v2l3 104q10 21 10 26t-6 17q17 20 17 32t-17 25q-1 26 -1 39l3 52q0 4 -6 25t-6 41t20 28v20h4l16 15l-10 34l-17 5q-10 25 -12 31t-2 83l-7 39l-3 32q-3 35 -3 40q0 21 3 53q22 -1 24 4t6 27
l-32 65q8 26 8 32t-9 47l-6 54l-11 49l-4 59l-8 33l5 32v2q-1 12 -13 36t-13 42q0 18 1 39l-36 -6l-31 33v10q12 9 33 13q16 15 54 35t48 19q10 0 29 -13q42 26 47 27q18 -19 62 -29t54 -10h11l64 6l57 -50q35 43 40 43q10 -1 22 -9t20 -8l24 1l64 -11l42 4l42 -8l42 1
l66 -2l29 8l57 -2l25 1h29l97 14q69 -6 93 -6t38 8t26 10l162 33q1 -7 1 -12t-10 -29t-43 -51t-57 -57q-16 22 -26 22h-22l-33 37q-7 -1 -20 -40v-16q-27 11 -43 33t-17 22l-62 -46q-4 -3 -20 -3q-16 1 -42 3t-54 4q-14 21 -30 20h-5q-20 1 -29 1t-35 -8t-50 -8t-70 17
l-27 -3h-29q-25 -10 -26 -10t-95 21l-25 30l-31 -43l-55 50l-16 -30q-15 -29 -45 -29h-2q-10 -1 -32 26t-41 27q-18 0 -27 -53l3 -4l-93 -99l88 -26l-1 -30v-16q-1 -10 -17 -30l20 -20l4 -97q27 2 44 2t98 -14l123 -5l25 -10l33 12q44 -8 52 -8l36 11q6 0 22 -9l5 11
q10 2 11 2l67 -8q44 -1 46 -1t22 19l9 -37q3 -7 9 -7z" />
    <glyph glyph-name="G" unicode="G" horiz-adv-x="2084" 
d="M839 -314q-55 0 -83 3t-76 4q-18 19 -30 23t-35 5l-6 -17q-105 30 -137 64t-51 49q-6 27 -22 43q-14 -1 -27 -1q-12 0 -26 10q-14 9 -40 43t-55 62q10 34 10 49q0 28 -25 28q-11 0 -25 -3q-7 18 -26 48l-49 140q-14 41 -14 54v16q3 22 3 24t-4 20q-5 18 -7 70t-5 66
q-3 16 -3 23t8 22l31 9q-6 39 -12 60h-26q4 21 10 84l9 28q20 90 24 100t18 43h44l7 35q-33 0 -33 18t61 117l17 27l40 49l26 43q4 5 21 20q16 -11 24 -11t22 8l-7 45q41 40 63 62t63 51l25 24l25 17l17 19l83 53q46 39 66 52q19 -19 30 -23q24 11 26 15t5 25q26 15 66 31
l37 18l60 20l29 11q38 3 79 15t110 26l25 8l29 3l20 1l37 1l45 15q4 0 87 -46q31 42 39 42h1q14 -4 43 -4t114 -4q43 -11 76 -11l13 -14h5q14 11 22 11t23 -17q-3 -13 -9 -17t-26 -14t-43 -29q-24 -19 -36 -19t-59 10l-44 16l-64 6q-38 22 -46 22t-17 -8t-12 -8l-11 5l-47 9
l-32 31l-37 -39q-10 -9 -17 -9t-39 4l-67 -22q-32 14 -42 14t-53 -24q-9 -4 -56 -5q-2 -18 -9 -22q-93 -31 -151 -71l-53 -32q-5 -3 -18 -23q-22 6 -30 6t-17 -1q-10 -35 -20 -43q-38 -31 -49 -33t-19 -15t-38 -38l-25 8l5 -27q-21 -15 -27 -21t-29 -37t-44 -65t-42 -65
l-24 -3q-7 -19 -18 -31l-2 3l-9 1l-3 -11l12 -1q-1 -17 -2 -19t-16 -29q-38 -97 -40 -99t-15 -18q4 -32 4 -50t-15 -52t-19 -78q-30 -7 -35 -25q33 -20 33 -34v-2q-7 -63 -7 -73t6 -48q-29 -17 -29 -35t14 -34l20 3l17 -74q-84 -23 -104 -26q0 -5 83 -12l30 -7q1 -59 21 -99
q-12 -65 -12 -71t11 -6t25 12q14 -25 28 -45t16 -31l8 -37q2 -9 25 -23q23 -15 41 -37t40 -41t33 -30t33 -18t27 -13l9 -14l7 8q38 -42 73 -60q96 -50 114 -51q18 0 56 51q30 -26 62 -26t48 6t27 4t19 -2l156 6l57 -3q18 0 57 5q9 13 14 16t96 13q60 12 65 12l39 -14
q19 0 26 34q22 -3 34 -3t73 14l51 6q57 18 78 22q-2 8 -2 18t11 13l84 24l-85 52l83 47l-86 102q11 34 11 54t-11 83l-2 110v10q0 32 18 39l62 25q3 1 3 3t-18 11q-18 10 -40 10h-33q-7 51 -36 73q-9 6 -19 6t-22 -2l-15 10h-1q-1 0 -18 -5t-67 -5t-73 6q-11 -9 -20 -9
q-16 0 -16 15t24 34q24 20 32 22t38 2q31 0 37 -2l52 -18q1 -1 11 -1t31 19q40 -8 58 -8l43 4l38 -5h1q34 6 66 11q20 -33 20 -42v-2q-7 -54 -7 -56l7 -89q1 -90 -7 -124q-8 -35 -11 -56h-23q-15 -40 -15 -49t4 -31l-26 -10l83 -69q-8 -14 -11 -32l-21 -9q14 -28 19 -31
t15 -3q10 -17 10 -21v-26q-1 -22 -1 -36t7 -28t7 -15l-7 -22q-2 -6 -2 -13t1 -16l-30 -7q-13 -23 -19 -25t-86 -3q-73 -20 -88 -20t-40 6l-13 -12q-27 -3 -77 -11t-52 -8l-28 3q-14 0 -59 -20q-13 -4 -79 -4l-54 -13q-20 -5 -51 -6l-81 -19l-37 -2q-93 -15 -169 -22
q-16 17 -24 16l-50 -5l-15 -11q-3 -1 -58 -1zM1905 193q-1 -1 -3 -4t-26 -13q-1 3 -1 5zM1905 193q5 5 12 22q9 -1 16 -11z" />
    <glyph glyph-name="H" unicode="H" horiz-adv-x="2025" 
d="M1173 1034l-111 3q-22 0 -68 -10q-97 -3 -101 -3t-35 5q-40 -24 -46 -24t-76 11l-30 43l-41 -45l-47 8l-25 -8h-29l-56 -4l-25 2l-65 4q-9 0 -23 -9v-146q-1 -61 3 -79t4 -30v-1q-1 -6 -1 -14l2 -53l-13 -23l6 -35q1 -3 -6 -22v-1q9 -61 9 -75t-21 -65q16 -15 17 -23
l3 -17q10 -9 10 -19t-3 -46l-16 -30v-61q-6 -31 -6 -47t4 -23t25 -14q-6 -23 -9 -76l-3 -33l4 -62v-185l-3 -13l-14 -9l11 -22q-18 -13 -38 -29t-59 -32l-2 3v4q-36 0 -40 -8q-6 -4 -14 -23l-35 -4q3 35 3 52t12 52q0 29 5 39t8 72l4 122q1 21 5 24l17 14q5 5 5 17t-3 32h-9
q-7 14 -7 22l5 44v49q5 20 11 48q17 3 30 12l-4 62l-24 2q-3 16 -3 75q-10 46 -10 59l10 111l-6 85q0 26 27 31q-2 25 -2 40t-3 22q-6 10 -28 19q12 66 12 75t-14 49q4 22 4 25v4l-1 105l-1 10q0 8 8 22l14 -4q3 14 3 23q0 8 -12 30t-12 34t17 40l-22 2l-6 32l16 5l3 37
q-31 21 -31 85l10 45l-7 30l2 22v1q0 7 -6 19t-14 33q-18 1 -22 3t-17 22q11 13 14 14l42 22q41 28 77 38t57 26q21 18 22 18l18 -12q-1 -14 -18 -31l23 -12q-38 -27 -43 -41l-26 -77l-27 -27l80 -25q-8 -10 -11 -10h-1l-23 8q1 -22 4 -22q1 -5 24 -14l6 -8v-176l1 -22
l-14 -38q21 -12 21 -24t-5 -27q50 17 86 17t85 -18q9 -4 35 -36q6 -3 58 -18l111 45l3 -1q8 -23 21 -34l22 16l22 -4q11 9 15 9t10 -3l16 17v4l49 -15h1q34 9 39 9l89 -3h26l23 2q57 -1 65 1t29 12q27 -7 31 -7t30 7l27 2q40 11 46 11t23 -12h19l54 -15q25 30 33 34t77 6
l40 3l27 -4l37 3l29 -2q16 0 20 10t12 46q-25 48 -25 50t9 34l-1 44q4 12 4 19t-12 20l8 27v1q1 10 -26 23q-1 3 -1 7q0 5 6 25t6 39t-14 36q2 9 2 15t-1 20q-32 5 -32 24q0 8 4 12t36 24q33 20 47 24t18 13q26 5 52 17t32 11q6 0 17 -5q-4 -28 -5 -83t-12 -101l-25 -3
q-8 -20 -8 -28t4 -22q21 -9 24 -16l6 -14l11 -21q-6 -37 -6 -40l4 -52q0 -77 -11 -110q15 -16 15 -28t-21 -38q-7 -11 -9 -48l22 -3v-199l-18 -61l18 -15q-6 -16 -6 -26t1 -23q-7 -7 -13 -7t-11 1q3 -28 15 -33t18 -11q-9 -47 -9 -64l7 -69q0 -8 -9 -25l-22 4v-10l16 -10
q11 -99 14 -162q-31 -14 -31 -28q0 -39 31 -63q0 -8 -8 -32q10 -45 10 -47l-5 -58l6 -54q0 -9 -4 -10l-75 -25l78 -35l-2 -23q0 -2 6 -18v-1q0 -3 -8 -7q-77 -34 -77 -60t53 -44q53 -20 52 -36q-22 -12 -37 -22t-52 -26l-24 -9q-56 -45 -77 -45q-22 0 -22 11l1 64q0 7 -5 22
q23 25 26 39t3 48q0 32 3 54t27 34l58 31q-76 29 -76 33t78 40l-70 73q14 23 15 50v1l-10 42l3 172q0 1 -2 15q25 18 25 27q-1 8 -7 20t-11 31l-23 6q8 45 8 102t1 81h6q9 11 11 31t5 38q-17 15 -17 25t-1 26q0 16 1 36l-4 53q0 5 6 45t40 47l6 24h-8q-13 0 -31 12l-127 -7
l-112 7q-86 1 -121 -5t-45 -6t-34 15q-23 15 -30 15t-25 -14t-32 -14z" />
    <glyph glyph-name="I" unicode="I" horiz-adv-x="560" 
d="M218 -42l-14 40l1 39v129q3 26 5 32t16 14v36q22 20 22 34t-1 23l3 2q-9 9 -12 29l-10 42l2 25l-1 41q10 48 10 55t-7 48l3 57v5q-1 10 -1 17l2 110l4 17l-11 59q0 9 17 18v61q-21 10 -21 21l8 105v9q-10 143 -10 150q0 58 40 91q-3 27 -15 42l-31 -4q-3 11 -3 17t12 74
q-13 26 -13 66t-3 69l-25 25h-18l-2 11v1q0 8 3 12t29 19l27 20l20 7q21 8 45 12l10 27q42 2 66 17q10 -29 8 -47q-1 -18 -2 -35l-5 -161v-66q-12 -9 -15 -13.5t-3 -24.5t-3 -42l26 -5q-19 -144 -26 -175l16 -16q-1 -50 -17 -115q-1 -8 -2 -48l24 -6q-8 -67 -10 -85v-1
l2 -67q0 -4 -5 -20l-22 -21l10 -51l24 -3l-5 -10v-168l7 -38v-55l1 -39q0 -16 -40 -42q0 -26 5 -30q0 -4 19 -17q3 -17 9 -27t4 -19q-2 -10 -1 -39l4 -198l-20 -21l21 -13v-206q-14 -2 -16 -3l-36 -26q-8 -4 -47 -11q-56 -34 -73 -34q-18 0 -40 9q10 44 23 71q12 26 12 33
t-10 23q10 26 16 68t13 54q7 10 7 16z" />
    <glyph glyph-name="J" unicode="J" horiz-adv-x="1393" 
d="M1191 347q5 0 12 1q11 -32 11 -48t-10 -49q-10 -34 -13 -40.5t-9 -6.5t-28 5q7 -20 7 -25l-5 -57l-16 -24q-17 -34 -25 -42q-5 -4 -32 -27l-15 -24q-15 -24 -61 -64q-47 -40 -63 -57t-55 -43q-26 -22 -39 -28t-69 -31q-35 -21 -52 -27t-49 -22t-69 -30q-41 -22 -53 -25
t-41 -7t-72 -24l-27 -4l-57 -14l-39 -3q-54 -10 -82 -10t-70 10q-41 10 -54 17t-65 49q-15 38 -17 64l20 9q-21 38 -35 44q-15 6 -15 9t-1 43l-4 23l-1 41l-2 27q1 19 20 19q20 0 32 -34t19 -52l-12 -15q3 -20 7 -24l18 -15q3 -2 17 -30q15 -22 83 -84q11 0 14.5 -2
t11.5 -18t20 -24l25 -18l98 37l50 -6q6 0 23 7l3 14q35 12 50 18t25 6l53 -4h1q10 1 45 34l24 11l22 12q30 3 45 10l-7 20q14 11 36 17t39 16t59 28l94 72q5 3 28 12l9 36t30 45l56 132q24 66 23 76t-3 19v2q1 17 30 34q57 34 57 65q0 11 -10 16l-45 25l-23 64l-11 26
q0 8 10 14.5t71 36.5l-69 30q-16 9 -16 17t1 10q13 8 21 20t20 15q-12 16 -29 24q-2 16 -2 28v15q0 4 -13 15q1 20 1 37l-7 65l28 81q-22 16 -22 28v20l-19 13l2 12v143l-1 36q-2 42 -12 66v1l14 17l10 14q65 39 65 42t-90 44q0 34 1 39.5t10 14.5q-7 14 -7 19t5 22l-15 70
l-37 18q-5 10 -22 17l7 24q35 12 41 15t50 35l35 19l24 20l25 9q20 11 32 11t25 -12t12 -21l-9 -69l-6 -73l-20 -49q0 -3 1 -8q14 -13 21 -30q-91 -62 -91 -67q1 -14 45 -29t45 -36q-3 -9 -5 -21q-28 -8 -28 -24q0 -6 4 -13h20q-1 -17 -1 -33t6 -44q-26 -19 -26 -61
q0 -10 4 -18l23 2l5 -19l6 -198l-17 -59q0 -4 17 -43l5 -57l6 -27l-2 -44l6 -44q7 -87 7 -96l-9 -48q0 -9 2 -22h-5l-23 -20v-48q4 -3 9 -3z" />
    <glyph glyph-name="K" unicode="K" horiz-adv-x="1811" 
d="M345 1681l23 1q6 0 15 -9q8 -9 8 -18l-2 -34v-50q-9 -51 -9 -68t6 -56l-31 -39l-27 5l4 -27v-31l6 -18h5l19 14q11 -15 11 -24l-5 -27l3 -201l-2 -42q-1 -71 -6 -75l-24 -22q-5 -5 -5 -17t22 -32q3 -21 16 -47l-8 -35l3 -32l-2 -51q4 -52 4 -78l14 -7v-19l7 -7
q46 19 78 43t49 33l5 -3l30 36l149 156l14 32l104 133q16 21 34 39t54 64l-12 18v1q16 35 79 110l17 5q3 19 21 47l20 34l17 25l27 49q28 29 50 65t34 56q27 4 33 9l22 17q29 21 31 23q2 3 14 3t31 16t34 15l8 -14v-1q0 -6 -21 -36q-20 -41 -21 -43l-32 -27q-45 -56 -55 -76
t-23 -37l-61 6l-3 -44l17 -7q0 -26 -10 -40t-33 -35q-3 -13 -13 -23t-20 -22l-32 -24q-13 -36 -15 -39.5t-19 -14.5q0 -19 -4 -26t-32 -30q-50 -50 -112 -136l-54 -59q-42 -56 -61 -75l-7 -28q-24 -14 -29 -19.5t-33 -52.5q-28 -18 -32 -22t-11 -26l-27 -3q-10 -13 -19 -23
t-9 -12t2 -10l95 -114q31 -36 31 -54t-1 -26q23 0 33 -2t34 -27q24 -24 34 -44q13 -1 37 -19t24 -32t-9 -29q15 -14 45 -30l29 -20l23 -6q3 4 23 -21h21q30 -34 87 -76l126 -90l32 -18q-1 -9 -1 -16q1 -17 17 -20t26 -7v-18q11 -9 58 -19t67 -29q111 -67 116 -71t9 -29
q29 -7 51 -20l21 18q59 -27 132 -27h4l70 10q2 0 9 -8l3 -8q6 -46 -93 -67l-16 -21q-29 -2 -35 -4t-34 -20l-22 3q-28 3 -31.5 4t-16.5 11l-36 -5q-77 64 -137 80q-15 5 -46 23t-48 25t-21 12l-22 24l-16 8q-21 21 -40 30q3 15 3 23q-1 8 -9 18t-32 10l-45 -13q-29 1 -41 53
q-4 20 -14 27t-15 7l-25 -4h-11q-10 0 -150 106l-46 48q-17 17 -23 24t-25 15q-38 26 -93 59q6 25 14 45q-40 17 -47 17t-16 -1q-15 14 -41 35l-42 47q-21 21 -26 29t-13 31q-22 1 -33 5t-37 30t-42 25q-16 0 -25.5 -9t-9.5 -17v-12l24 2v-19l-5 -52q0 -7 6 -65v-37l1 -32
q0 -8 -8 -16t-10 -16t-8 -26q21 -2 30 -12q-10 -41 -10 -146q-2 -19 -12 -19t-24 15h-9q-5 -5 -5 -10q0 -37 47 -38q3 -7 6 -69q-1 -11 -14 -30l-20 -12l9 -27q14 14 24 14t10 -47l8 -46q0 -2 -1 -8q-28 -16 -36 -36q-33 0 -53 -19l4 -13q-40 -13 -64 -32t-35 -19
q-10 0 -26 6q6 27 6 34v15l-1 6l105 60l-97 53q29 23 28 38l-3 41l83 43l-75 41l3 37l-1 96l2 23q-12 27 -12 32l17 78l6 152l54 59q-41 23 -59 43l7 7h8l7 -7h4v8q16 16 19 34l-32 -4q-10 77 -10 123l5 55v1l-2 37l3 17q0 46 7 56t7 23l-30 15q8 19 9 55l1 28l-3 32
q0 55 -3 71t-15 34q16 39 19 43q-6 12 -6 28q11 9 24 12v43q-14 -13 -26 -14l-16 170q13 13 17 27q-27 25 -27 43t5 44q-54 5 -56 25l-1 6l102 71l8 -2q41 27 65 51z" />
    <glyph glyph-name="L" unicode="L" horiz-adv-x="1526" 
d="M405 712q-2 -6 -2 -154l2 -69q0 -5 -3 -12l-1 4l-21 -15q4 -31 26 -52l-3 -11l4 -142l1 -16v-18q0 -12 -15 -79l-3 -53l-10 -15q-2 -5 -9 -65l23 3q10 -29 10 -33l-2 -157q0 -21 20 -26t32 -16q10 1 17 1t32 -7l39 -4l67 -15h59l32 -45l83 40l35 -6l27 -3l27 -9l48 7
q8 0 45 -9q48 8 51 8l74 -5q13 0 45 7l49 4q46 10 84 12t49 6t16 5q5 0 18 -24t15 -24q14 -1 24 19t11 52q35 10 71 26t51 16l5 -1q-1 -30 -7 -38l-51 -72q-21 -20 -34 -37h-24l-11 -20l-63 48l-134 -49q-21 8 -76 8h-3q-8 0 -163 -11l-66 9q-36 -6 -48 -6t-37 24
q-26 24 -27 24l-104 -40l-25 5l-24 2l-25 3q-66 2 -81 4l11 7h-42l-6 -21q-20 10 -30 17t-30 10q-32 -27 -64 -27t-64 6q-25 -17 -43 -17q-40 0 -114 23q9 13 24 24t48 38q-2 9 -2 15q-1 6 19 32t42 56t55 60l-84 20l86 55l-84 82l3 34l2 29q15 37 15 52v32q0 16 19 25l10 6
l17 -3q6 2 6 10t-24 30v27l-29 -7l-8 8q7 24 7 30l-3 46l5 88q0 5 -9 49q7 24 8 43h14q0 25 12 52q-33 5 -33 19l6 54v40q1 16 1 24l-3 19q-3 19 3 29h18l4 16l-16 4v7q1 13 8 24l13 18q0 2 12 5l3 13l-23 10l8 28q-15 -9 -27 -9t-12 21q0 2 4 42v1l-5 80v42l-1 52
q0 13 9 48l-12 13v87q6 2 6.5 3.5t1.5 24.5q-14 25 -14 33v14q-14 17 -14 22l-1 39q-3 29 -4 40t-16 30l-18 4l-10 30l38 19t39 10l36 17l16 16q65 27 88 27t23 -19v-30l6 -25q-13 -18 -13 -31l5 -82h3v-7q-15 -4 -21 -4t-17 2l-4 -4q-2 -18 -23 -29l22 -34l25 4l15 -26h10
l3 -2q-14 -24 -47 -56l-12 -66l-47 -52l14 -39l9 -132q3 -8 33 -20t30 -25l-6 -18l-15 -3q23 -21 23 -74q0 -20 -31 -38q31 -62 31 -68t-9 -39l1 -8v-1z" />
    <glyph glyph-name="M" unicode="M" horiz-adv-x="2109" 
d="M341 443l16 -52l-6 -61l2 -67q0 -9 -7 -46t-7 -69t11 -57q-6 -13 -34 -29t-27 -31q0 -15 17 -36l20 25h8l7 -7q-3 -12 -3 -14l12 -40q0 -15 -42 -29t-41 -28q0 -14 31 -26l55 -19q-6 -23 -6 -30t1 -18l-25 -16q4 -12 4 -19q0 -6 -3 -10t-62 -23l-32 -19q-64 -22 -66 -22
t-11 4v2l-1 9v1q0 4 14 20t42 36q30 20 35 30l16 30l15 20l-80 49q22 28 23 70q1 43 1 45l8 30q2 6 2 14t-5 24l7 23l-9 35q19 70 19 81t-8 52q27 15 27 30t-17 23q-2 43 -2 75l9 102q0 6 -3 24l27 7q1 6 1 7l-23 59q16 8 21 16.5t7 30.5q-16 21 -21 31l58 40l-63 22l27 78
q-7 33 -38 31q12 45 12 51t-3 26l-1 31q-3 40 -3 66t16 44q-22 34 -22 54t9 40q-14 17 -14 24t3 17t3 35q0 26 3 46h-13q2 19 2 75q13 38 13 46t-17 48q-20 1 -31 10q1 14 21 38t67 51q48 27 67 47h17q39 -48 48 -74t14 -29l16 -14q2 -3 4 -32q10 -33 16 -55q-58 -6 -58 -22
t35 -30q22 13 41 18l3 -3q4 -49 18 -73t14 -34v-1q-3 -19 -3 -35t32 -32q3 -20 7 -32t5 -19q0 -8 -2 -20q35 -23 35 -39t-35 -38l14 -49l8 -2q21 28 31 28t25 -3q4 -12 4 -18v-10l-1 -4q0 -9 24 -51q24 -43 30 -65q4 -22 8 -36t5 -21q0 -7 -4 -22h-15q-1 -4 -1 -9t10 -20
l15 5q9 -1 13 -7t9 -37l25 -9q5 -25 24 -55q19 -29 31 -65t28 -63q15 -27 29 -87l-3 -26q0 -4 12 -16t22 -25l24 -6q8 -43 17 -60l19 -7q11 -34 44 -92l45 -100l20 -30q18 -34 23 -38t15 -4q15 20 34 56l31 57l11 22l17 30l8 32q33 55 36 59q2 4 22 17t20 22l-12 44l18 25
q6 8 14 29l26 -3q10 13 10 20l-3 39q0 19 5 31l47 120q15 55 21 65t29 27q-7 24 -7 34t44 107l20 64q29 59 34 69t33 12q-12 24 -15 56l9 38l-1 20l103 155q4 38 7 43q22 36 27 40t50 34l10 13l2 2q-4 12 -88 20h-25l-32 45l16 34q1 1 18 9l33 21l31 12q38 24 52 28t60 13
q8 -39 8 -70l4 -25l1 -15l4 -27l-4 -57v-34l-5 -35l2 -29l-1 -15q0 -5 7 -18q-12 2 -25 2t-13 -14t33 -21l-15 -33l4 -4h12l7 -6l-2 -63l8 -89q0 -8 -22 -42q-2 -4 -2 -23t7 -30l27 3l11 -11q-8 -23 -8 -47t6 -68l6 -181l5 -64q0 -8 -4 -19l-27 2v-10q0 -11 -10 -31
q20 -19 40 -22q7 -19 8 -43l19 -123l7 -13q-10 -33 -20 -73l37 -28q1 -20 1 -35l-5 -39q0 -11 10 -32l-31 -6l-13 -40q10 -8 25 -13q14 -5 20 -36t7 -31l12 -23q2 -9 16 -71q1 -46 9 -98q-14 -14 -46 -48q-58 -43 -115 -41l-38 -11q-5 0 -16 7q12 32 15 68l3 22q-9 30 -9 32
q0 16 27 29l-2 26q-30 27 -30 47l21 92l-22 65v2l4 78v1l-14 106l23 2q-4 34 -6 41t-23 11q-4 22 -10 46t-7 47l1 64l-1 3q12 34 12 36t-6 29l-5 24l-8 18l-7 103l-7 39l7 86l-5 33l73 28l-73 18q10 17 10 22q0 37 -31 47l-1 2q0 21 35 27l47 8l-79 44l-1 50q-1 9 -17 26h-9
q-18 -59 -23 -63t-5 -34l-25 -21v-12q0 -12 -23 -53l-13 -35l-14 -34l-11 -36l-21 -30l-6 -33l-8 -15l-5 -38l-43 -101l-20 -59q-5 -6 -21 -19l-4 -29l-25 -14q-1 -23 -16 -79l-27 -13q3 -18 3 -30q0 -48 -42 -80q3 -9 3 -14t-5 -12t-21 -41l-24 -45l-26 -71l-27 -64
l-17 -27l-11 -24q-14 -22 -21 -52q-37 -93 -53 -141l-57 -1q-6 0 -14 8t-40 85q-5 9 -27 37q-21 28 -27 52t-13 46l-19 3q-10 27 -22 63t-37 78q-26 41 -26 68l11 37q0 10 -14 26l-32 -11q-20 41 -30 59l-26 50l-8 27q-24 43 -33 71q-13 10 -14 12l-34 82q-40 70 -49 95
l19 8q-10 23 -18 38t-17 44t-19 30q-11 0 -23 -5q-53 101 -53 115t1 27q-18 20 -26 29q-8 8 -10 16t-3 41q-17 21 -21 41t-14 41l-13 3q-27 64 -56 64q-6 0 -13 -2q8 -24 9 -54l6 -37v-46q7 -55 7 -56l-3 -43q0 -10 4 -66v-2l-5 -30l-14 -10l5 -34l-14 -6v-25q33 -1 33 -18
l-1 -27l-2 -20v-83l-3 -37l1 -38q0 -9 -14 -24l7 -54l-15 -6q-4 -14 -4 -21z" />
    <glyph glyph-name="N" unicode="N" horiz-adv-x="1922" 
d="M224 989l1 41q0 16 -2 55l15 12l3 16q25 7 28 15t3 24t-15 43l-21 -14l-11 11q76 24 76 33q0 1 -84 33l5 85q-11 69 -11 77v17l-29 7l-3 26q1 8 3 12t36 23l11 17l19 16q58 52 68 60t43 24l9 -32h30q-1 -12 -1 -25t29 -48q-5 -22 -5 -31t1 -21h12q14 0 24 -9t20 -15
l16 -41q16 -14 26 -30t22 -31l26 7q8 -25 50 -85q42 -59 66 -85t30 -45t25 -44l99 -132q19 -25 19 -32t-8 -18q11 -18 20 -34q9 -17 13 -19t23 -6l16 -20h11l3 3q16 -21 39 -53t32 -41l30 -26q9 -9 27 -45l25 -31l29 -42l40 -50q10 -36 14 -41t36 -12l40 -50l13 -3v-5
q20 -14 26 -20t65 -90l74 -81q22 -34 43 -51q-8 -17 -8 -26t33 -41q80 -93 94 -106t38 -30l7 13v2l-7 49l14 171l-9 89q0 19 24 46q-34 49 -34 86l4 21q3 20 -6 75l2 79q-8 40 -8 46l9 51l-6 58l10 49l-3 12v19l3 26l3 127l-3 83l-2 86q-11 69 -11 73l11 38q0 6 -21 22
q5 20 5 28t-8 43q0 33 -13 75l21 21v10l-35 25q4 15 8 20t71 44q51 34 61 34t19 -30t9 -37q0 -8 -22 -123l6 -159q-16 -59 -16 -81t14 -43l-4 -18l-3 -167l7 -22q-24 -6 -24 -27l23 -77v-2q-1 -6 -29 -13t-28 -25l55 -107v-1l-7 -69v-80l-3 -19l8 -35l2 -52l11 -61
q0 -2 -4 -13l-23 -4v-17q0 -17 17 -32q3 -17 3 -21l-2 -44l5 -42l2 -34l8 -30l-55 -98l58 -34l-145 -37l151 -64q-12 -31 -12 -49l8 -62q0 -19 -41 -49t-74 -34q-4 25 -6 48t-18 23q-15 0 -45 -19q-16 7 -30 38l-25 42l-9 22q-30 45 -30 54t3 28q-16 10 -54 22
q-27 49 -40 69t-41 45q9 24 9 30t-23 38q-35 32 -44 44t-28 33l13 31v6h-18q-6 20 -12 25t-14 11l-15 19q-45 9 -45 38q0 12 3 28l-24 5l-8 21l-118 148l-2 9l44 27v8q-17 9 -25 9t-27 -13q-16 14 -49 52q-36 28 -48 50t-35 46t-33 57q-10 34 -16 38t-14 3q-8 0 -16 -1
q-8 13 -24 34t-31 48q-19 4 -25 16t-44 64q-40 52 -58 71v8l22 9q-21 34 -49 46l-10 -13q-30 20 -32 32q-2 5 -2 21q-39 27 -86 76t-66 66l-8 -7q-19 -34 -24 -30l-59 -27l57 -24q26 -13 26 -37q1 -4 -9 -37t-11 -65t-3 -41t-16 -27q15 -22 32 -83l-5 -75q9 -67 9 -71
t-10 -35l-17 -3l9 -30v-14q0 -16 22 -35q-5 -31 -5 -45v-24q6 -112 6 -117t-6 -24h-28l19 -75l-1 -32l6 -27l-3 -51q0 -7 5 -25q-8 -9 -22 -9l-4 -4l4 -65l22 3q10 -49 10 -142l5 -42q2 -60 6 -84t4 -32t-2 -24l7 -42q1 -9 -15 -38q-9 10 -10.5 10t-61.5 -36t-80 -42
q-4 14 -4 20t11 72l2 36l5 37v51l20 40q1 2 44 29q16 34 16 39t-2 8t-52 33q-17 11 -16 22t1 27l-4 57q0 16 19 43l-26 13q1 22 9 106l2 51q4 24 4 28t-4 24q-3 20 -5 73q-2 51 -4 65t-2 22t21 26q-9 13 -9 20l3 31l-14 55v41l-2 62q0 12 3.5 49t5.5 41l13 36q0 1 -3 7
q-38 1 -38 27z" />
    <glyph glyph-name="O" unicode="O" horiz-adv-x="2249" 
d="M293 260v-2h6l15 -5h6v1l-16 6h-11zM326 288q0 -8 -3 -22l11 -15l-8 -2l26 -7q13 -36 27 -50t16 -29q12 -18 19 -25q-18 -22 -18 -32t11 -19t19 -9t37 10q9 -19 14 -22l24 -19q29 -28 65 -50q-5 -20 -5 -34q1 -15 13 -25t24 -10t22 4q17 -17 43 -34q3 -21 7 -23
q4 -3 16 -7q14 -4 41 -20t40 -20t35 -22q20 -1 75 -13t73 -19t33 -5q14 2 24 2l35 -2q8 0 24 7q16 -21 27 -21t60 18l34 4q45 19 52 21t69 2l30 18q65 31 84 44q20 -13 32 -13t25 22q-12 13 -12 23q1 10 21 18t40 22q20 16 67 37l21 -16q17 29 40 41l3 22q23 13 94 72l33 26
l35 47l32 36l26 49l27 42q23 57 37 77q-2 13 -2 29t16 16q4 0 14 -12t13 -15l20 23h8q19 0 19 12t-8 27q-24 -13 -40 -16q-10 15 -10 22t8 57v39l84 19l-94 37l46 5l46 87q-1 2 -11 12t-35 10t-49 -2q36 7 36 32t-41 44q3 21 3 31t-8 56t-8 69q-17 18 -17 22l-18 101l-16 27
l-16 34l-22 31q-26 67 -60 96q1 26 1 36t-8 27l-37 -10q-14 21 -45 51t-36 32q-5 4 -74 42q-29 17 -47 46q-12 -8 -19 -8t-23 15h-18q-24 0 -76 30q4 18 4 33t-35 27l-33 -39q-22 8 -57 12q-54 19 -58 19t-40 -6l-10 46l-3 -47q-25 9 -28 9l-21 -3l-138 -4q-4 0 -41 -7
l-51 -9l-58 -27l-47 -8q-7 -3 -22 -24l-20 3l-5 -21q-36 -14 -56 -29v-17q-46 -16 -98 -63t-87 -62q-11 -24 -17 -32t-70 -74q-8 -21 -20 -36q-50 -60 -99 -199l-19 -24l-10 -50l-11 -18q-1 -34 -3 -39q-2 -4 -11 -26q-10 -22 -10 -26l2 -8v-203l7 -34l-3 -50q1 -5 15 -25
t19 -46l7 -35l-1 -28q-1 -3 17 -29t18 -34zM332 -60q-9 0 -33 32t-33 40q-1 31 -4 36t-22 20q-2 4 -6 8t-20 39l-45 72q-20 52 -20 60t14 23h15l-3 29q-7 8 -27 14q-20 5 -22 47t-10 71q-9 29 -10 133v2q0 2 2 20t4 64t19 65q13 -7 23 -7t11 15q0 15 -28 39q2 23 4 28l19 48
q32 112 88 197q55 112 120 189l10 -5l15 16v11q0 32 91 100q14 28 18 30t9 2l25 -9l17 29l-4 11q30 21 59 24q6 29 14 37t50 27t56 31q12 12 28 12q15 18 19 20l89 42l30 9q38 22 74 30t102 11l49 5l41 5q31 6 36 6l52 -3q56 -3 88 -11t33 -8l92 8l31 -32q6 -4 35 -6t64 -19
l24 -4l19 -7l15 -5q9 -3 17 -30q11 5 18 12q38 -11 50 -19t23 -41q15 13 23 13t64 -41q55 -41 66 -58t22 -33l-18 -30h7v-31q17 12 27 12t32 -25h18q12 -26 23 -42t17 -37q25 -32 29 -47q-16 -16 -16 -25v-13q37 -31 45 -49t9 -85l15 -55l1 -32q7 -44 7 -54t-2 -13t-24 -23
q-5 -5 -5 -31q-1 -26 5 -34q6 -7 26 -23q16 -32 16 -33l-8 -44v-13q2 -47 2 -59t-24 -98l-11 -29q-10 -49 -16 -59t-21 -25l6 -20q-20 -12 -21 -20v-12q1 -11 -45 -75t-100 -117q-48 -63 -54 -69t-27 -20t-49 -43t-44 -38l-160 -100l-287 -132l-245 -63l-163 -18l-46 13
l-34 5l-32 9q-31 1 -37 4t-11 15l3 3l-14 19q-20 -1 -44 -9q-13 0 -19 21q-1 2 -10 39t-18 60q-7 -1 -19 -100q-47 35 -161 97q-1 16 -4.5 22t-19.5 13q-2 19 -8 31t-14 31q-19 0 -38 12q-17 -5 -19 -5z" />
    <glyph glyph-name="P" unicode="P" horiz-adv-x="1359" 
d="M392 1151l1 -33q0 -6 -2 -21q10 -4 15 -4l24 2h12q8 0 28 -1v-23h9q12 0 27 5q6 10 11 12q7 2 129 17q76 3 118 13q12 7 19 12l30 1q31 9 37 9t19 -4q13 10 29 14t77 29q67 0 133 102q6 10 17 48q17 29 17 36q0 40 -36 66q-39 32 -92 49q-53 16 -71 22l7 22l-36 13
q-22 -21 -30 -21t-39 9q-57 4 -68 8t-26 25q-26 0 -31 -2t-18 -11h-8q-45 1 -107 23q1 45 -11 60t-15 15q-16 0 -46 -69q-27 8 -67 8t-51 -5q-5 -25 -7 -62t-8 -49q-4 -12 -4 -18q0 -7 1 -17q-17 -21 -15 -38v-17h18q-6 -132 -6 -179l20 -10q-4 -24 -4 -34v-2zM244 954l3 14
v111q-3 97 -11 108h-4l-9 59q21 16 21 36t-17 35q26 13 26 26q0 7 -34 62q-7 30 -12 48l14 25q-24 31 -24 37l11 44q-17 12 -29 12t-30 -6q-6 10 -6 24t19 25q20 11 75 29l32 20q65 24 70 24q21 0 31 -30q34 19 64 22t69 3t108 -18l67 -4l61 -16q1 -3 49 -3q10 -40 33 -40
q15 0 31 23h15q4 0 41 -16q28 -8 67 -12l44 -11l30 -4q33 -7 51 -11t64 -26l22 3q30 -20 37 -22t24 -2q8 -19 13 -22l33 -24q5 -3 12 -17t7 -18t-9 -51l-16 -34q-10 -39 -14 -44t-14 -8v5q0 4 -4 8q-18 -8 -23 -14t-27 -12q-22 -4 -22 -18t15 -32l-32 -28t-20 -16l-37 -11
q-13 -4 -40 -40q-27 -1 -37 -5t-61 -30l-45 -10l-45 -15h-34q-14 -3 -15 -3h-13q-7 -16 -16 -19t-59 -12l-22 -6l-39 4l-38 -14q-85 -4 -97 -7q-12 -2 -32 -12t-48 -12q-29 -2 -74 -18q16 -15 15 -28l-5 -42q-3 -114 -8 -139h-8l-3 2l-4 -4q12 -120 12 -159l11 -51l-5 -134
l1 -36v-71l3 -69q-1 -3 -7 -16l-19 -4l3 -38h27q1 -6 1 -9l-7 -52l4 -37v-2l-5 -12l-20 -7q-2 -13 -2 -24t10 -31q28 0 28 -25l-7 -112l23 -102q0 -14 -8 -20t-60 -19q-4 -17 -10 -27t-121 -45q-16 21 -16 27t19 64l-3 36l9 51q3 16 25 35q-17 39 -17 48v1l10 55l6 45
q2 6 15 20q-11 34 -28 51q6 23 6 26l1 125q5 29 5 35t-8 29l32 24q-5 20 -6 33q-1 14 -2 18t-15 17q2 21 2 29l-2 82q0 15 23 44l-17 43q0 2 7 27v53l3 43q0 32 -29 55l7 56q0 1 -5 24l-2 42q-9 36 -9 41z" />
    <glyph glyph-name="Q" unicode="Q" horiz-adv-x="2305" 
d="M248 596q0 -10 3 -21h14q1 -22 3 -60t3 -44l24 -106q1 -2 -9 -20q22 -19 26 -26t12 -41q17 -14 18 -22l4 -26l15 -19q15 -32 31 -48q-10 -15 -10 -24t7 -19t25 -16q20 -5 87 -77l-5 -46q13 -5 20 -5t21 7q11 -21 16 -24l38 -33q38 -45 62 -61q11 3 17 3t65 -44
q45 -46 59 -56t69 -42l35 -8l31 -8q17 3 32 49q8 -17 26 -17t33 8t51 37q5 3 35 4t70 22l29 3q21 3 34 3q13 1 45 -13t56 -18q21 26 141 50l25 9l18 5l52 35q61 29 76 41t23 17q7 5 41 45t50 54q33 26 34 28l32 44q32 36 46 62t30 44q7 30 25 60q43 118 44 131v1l-3 32
q11 79 18 94t25 15h2l27 -11q11 20 11 30t-14 33h-2l-10 -10l-43 14v12l19 18l-14 14q6 25 6 103q0 3 10 42q-18 15 -23 26l92 53q0 15 -2 33t-23 44l-19 34l-28 30q-26 54 -33 62t-93 87q-16 15 -16 25t16 25v8q-22 21 -28 53q-10 10 -19 10l-29 -8q-30 0 -41 38
q-27 7 -33 10q-6 2 -20 18t-35 23l-23 29q-30 2 -42 7t-54 34l-22 12q-33 20 -45 25t-52 15l-47 24l-56 5l-30 12l-70 -4q-1 0 -35 4q-44 15 -50 15l-50 -5q-2 0 -15 2l-25 -12l-20 -3q-21 -8 -26 -8t-14 13q-22 -15 -94 -44l-30 -21l-39 -13l-22 -14q-45 -23 -65 -39
q-17 8 -25 8t-23 -6l4 -25q-19 -12 -45 -26t-29 -18t-15 -27q-5 -8 -70 -60l-93 -95l-19 -7q-5 -2 -16 -20q2 -10 2 -22t-22 -53t-42 -44q1 -12 1 -24t-27 -74h-22l-26 -36q7 -20 7 -27l12 -34q0 -4 -16 -42q-13 -50 -13 -51l1 -74l-16 -26q-9 -16 -9 -26zM118 386l-6 56
l10 54l-11 64q0 6 9 84t34 122l-7 29l16 33l26 69l26 46q15 37 40 77t35 57q10 18 37 49q33 51 42 62t75 72l35 34l54 39l76 63q30 8 54 16q8 23 13 28t31 17l27 15l33 15q50 32 70 38l14 -8q65 52 104 62q39 11 73 21t91 15l30 4l55 -18q18 0 37 22q25 -6 129 -13l62 -13
q60 -12 82 -22t36 -10l27 2q40 0 62 -41q23 -8 68 -16l37 -23q32 -15 36 -19t12 -36q11 -79 18 -80v1q14 33 20 87q26 -10 33 -18l20 -23q3 -2 27 -16q24 -15 66 -59t48 -53q4 -9 10 -27t40 -41q-20 -35 -20 -49t8 -14l39 5q3 -15 3 -24t-6 -30l22 -19q0 -4 8 -13
q8 -11 20 -47t12 -37t-8 -22t-8 -34t22 -35q-6 -7 -6 -8l10 -103q0 -6 -17 -11q-17 -6 -17 -17t27 -37l-3 -9l-7 -136q-3 -55 -9 -67t-22 -25q-16 -14 -22 -34l30 -24q-4 -25 -9 -32l-22 -30q-4 -5 -4 -27q-13 -15 -19 -36t-19 -43l-28 11q-15 -24 -16 -41v-6q1 -5 1 -16
q-7 -48 -56 -70q-8 -21 -20 -33t-93 -76q-67 -65 -73 -69t-28 -16t-58 -39v-11q-86 -60 -98 -60t-29 10q-25 -25 -37 -36t-42 -20q4 -10 18 -14t89 -22l44 -6l30 -15l58 -20q24 -13 30 -13t16 3l21 -33l78 1q38 0 61 -44q19 15 27 15l23 -2q47 -2 61 -5q14 -4 43 -20t33 -18
t62 -13l64 -25l37 15q3 1 53 3t115 38q62 49 85 60q11 19 29 39l18 5q7 14 23 31t26 36h13q14 -19 14 -51q1 -32 -13 -48t-55 -43q-35 -31 -57 -39t-89 -21q-62 -19 -88 -23t-77 -30l-44 -6l-27 -5l-35 6q-78 -10 -112 -10t-61 16q-3 16 -7 22t-29 10l-15 -26l-25 49
l-63 -49q-24 26 -74 32t-72 23q0 13 -8 22t-20 9t-30 -18q-26 9 -73 16l-35 11q-10 4 -20 19q-26 22 -34 29h-23l-2 -20q-37 5 -41 9l-118 83q-19 13 -35 13q-39 0 -112 -76l-7 21h-26l-185 -22q-7 -1 -8 -1l-32 5l-52 7l-30 6q-62 7 -99 30q-36 0 -64 15t-31 19l-7 20
q-3 7 -16 15q-12 8 -20 8t-45 -8q-9 34 -17 39t-61 14l-27 26q-81 53 -94 69t-22 28l-7 35q-24 13 -36 31t-35 36l14 44q-12 8 -30 10q-4 11 -28 36l-10 33l-26 41l-15 38q-11 24 -14 45q30 19 30 31t-3 25z" />
    <glyph glyph-name="R" unicode="R" horiz-adv-x="1627" 
d="M858 1453q-11 0 -29 14q-17 -5 -64 -6q-31 -9 -35 -9t-25 8t-58 16q-27 0 -65 -20t-50 -21q-12 0 -13 3l-34 49l-35 -14q-68 -3 -74 -27q-2 -10 -4 -84q0 -9 -14 -43l-14 5l-5 -16v-1q-1 -9 17 -29t22 -28v-57q1 -11 1 -17q-1 -6 -7 -20q-6 -12 -6 -32l-20 -19
q0 -24 -15 -41l3 -4l19 10l23 -23q0 -41 3 -90v-39l3 -51q-6 -30 -6 -78l-17 -6v-17h4q10 -1 25 -6q17 14 62 24q13 -7 19 -7t19 6l5 9q22 2 74 21l27 5l56 35q29 14 63 36l199 107q58 26 76 38t48 44l40 30q27 27 34 32t30 14q7 4 32 41q34 24 34 57l-7 35q0 2 2 10l20 13
v5l-36 13q-12 21 -17 29v13l-4 6q-4 6 -5 13q0 7 1 14l-31 9l-2 -15q-100 29 -115 43q-17 -5 -21 -5l-56 18h-77zM388 22l-1 -44q0 -14 1 -35q-24 -13 -24 -34t27 -24q-4 -13 -4 -16l2 -61q0 -41 -42 -63q-23 -13 -27 -18t-13 -18l-35 5q-31 -45 -78 -45q-9 0 -29 10
q31 56 35.5 69.5t6.5 56.5q19 102 22 145l-15 9l-3 6q70 33 82.5 41.5t12.5 20.5q0 26 -87 74l23 8q0 27 3 36v2q0 4 -8 23t-8 48l15 130v138q0 10 12 25t20 35l-33 15q-7 47 -7 72l6 92v4l-11 90q0 1 31 28v14l-27 20q2 21 2 45t-4 65l20 24q-15 19 -15 29t3 21l-18 2
q-2 4 -2 5l54 87l4 82l27 32l-87 84l2 67q0 26 -21 26q-10 0 -23 -5q-10 8 -10 21q1 14 11 22t20 8t24 -2q20 17 56 34t44 17t22 -22q6 1 14 1t28 -8l21 18l91 -8q2 0 100 11h1q3 -1 31 -5t179 -8l25 -4l47 -3q12 -1 19 -1t26 15q25 -6 70 -9l52 -8l36 -4l25 -7h37l32 -5
q103 -13 111 -53l-4 -5h-15v-26q9 -8 20 -9l5 4q-1 7 -1 14t12 19q8 -2 14 -8t24 -18t18 -34q0 -23 -9 -68q22 -1 22 -14q-1 -8 -19 -36t-30 -35t-22 -18t-73 -72q-45 -31 -50 -36t-12 -25l-34 -22l-18 4q-13 -11 -30 -18q-17 -8 -38 -32t-29 -28t-30 -8l-17 -15l-27 8
q-6 -18 -13 -30q-36 -8 -57 -23l4 -4q-33 -40 -63 -46t-37 -22q-35 -22 -52 -35q22 -4 23 -7l38 -76l36 -38q5 -5 14 -24l-17 -8l14 -14h11q28 0 61 -47q11 -15 23 -31q-18 -16 -21 -29l11 -10l41 -4q7 -8 11 -17t28 -33q4 -5 35 -65q15 -26 86 -110l32 -45q51 -60 51 -88
l-1 -14v-2q0 -9 4 -15t39 -28q36 -20 60 -50q73 -93 79 -106t6 -40q15 -15 47 -30l14 3h1q8 0 10 -2t16 -31q5 -6 37 -24q15 -18 21 -18t36 14l33 -3q4 0 15 5q9 -8 9 -16t-4 -12t-45 -24l-34 -19q-6 -3 -28 -7t-65 -20l-30 -11q-25 -17 -27 -17t-18 14q-14 14 -33 21
q-11 24 -48 80q-6 9 -7 39l-61 37l17 37q-21 25 -43 39q-19 20 -60 83l3 25q-29 13 -49 34q-52 50 -59 112q-12 23 -47 39q-21 13 -60 78q-21 6 -32 20q-16 21 -37 42q1 28 -15 50q-17 22 -27 22t-21 -2q-9 11 -32 51l-71 92q-31 43 -78 86t-66 43q-2 0 -129 -48h-4
q-11 0 -27 2l-15 -49l2 -25v-27l6 -45l-7 -55q0 -19 2 -39t2 -89l7 -28v-81q4 -42 4 -48q1 -6 -7 -18t-9 -29l-26 -10l7 -49q15 -1 25 -8q-6 -17 -6 -28z" />
    <glyph glyph-name="S" unicode="S" horiz-adv-x="1978" 
d="M120 184q7 1 16 1t27 -26l16 -26l-5 -31l7 -27l-3 -30q13 -45 33 -69l20 8h1q4 0 8 -2t14 -36q10 -32 25 -45q58 -48 72 -56l127 -50l36 -22q36 -5 42 -7t48 -21q123 -25 144 -27l110 -4q20 -1 52 -1l33 5l29 -8q18 7 90 17q8 -1 33 -11q11 -1 17 -1t18 16q11 16 19 16
l28 -3q3 0 72 23l25 2l38 18q74 23 88 31t74 46l48 42q6 7 40 56l22 18l19 32q17 20 19 24t5 25q-3 9 17 39t23 50q26 2 35 7q8 5 13 27l-4 4h-21l13 42q-13 16 -13 22t10 24t15 59q20 61 21 81t4 47h22v15l-33 -5q-6 33 -42 133l16 19l-4 10q25 -1 37 -1q73 0 73 18
t-116 19q-9 -20 -23 -20q-4 0 -16 9t-83 39q-41 26 -122 37l-23 8q-52 18 -54 18h-5v2l-5 3q-3 -11 -6 -11l-78 18q-35 -11 -53 -11q-17 0 -26 8q-3 20 -23 20q-10 -1 -24 -13t-29 -12l-54 4q-67 0 -67 1l-45 74q-7 12 -16 12q-24 0 -51 -84q-2 90 -33 103l-14 7
q-75 -108 -80 -108l-41 14q-50 5 -74 17l-24 12l-25 3l-12 2h-27l-26 13q-62 26 -90 48t-59 72t-31 67t3 34q-20 24 -20 46q17 17 18 22l8 60q22 52 26 55q43 48 85 95l42 30l52 42l67 33l157 67q78 40 168 63l128 34l36 7l266 25q1 0 42 -3l51 -4l27 -7q42 -6 119 -26
l8 -37q-64 -48 -78 -55q-22 12 -30 13h-31l-57 19l-36 -2q-3 0 -27 32t-66 31q-42 1 -56 -13q-16 -14 -30 -43q-13 14 -19 14h-14q-42 0 -79 -15l-93 -17l-83 -27q-38 9 -45 9t-35 -11v-24l-103 -39l-10 -19q-61 -9 -95 -52q-15 5 -26 5q-19 0 -35 -33q-42 -14 -79 -62
t-37 -83q0 -95 33 -125q56 -51 77 -57l47 -13q51 -18 67 -62q1 -2 11 -8t22 -5l29 8q6 0 14 -1q1 18 8 29q16 -6 19 -6l47 6l76 -16l25 3q6 1 18 1t64 -13l4 -28q17 -4 24 -4t17 1q-10 11 -10 21t18 9l34 -2h229q7 -7 7 -15t-6 -21q15 -16 23 -16t26 25q12 -5 18 -5t54 21
q18 -6 52 -10t53 -14l37 -19l124 -40q2 -1 18 -12t42 -26t34 -23q7 -8 14 -28q-9 -16 -9 -23t1 -14l32 -3q27 -46 25 -96q15 -67 15 -84v-94q0 -16 -9 -32t-9 -22t6 -26q-14 -16 -15 -23l-2 -24q-28 -64 -39 -76l-1 -28l-26 -38q-4 -11 -4 -17t5 -18q-24 -30 -36 -50
t-42 -52l-34 -50l-23 -20l-40 -42q-35 -36 -45 -48t-17 -12l-19 9l9 13l-52 -33l7 -27q-52 -36 -128 -72t-98 -39l-59 -7q-88 -18 -123 -30l-61 -9l-27 -5h-35l-41 -3q-42 12 -69 11q-28 -1 -46 13q-22 -24 -37 -24q-15 -1 -32 9t-27 10l-66 -1q-7 0 -21 1q-14 35 -37 35
t-34 -22q-56 28 -90 28q-26 12 -83 28v26q-29 7 -31 13q-5 1 -13 29l-17 -4l-3 -29q-9 1 -73 22l-120 97l-3 1q0 15 -4 20t-16 16q-12 10 -40 50t-47 57q1 7 28 53l11 29q36 43 38 46t4 23z" />
    <glyph glyph-name="T" unicode="T" horiz-adv-x="1949" 
d="M804 1468q-42 19 -160 19q-2 0 -47 -7l-77 6q-4 0 -21 -7q-16 12 -29 12h-25l-53 18l-69 -31q-42 9 -49 9t-51 -6h-48l-36 -1l-64 11q-17 0 -59 -5l-4 8q0 8 11 18t20 26q25 8 102 53q25 14 65 14t89 -32l39 -5q53 -8 88 -11l120 -9l43 -5h1l104 7q14 0 43 -2l140 -8
q3 -2 25 6t26 8t29 -7q45 -3 57 -7t43 -15q39 23 55 23t82 -13l32 6q32 -7 36 -7l28 1l71 -1l54 3l56 -3l44 -14l5 3l13 27q32 -4 46 -4l66 12h2q3 -5 22 -48l17 29q1 3 37 3l61 28q9 0 12 -7l22 -48l52 56l22 5l25 10q17 -2 24 -18l-21 -18l-4 -17q-21 -9 -25 -14l-24 -32
q-5 -5 -27 -16t-45 -11l-63 9l-51 -5l-89 12l-110 -11q-5 0 -111 6l-39 -6l-64 37l-29 -37l-20 7l-74 6q-24 -8 -37 -8h-1l-89 6q-16 0 -28 -7q6 -8 6 -12t-20 -21t-36 -43q-14 -26 -34 -50t-20 -31q0 -28 62 -50q30 -12 30 -16t-9 -18t-12 -33h-17l2 -32l24 -13
q10 -19 10 -28l-6 -68q0 -17 7 -95l3 -50q1 -31 3 -55t2 -34q-1 -12 -7 -15t-16 -6t-23 -13v-6l-3 -3l23 -19v-33l28 -13q-87 -46 -87 -90t84 -74q-13 -14 -13 -24l5 -65q0 -7 -1 -21l11 -5q-7 -42 -7 -58v-1l3 -39q2 -53 3 -59t10 -35q-15 -37 -15 -47t1 -22l-3 -3
q-36 -5 -36 -24v-1l6 -22l33 9l10 -48l-5 -31q0 -8 3 -53t-3 -93t-7 -60q0 -12 13 -59q-6 -37 -11 -41t-29 -11t-32 -14l-15 -16q-24 0 -27 -2q-58 -36 -76 -44q-17 21 -17 29t9 40l-1 29l7 28l4 53l4 30q0 36 5 48t29 32q-20 21 -20 35v1l3 44v52q3 39 3 61l15 18
q-1 11 -1 18t3 26l-16 15h-4l6 21v163l9 77q0 6 -6 38l-5 46q-2 19 -2 21t13 41q2 23 4 29t26 9v18l-32 -7q-7 25 -7 33l10 59q-14 5 -23 10l3 24v192q0 16 38 34t38 25t-28 23t-51 36q23 11 23 21l-12 45q0 11 2 25q-27 30 -27 56t15 49q-9 28 -13 39q1 27 89 66q9 3 9 7
t-93 24q-11 2 -11 14q0 4 4 12z" />
    <glyph glyph-name="U" unicode="U" horiz-adv-x="2099" 
d="M1836 1568l-16 -163l8 -75q0 -69 -8 -98q-8 -30 -8 -38l17 -40q0 -4 -6 -26t-7 -24t-20 -14t-19 -22q0 -8 2 -15h4q11 0 31 4l7 -6l-7 -26l21 -3q3 -24 6 -143l3 -54q-9 -39 -9 -82q1 -43 9 -56t8 -21l-3 -48q0 -85 1 -94l7 -29l-6 -74q0 -11 4 -140v-1q0 -8 -6 -41
q-34 -13 -34 -33q-1 -20 9 -28t38 -15q15 -4 15 -20l-8 -30v-7q0 -34 4 -60q-35 -29 -55 -35v-3q19 -17 42 -28l6 -22l11 -4q3 -22 4 -35q4 -52 18 -86l17 -4l6 -58q-26 -10 -32 -17l-28 -29l-108 -56q-10 -5 -22 -5t-28 3q-1 7 -1 13q1 6 9 32q8 28 8 34l-15 122q0 11 9 52
l2 44l3 37q-7 51 -9 61t-9 19q-19 -11 -61 -36t-76 -41t-36 -16l-53 -42q-60 -31 -86 -45q-21 -7 -25 -9t-14 -22q-26 -8 -34 -12t-80 -47l-93 -41q-58 -30 -70 -30h-22l5 -28q-44 -10 -82 -35t-54 -25t-35 17q-43 -19 -49 -23t-13 -21q-13 3 -21 3t-75 -22l-64 51
q-9 2 -19 -50q-16 15 -49 17l-18 -27q-48 6 -127 34l9 22q-10 3 -18 3t-26 -12q-22 18 -66 46q-2 1 -54 59q-43 30 -46 35t-13 35t-24 46q-12 16 -12 21t5 14q17 -1 32 -15q14 29 17 47l-4 4l-3 -3h-31l-10 10l-3 -2h-26l-7 34q-19 13 -21 20l-4 19q-11 21 -11 31t14 21
q-18 23 -19 31l-4 44q-9 37 -9 45t4 60t6 55l12 18q8 13 8 31t-21 33q5 25 7 61t33 63l5 24h18l7 7q-18 25 -40 43q55 32 72 51t31 25q-88 19 -88 23t19 31q-2 16 -2 27t18 49l6 24q19 28 27 47l30 -6q6 20 6 28t-17 63l17 36l16 58q6 10 14 24t36 96l16 40l23 43l62 132
l9 27q9 17 9 25t-1 18l5 6q-7 2 -23 4t-20 9l-8 18q55 42 130 73t95 31t30 -5q4 -28 -37 -105l-62 -106l-8 -24q-4 -7 -29 -11q22 -6 22 -19t-7 -25q-6 -12 -26 -34t-28 -48t-20 -48h-3q-8 0 -20 10h-3l-12 -26l-26 -12q2 -25 14 -44l24 12l5 -5l-15 -58q0 -6 7 -21l-35 -44
l-55 -183q-15 -50 -28 -65h-19q4 -24 6 -28t19 -13v-10q1 -9 -9 -21t-12 -18t-1 -41q-6 -38 -7 -61q0 -24 -10 -72t-10 -53v-1l2 -48q0 -15 -7 -44l-11 -7q3 -13 3 -18t-7 -44l10 -10h24q7 -18 7 -26l-3 -44q0 -42 10 -73l18 -59q3 -9 3 -22t-6 -48q12 -7 29 -8l12 -22
l23 -5q27 -74 60 -104t84 -59q35 -38 79 -38q8 0 29 5l9 -24q18 -3 31 -3l79 13q4 0 26 -2l37 -2l14 -4l36 15l23 7q41 14 63 20l7 14q29 9 51 29l35 -11q14 31 42 31h13q16 17 22 20l36 14q40 30 63 42l15 -12l36 16q9 21 14 23l30 14l39 24q34 9 42 13t38 22q13 40 41 40
q10 0 24 -3v30q15 2 24 10q50 50 66 56l34 12q8 4 37 53q32 35 44 50l-7 22v1l4 40v6l-3 56l5 82q0 58 1 92q32 14 32 22t-17 22v20l-11 3q-5 17 -5 27q-1 10 9 27q10 18 11 39l-42 16q15 34 15 74l-14 162q0 26 8 65q23 17 23 29t-4 15l-29 26q-13 13 -12 26v1l80 32
l-85 20l3 61l-9 30l-2 56l-12 94q0 7 8 45q-15 15 -27 24t-11 17q0 7 4 13t42 25q89 55 94.5 58t59.5 11q15 -21 15 -28z" />
    <glyph glyph-name="V" unicode="V" horiz-adv-x="1580" 
d="M408 746q0 8 -10 23l-21 -6q-20 20 -22 27l-15 42q-38 78 -40 86t-2 18t1 22q-30 18 -29 22q-6 8 -15 34t-29 61l23 9l3 31l-7 8l-21 3q3 54 3 102t-10 99q-10 50 -11 50q-9 -1 -23 -226q-17 28 -40 80t-23 75q-16 17 -18 21l-36 73q-39 74 -39 82t8 21q25 3 29 7l99 75
q10 5 21 5t23 -1q9 -29 31 -77t21 -53q0 -5 -5 -45l-19 -4l-16 -37l19 -2h2l21 7l3 -3l2 -19l22 -12l11 -53l13 -3q7 -27 31 -78q16 -54 27 -71q-15 -16 -15 -24q-1 -9 11 -27t18 -30l19 -3q26 -89 32 -92l29 -56l18 -42q26 -55 26 -68t-10 -33h-2l-6 -7l5 -14l16 4l11 -8
l10 21l3 -4h5q6 -26 10 -36t39 -76q19 -52 47 -104t27 -72q0 -20 -24 -42l17 -38h27q11 -18 22 -33t12 -19l9 -33l21 -44q16 -39 36 -70t34 -70t28 -55q47 -48 47 -58t-19 -32l22 -16q17 17 21 25t12 40t13 50l30 97q23 86 31 104t27 40l21 9q3 6 3 8l-7 29q0 16 11 44
t17 48l33 110q7 28 31 68t24 54t-1 27q11 13 11 15l19 73l25 79l7 37q19 51 23 60t32 15q-4 15 -4 22t3 20l-20 26l2 1l74 190l26 95q-6 35 -6 42t12 37l21 -7q1 8 1 13l-4 22l12 53v25q0 5 14 32q38 7 53 13q14 6 32 22t29 17q28 -15 28 -25t-16 -34q-17 -24 -29 -74
q-12 -51 -52 -141l-56 -173l-12 -13l-46 -166l-1 -1q-13 -6 -16 -14t-16 -53l-4 -24l-7 -22q-15 -62 -27 -94t-18 -53q-7 -21 -11 -25q-26 -23 -28 -32q-8 -44 -10 -47t-19 -16v-9q15 -12 15 -18q0 -7 -10 -23t-25 -76l-19 -61l-8 -34l-21 -52l-20 -78q-39 -99 -47 -133
t-18 -42q-9 -7 -29 -16v-16l9 -9l16 -3q-2 -7 -32 -119l-3 -31l-4 -23l-6 -44q-11 -47 -15 -70l-21 3v-36q-9 -7 -33 -13q-60 -27 -72 -29q-9 12 -10 14l-24 87l-39 95q-29 90 -36 102t-33 34q0 25 -3 31l-14 32l-13 36l-23 40l-15 34q-14 24 -14 27t8 9t9 20q7 8 7 20
l-19 3l-13 40l-37 -17q-5 0 -7 4t-4 43q-1 11 -55 133q0 2 -11 67q-22 6 -27 12t-15 44q-34 74 -40 97t-11 44q7 13 7 21z" />
    <glyph glyph-name="W" unicode="W" horiz-adv-x="2180" 
d="M1701 -148l-1 -68q-19 -12 -40 -23t-34 -27h-11q-10 15 -19 44l-36 87q-18 25 -24 49l-10 40t-5 28q0 11 12 30l-2 3l-13 2q-4 9 -18 27t-34 129q-7 89 -13 112q-19 5 -23 13t-16 79l-27 89l-10 49q-3 7 -25 64t-23 76t-7 40q18 17 18 25t-6 18q-11 -12 -19.5 -12
t-28.5 56t-26 113q19 11 19 22l-13 27q0 9 6 23q-19 -1 -51 -13q-11 12 -18 40t-42 133q-9 16 -13 33l-8 26l-5 30q-2 8 -21 25q-17 -25 -19 -33t-16 -89l-13 -34l-3 -34l-9 -18l-6 -39l-21 -38l-18 -70q-23 -44 -25 -78t-13 -75l-36 -129l-32 -136q-19 -72 -23 -80t-23 -29
q-14 -60 -24 -80l17 -13q-13 -31 -41 -137l-16 -62l-4 -29l-6 -30l-2 -24l-15 -61q-11 -33 -11 -43q-1 -10 17 -42t18 -40t-29 -40q-17 -32 -23 -38t-49 -20q-30 -14 -37 -14t-22 11q-10 68 -13 127q-2 12 -20 75l-18 6q-6 24 -24 73t-18 62t16 60l-23 8q-23 7 -31 2
q-9 10 -11 34t-8 44q-6 18 -6 26t12 26l-25 7q-3 19 -11 36t-18 65q-12 48 -22 70t-10 31l14 39q-9 12 -35 17q-4 40 -11 53l-23 43q-1 3 -1 19l18 11q7 21 7 33t-10 32q-10 -9 -15 -9t-15 9h-21q-6 17 -22 87l-25 96l2 39q0 39 -41 50q-6 36 -17 66l-42 115q-1 3 -4 30
l14 13q-13 23 -40 88l-13 3q-17 46 -30 107q-38 86 -38 96t6 15t26 12q14 25 18 29t30 23l16 13q35 27 41 29l18 3q8 1 21 19q14 -29 16 -41t11 -88l11 -37l-1 -27q0 -9 10 -43q-5 -1 -13 -9t-8 -16t6 -25q24 -3 27 -11t5 -22t6 -33l23 -3q-1 -77 28 -150q-26 -32 -26 -41
q-1 -9 9 -21t12 -12l12 -1q4 0 10 -11t5 -31q0 -20 -21 -35l4 -35q4 1 11 1t29 -11q6 -21 17 -40t14 -29l54 -187q15 -51 15 -53t-9 -34q21 -15 36 -44l13 -23l8 -39l11 -44l-80 -27q66 -38 90 -58l26 -3q9 -47 14 -70t39 -108q9 -54 15 -76h21l16 -38h4q9 32 17 54
q9 22 11 49q2 26 6 39l45 135q3 9 7 33t7 29l26 59l7 31l13 30q27 113 31 121t19 21q-3 15 -3 21t27 136q7 34 42 104q8 62 16 88q46 132 46 193q0 5 -6 33l69 46l24 34q47 32 47 36t-31 16t-90 18l39 65q-17 19 -17 33q0 43 38 74l31 23q45 39 51 42t13 3h7l40 -36
q-98 -37 -98 -64q0 -12 28 -38t63 -76l37 -44q0 -7 -19 -27q7 -33 31 -61t27 -32.5t43 -135.5q10 -81 14 -91t21 -31l-3 -3q-51 -9 -55 -17q16 -24 16 -60l55 -58l24 -48q17 -21 17 -26v-7h-8l-6 -6q8 -51 20 -78h20q15 -31 39 -111l17 -55l3 -44q16 -25 27 -61t11 -44
l-14 -47q0 -13 12 -23t18.5 -10t18.5 5q7 -25 17 -78q3 -10 24 -52q8 9 22 19t14 30q0 19 -11 40q16 8 21 18t24 75l-3 22l9 32l9 43l14 21l10 37l23 66l21 106q22 66 27 82t22 36q2 29 36 155q14 77 25 105t11 34q0 7 -12 54l21 59q6 55 11 76q10 -1 19 -1t23 8
q0 20 -30 34q1 23 13 70v51l7 27q2 42 7 57q28 69 86 80q22 29 34 33q1 3 27 7q5 -11 5 -19t-4 -22t-5 -57l-8 -27q-4 -36 -10 -54t-25 -46q3 -15 3 -26l-9 -40q0 -8 1 -18q-13 -18 -13 -26t1 -14q-20 -4 -23 -9l5 -39v-4q0 -11 -11 -42q-15 -2 -29.5 -9t-13.5 -12l2 -10
l2 -18q20 -27 20 -29t-12 -22q-12 -19 -27 -73q-17 -55 -19 -73t-15 -53t-26 -48v-16q0 -40 -5 -54t-23 -27v-16l-31 -130q-14 -73 -20 -94t-24 -63q-28 -13 -28 -28t20 -33q-2 -23 -15 -54l9 -49l-11 -12q-7 -13 -34 -103l-6 -59l-15 -62q0 -4 8 -18q-21 -14 -23 -20
q-6 -4 -13 -33q18 -23 18 -30t-9 -49q4 -39 4 -45z" />
    <glyph glyph-name="X" unicode="X" horiz-adv-x="1573" 
d="M1402 -346q-30 0 -38 8t-27 47l-34 52l-30 31q-23 34 -53 61t-56 53l9 31q-14 7 -21 15t-42 22l-24 46l-39 51l-29 49q-23 12 -31 18q-3 27 -18 36q-15 32 -41 66t-36 72q-10 39 -12 56t-12 26q-20 -22 -28 -22t-13 6t-30 44t-39 52h-3q-18 -34 -23 -41l-54 -69l-50 -85
q-46 -55 -60 -76l6 -37q-12 -11 -24 -23t-67 -90l-46 -61q-37 -27 -41 -31q-2 -3 -13 -19l-18 -21v-19q-18 -34 -31 -59l-33 -47q-4 -7 -9 -30l-19 -10q-13 -43 -37 -56q0 -1 -18 -3t-39 -13q-5 -26 -47 -26t-43 28q0 20 26 40t38 42t26 34q12 12 35 41l34 32l37 49l69 74
q28 44 54 74t40 65q18 25 26 35t25 40q17 29 45 60t29 32l22 47q2 7 27 37t35 48t30 34q25 61 33 93l-45 49h-5v20q6 8 14 14t9 14q-1 8 -19 26l-22 22v-24q-26 0 -30 4t-8 16q-4 11 -14 27q-49 13 -114 148q-17 34 -34 49l-39 32q-23 59 -29 68t-27 27q-7 27 -33 54
q8 25 8 36v20h-4l-13 -10q-6 41 -42 41q-12 0 -27 -3v5q-19 26 -74 94l-73 101l-27 29q-19 32 -33 43l-3 26l-2 9l22 7q3 32 75 70q37 43 41 45t18 3q14 0 24 -12t11 -17v-18q8 -27 15 -50q8 -16 14 -26t24 -28l10 -24q25 -42 25 -58t-9 -50q23 -10 46 -10q26 -25 34 -37
t23 -54q3 -4 17 -11q14 -8 14 -18t-4 -26l19 7q18 -31 33 -58t46 -66q32 -38 42 -58l-7 -26q0 -19 25 -19q5 0 12 1q14 -19 32 -43t33 -49l-22 -12q-2 -15 -2 -26q0 -29 48 -45l3 24h5q9 0 13 -4t42 -62q35 -30 53 -46q17 18 68 93q3 7 11 7h13q3 17 21 33q2 25 4 28l44 71
l30 62l77 133l20 5q11 24 24 42t13 22v8q-2 20 -2 24t40 82l50 117q2 4 11 15t24 43l22 -3q10 19 35 76t33 58q3 2 37 5q54 19 72 19t17 -8q0 -8 -26 -46l-39 -56q-13 -18 -29 -53q-27 -41 -37 -60h-25l-3 -3q6 -14 6 -18t-34 -75l-38 -60q-30 -55 -38 -67t-34 -37
q0 -24 -9 -38l-22 -12q-9 -37 -13 -47t-30 -39q-12 -25 -46 -85h-23q-11 -14 -12 -30t-6 -24t-24 -29q-19 -22 -29 -55l-21 -12v-12q0 -8 -13 -30t-37 -38q-3 -2 -10 -23t-37 -74q21 -16 34 -38h18q27 -38 51 -89q5 -10 35 -39l16 -3q12 -21 45 -61q35 -69 37 -79t20 -36
t30 -38q12 -11 13 -30l-9 -6v-40l8 -7q20 2 57 22q25 -37 67 -85t54 -58t11 -11l11 -50q2 -9 29 -21q31 -25 62 -51q18 -19 76 -60q1 -16 7 -24l49 -16q0 -12 -2 -16q-3 -3 -39 -33t-49 -41t-40 -20q-3 -29 -33 -29z" />
    <glyph glyph-name="Y" unicode="Y" horiz-adv-x="1710" 
d="M102 1480q-10 0 -26 -11q-37 36 -51 66v10q19 13 37 23t46 45q52 30 76 49q12 -3 26 -19t14 -21l-8 -26q17 -12 42 -50q26 -38 30 -47t4 -21t-3 -29q15 -12 34 -26t28 -34t9 -23l-16 -40q0 -5 13 -17h11l19 11l19 -45h26q7 -21 30 -52q32 -58 41 -71q43 -52 43 -64
t-15 -36l44 -21l7 6h5q14 -19 22 -36t12 -18l28 -11q6 0 41 -46q34 -46 54 -78t28 -38t39 -23q48 -50 97 -106q-2 -8 -2 -13q0 -16 12 -16t79 58q6 6 19 33l23 21q15 36 33 58t83 96q5 6 11 25t26 39q19 20 35 50t33 51l12 31l49 71l27 60q48 73 50 76t3 35q2 6 23 45
q33 38 41 57t24 62t27 60l16 -3q10 24 26 24q10 0 25 -5v-5q43 26 105 37v-45l-5 -6q-11 -3 -21 -9t-44 -62q-34 -54 -69 -76q-5 -19 -18 -34l7 -32q-24 -26 -38 -40t-38 -50l-19 -24l-45 -68l-21 -18q-20 -17 -31 -40q6 -18 6 -21t-20 -33l-19 -8l-15 -21l-12 -12
q-2 -2 -2 -25t-48 -98l-22 -39q-6 -8 -30 -30q-24 -23 -38 -43t-22 -21t-18 -1q-19 -24 -19 -38t3 -29q-18 -14 -24 -19q-6 -4 -28 -36t-25 -38t-3 -97l-6 -79q0 -11 4 -35q-20 -11 -28 -21t-15 -37q11 -11 27 -21t15 -27q0 -68 -5 -88l8 -51l-6 -27q-2 -32 -4 -53t-3 -86
l17 -48q1 -6 3 -16q3 -10 -1 -32t0 -62t4 -47t-10 -33h-18t-48 -28q-70 -23 -78 -28t-26 -25q-15 0 -30 15l15 27q-10 19 -10 41q1 22 11 63q10 40 10 44l-4 78q0 4 8 26l15 5l4 33q44 3 44 21q0 7 -4 16l-24 -6l-8 15l-27 12q2 45 2 71t6 64q18 10 25 32l-4 3h-24
q-4 13 -5 53l-4 58l7 77q1 1 -5 33t-27 45q-22 12 -23 16l-6 17l-10 21l-11 27q-3 7 -22 20q10 21 10 32t-11 32q-1 2 -15 4l-51 8l-3 -13q-11 31 -17 39l-32 45q-6 8 -17 43q-20 2 -25 4t-18 21q-13 18 -15 37l-21 -6q-10 17 -44 60l-17 34l-30 34q-27 42 -31 48t-8 25
l-14 19q-6 4 -7 34q-34 5 -53 32q-32 48 -46 62t-16 19q-4 6 -4 20t1 28q-29 9 -34 14t-24 40l-54 64q-28 31 -31 42v9q21 17 22 32q-22 20 -32 20z" />
    <glyph glyph-name="Z" unicode="Z" horiz-adv-x="1715" 
d="M1519 -286l-65 13q-12 0 -45 -4l-34 5l-29 -5l-45 11h-1q-2 0 -37 -5q-21 10 -31 10t-23 -4l-6 -23q-42 8 -128 8l-49 4q-73 -6 -96 -7l-16 20l-71 -15q-9 0 -21 1l-4 7l-2 5q-46 -17 -54 -17l-150 -4l-19 3l-19 -8l-3 -1q-15 0 -29 26t-24 25q-3 0 -46 -50q-83 5 -118 5
q-34 0 -70 -6t-54 -6l-39 -1h-27q-12 0 -50 13l-19 -6l-21 1l-19 -1q-21 0 -21 20t30 28v31q17 16 42 52q18 20 29 32t41 23t29 33q0 7 -9 25q25 22 36 40t14 20t25 6q21 4 23 7t7 21l-9 29q0 5 24 33t37 27q-1 26 3 29t23 24q40 56 55 76h20q28 36 28 50v23l91 119
q27 34 33 40t42 25q20 12 20 32v1l-7 30q19 17 70 90q33 36 34 37t19 33t45 72l24 -8l36 27l-15 45q0 19 51 20l-7 57q18 18 74 95q19 20 20.5 21t13.5 31t32 30q9 0 21 -2l19 40q0 2 -8 42q20 18 30 34t16 18t46 1q11 0 27 43q-25 11 -25 28q0 10 20 42t27 38t27 20v4
q-15 50 -28 50l-38 -49h-218q-54 1 -74 13t-27 12t-27 -21q-37 1 -42 1h-46q-19 -1 -23 -1l-56 4h-2l-37 -7l-34 3l-91 3l-45 -2h-1l-17 1l-37 -2q-58 29 -66 29l-27 -26q-34 6 -87 6l-25 4q-44 1 -52 3t-30 14v6q16 14 30 20t45 35q43 30 56 30l54 -9q53 -3 94 -12t90 -9
t51 -3q16 -21 36 -21q21 0 49 11q54 2 77 7l3 -3v-32q13 -4 19 -4q6 1 39 9t52 10l11 12h99q21 -35 47 -35t56 27l30 -4l10 20q18 -1 27 -1t39 3l78 2l28 2q11 -1 48 -16l8 12l15 -5q17 10 39 11l78 5q15 0 46 -1v-13h11l4 -32q-21 -15 -27 -25t-11 -22t-49 -65t-49 -59
t-21 -13l-9 9q-19 -21 -37 -29t-18 -22t3 -29l-22 -35l14 -10l-141 -186l-26 14q-20 -25 -20 -37t4 -25l-22 -36l-19 7q7 -18 7 -28t-30 -42t-39 -46l-52 -87l-16 -14q-19 -39 -31 -49t-22 -25q-24 -1 -42 -13t-18 -19t8 -19t8 -26t-26 -40t-28 -29l-9 -25q-6 -18 -49 -65
q-7 1 -15 1t-26 -17l4 -38q-12 -12 -84 -112q-12 -17 -37 -25l11 -32q-23 -14 -35 -36q-77 -120 -102 -143q-20 25 -28 25t-14 -8l9 -37q0 -6 -13 -18l12 -23q-15 -24 -35 -61t-30 -50t-12 -21q22 -33 32 -34l47 -6l49 -19l52 43q30 -11 50 -12q5 -23 23 -23q10 1 26 5t41 5
q30 16 37 16.5t30 -3.5q22 -4 48 -16t45.5 -12.5t31.5 36.5l6 2l48 -11l44 2l34 -2l25 3q39 -9 43 -9l62 13l94 -7q16 0 52 13l46 -37q37 42 39 42q2 -1 20 -21t31 -20q12 0 34 20t33 21q18 -6 30 -6t150 40l31 7q28 17 39 18h1l26 -4v-44q-17 -12 -63 -67l-22 -8
q-3 2 -21 -21q-18 -3 -25 -3l-35 1z" />
    <glyph glyph-name="bracketleft" unicode="[" horiz-adv-x="654" 
d="M332 698q-2 -18 -8 -199q-69 0 -69 -27q0 -12 8 -18q9 -6 37 -18t28 -16q0 -6 -8 -68q-11 -39 -11 -45t16 -76v-106q4 -34 4 -56q-23 -23 -23 -43t16 -67q-5 -37 -5 -71t41 -81q5 14 6 14l74 -6l38 10q12 -14 34 -18v33q46 10 52 10t18 -8q3 -10 3 -16t-3.5 -15t-5.5 -38
t-12 -36t-59 -24l-22 -2l-8 -1q-5 1 -14 9q-15 -14 -21 -14l-25 -2l-26 -6l-36 6q-23 -6 -29 -6q-6 1 -35 9t-36 17q-14 22 -30 33q2 14 2 22t-13 48l9 43q-8 31 -8 32l19 74l-13 62v36q1 3 -15 30l5 47v54l14 43h9q14 13 14 29t-4 25t-17 29t-15 70t-2 61q0 10 8 81l-3 132
l4 10l24 7q-4 29 -4 43t-3 19q0 8 -26 21q13 78 13 83t-15 62q3 17 3 52v86l4 11l14 -3q4 16 4 25q0 8 -11 28t-11 38t22 41v3l-5 1q-15 0 -15 27v6l9 3q2 19 2 25l-7 83q0 9 15 66q0 37 6 52t31 36q7 42 12 49q18 18 69 32q65 28 74 28t26 -4q12 16 24 22t45 7q65 0 65 -65
q0 -34 -23 -66l-43 22q-2 -18 -13 -31q-15 3 -25 12t-23 9h-3l-32 -6q-15 -28 -26 -34t-33 -7q-5 -23 -11 -41t-9 -67l-8 -22q7 -37 7 -57v-64q-1 -41 -1 -75t-8 -52q-8 -17 -8 -21t7 -22t7 -61l-3 -49v-2l5 -19q-8 -24 -8 -33l8 -53l-6 -60q0 -7 1 -20q-17 -17 -17 -25
t17 -26z" />
    <glyph glyph-name="backslash" unicode="\" horiz-adv-x="1207" 
d="M623 512q0 8 -10 18t-16 10l-18 -8q-18 15 -18 27v21q-35 10 -45 16t-22 32q-14 26 -28 40l-52 54l-30 36l-43 37q-3 4 -14 24t-53 61l-104 127q-58 59 -78 87t-42 65l-46 47q-39 47 -58 66q0 25 42 25q10 -1 36 -5t43 -6q19 -2 29 -8t37 -31v-5q-15 -14 -15 -20t7 -16
l22 7l4 -4l-3 -20q18 -8 20 -11l27 -49l49 -59q40 -59 54 -76v-12q0 -35 45 -54l28 -35q39 -41 58 -69t29 -67h23l3 2l54 -56v-37q25 -7 40 -9q15 -1 15 -13t-11 -31q36 -17 46 -23t38 -44q41 -40 56 -62t19 -25l21 -15l-1 -17l9 -11l9 -13q30 -21 34 -25t45 -53l36 -42
q6 -25 10 -32t33 -12q38 -55 153 -159l3 -26l16 -4l98 -110q2 -3 33 -34t52 -74l31 4q28 -35 69 -68l15 -17q24 -20 43 -46q-10 -7 -34 -9t-33 -4t-13 -1q-4 0 -25 6q-20 6 -39 8q-13 25 -38 36q-10 23 -38 58l-9 22q-19 28 -27 49l-24 -6q-8 16 -29 36t-35 40t-59 70
q-45 48 -45 54t2 17q-23 5 -30 9q-14 3 -37 33t-49 61t-27 40l6 20q-13 11 -29 14t-26 12l4 25q-33 23 -40 23q-6 0 -18 -4q-12 43 -66 95q-53 53 -80 83q11 12 11 20z" />
    <glyph glyph-name="bracketright" unicode="]" horiz-adv-x="654" 
d="M332 -3l-16 60l18 71l-4 28v15q0 18 -22 24q9 32 18 67l-4 48l8 44l-11 38q0 11 18 35l-7 38q15 25 15 31t-12 51l-4 47l-1 17q26 73 26 81t-1 18q-25 15 -25 26q0 2 12 35l1 31q15 44 15 50t-3 18q-24 16 -23 24l3 22v36l6 25q-8 39 -8 47t13 28q-12 31 -12 56l4 57
l-14 60q0 26 32 98l-16 11l13 78q0 1 -12 53q1 51 -7 61t-18 14l-21 4l-27 4q-33 26 -36 26q-14 0 -27 -66q-39 0 -71 -14t-47 -14t-14 14t-3 25q16 8 17 11t-1 23t-3 26t5 12t40 21t37 15l24 -2h32l29 -5q5 0 19 11l47 -13l45 10q15 0 38 -18l6 -24l20 -3q7 -23 11 -71
t21 -73l-3 -16v-158q0 -10 -9 -24q13 -41 13 -45t-14 -27q-14 -22 -15 -56l19 -3l2 -206q0 -5 -19 -63q-1 -3 18 -10q-5 -16 -5 -26t2 -26l-8 -7h-18q4 -26 9 -27q1 -4 23 -12l-8 -68l7 -73v-3l-6 -22l-25 5v-10l16 -11q9 -66 15 -165l-31 -21q2 -31 6 -43t28 -31l-14 -31
q11 -28 11 -42l-3 -60l6 -66l-5 -31l3 -35l-17 -61l1 -37l-15 -30q-3 -46 -5 -50t-18 -31q-8 -24 -11 -28q-5 -5 -33 -19t-36 -14t-22 5q-9 -5 -17 -18t-20 -17t-52 -4l-30 -14q-21 51 -25 51q-4 -1 -18 -15t-29 -51q-12 4 -15 8.5t-10 26.5t-7 32t10 28q10 20 15 36
q26 -10 36 -10t33 5q36 -1 42 1t18 26l33 -5l24 39q22 0 33 8l-7 59z" />
    <glyph glyph-name="asciicircum" unicode="^" 
d="M381 1459q0 8 3 13t35 22q21 41 36 58v13q0 16 7 27l35 13q-5 23 -5 39t31 31t36 20q12 24 30 64q24 -35 52 -55l-5 -37q38 -30 53 -83q31 -11 37 -22t14 -57l39 -24l10 -38t11 -21q10 -11 59 -28l-10 -81q21 -5 43 -7q40 -5 42 -56q0 -27 7 -45l40 -10l-3 -44l40 -9
q12 -22 32 -57t25 -51l-45 -26l-55 24q-18 -24 -31 -24t-62 50q-31 28 -36 33t-7 49l-41 9q-9 19 -22 41t-13 36t1 23l-39 15q-7 44 -14 56t-33 33t-29 29q-2 8 -4 31t-27 36q-4 2 -16 9l-4 34l-34 15l-7 39h-3q-15 -30 -32 -42t-33 -26l10 -53l-42 -16q-5 -21 -11 -55
t-17 -40q-10 -6 -43 -8q1 -16 1 -33q-1 -17 -7 -25t-34 -27q-28 -18 -29 -36q0 -18 1 -30l-38 -17q-16 -73 -58 -115q-10 -9 -13 -9t-26 9t-35 9t-35 -5q14 19 38 60q31 42 33 51t2 33q58 56 61 63q3 8 11 40t18 40t38 10l7 38l30 21l3 39l28 21q-1 8 -1 16z" />
    <glyph glyph-name="underscore" unicode="_" 
d="M982 -354l36 7q6 0 29 -23q33 12 39 12t64 -12q-6 -25 -10 -34t-6 -15q-8 15 -18 15q-9 0 -54 -79q-22 31 -38 61t-27 29t-29 -43t-19 -42q-33 0 -40 5q-10 1 -37 27l-50 -31l-33 27l-43 -30q-26 6 -62 8t-87 20l-13 -28l-83 25l-17 -30l-74 40q-33 -22 -59 -22t-57 18
l-29 -28l-28 4q-37 1 -41 1t-31 20l-51 -24q-18 19 -28 19q-10 -1 -28 -3t-36 -2l22 69l-17 42q28 -9 38 -9l49 2l46 -2l50 16q42 -14 66 -14t32 4l29 14q1 1 3 1t52 -73l31 57l35 -7l32 12q32 -8 37 -8t32 16q20 -23 31 -22h1l29 4l40 1q8 1 27 13q23 -21 30 -21t60 29
q26 -36 74 -36q19 0 31 2t64 23q32 -5 36 -5zM1147 -460l-13 39v2q8 -14 13 -41z" />
    <glyph glyph-name="grave" unicode="`" horiz-adv-x="836" 
d="M419 1126q21 -85 64 -128l-5 -35l28 -15q-13 -35 -34 -35l-34 9q-1 0 -7 -2q-16 54 -53 85q-30 43 -38 49t-31 12q-19 38 -35 56t-31 47q21 13 27 13t47 -8q69 -2 84 -6t36 -22z" />
    <glyph glyph-name="a" unicode="a" horiz-adv-x="1044" 
d="M484 379l-30 6q-2 -1 -18 -11t-64 -27q-64 -28 -80 -42t-28 -32t-41 -26q-4 -7 -4 -11t8 -12l7 -54q2 -7 16 -23q-26 -43 -25 -51l10 -19l28 24q34 -24 59 -30q26 -7 30 -9t15 -19q38 -5 47 -5q8 0 24 14q14 -10 20 -10t26 13l28 -6l54 19l26 12l22 -4l82 33q18 27 24 33
t32 13l6 32q18 10 22 28q-14 10 -20 21q1 17 1 25v16l-3 57q0 12 8 35q-9 1 -23 12l-43 -1l-39 2l-30 -1h-19q-4 0 -30 16l-22 -7q-40 0 -56 -6t-20 -5zM879 160q-1 -16 9 -31q10 -14 14 -25t12 -31q-11 -13 -16 -25q-8 -7 -31 -16l-38 -17l-24 -7q-37 -13 -44 -13t-19 11
l15 67q-29 -7 -84 -31l-29 -6q-26 -6 -27 -6l-37 4l-37 -19l-20 -2l-81 -17l-42 3q-32 -11 -44 -11t-76 13l-42 4l-31 13q-35 13 -51 25t-25 39l-23 8q-4 10 -9 36l-10 43v1q-1 8 11 26t30 54q49 48 64 60t64 33q28 18 36 18t18 -2q12 19 22 25t61 17q38 19 49 22t62 8
l32 11l37 4h39l79 10q62 5 62 37q0 15 -8 42l52 65q1 2 -33 12t-59 10q-43 55 -51 61q-10 4 -76 14h-32q-22 6 -30 6t-22 -2l-19 24q-22 -9 -33 -21q-12 -12 -48 -27t-70 -42l-14 -9q-19 -28 -35 -28q-17 0 -49 10t-40 14q-8 6 -23 25q17 13 29 23t18 12l47 11l30 16l64 20
l40 17h41l45 13l19 1l35 6q49 -2 63 -2t53 -13l24 -3q39 -7 54 -9t37 -23q-17 -15 -17 -27t12 -12l51 17q13 -13 14 -34l25 -18q2 -11 2 -14l-3 -39q11 -44 22 -55h4q3 -22 8 -48q3 -58 4 -77q-23 -14 -23 -28t27 -26q1 -13 1 -15l-5 -64q0 -33 11 -82q-18 -18 -18 -34z" />
    <glyph glyph-name="b" unicode="b" horiz-adv-x="1162" 
d="M501 716q-2 0 -6 -1h-1q-1 0 -4 2l-24 -5q-32 -3 -36 -4t-39 -24q-23 -8 -49 -22t-45 -21q-43 -20 -43 -50q0 -14 7 -23l28 -37l11 -50q23 -39 23 -51q1 -12 -11 -32q-12 -22 -12 -24t6 -28l4 -23l14 -36q-6 -40 -6 -48l6 -57v-61q-2 -9 -16 -23t-14 -23q0 -8 23 -25
l61 49q19 -23 28 -23l32 5q8 0 30 -11t32 -10l51 4l38 -1l26 -1l80 23q48 15 68 29t56 58l26 27q1 1 7 19t26 47q18 29 22 59t5 35q5 13 5 14l-3 26l79 36l-14 44q-2 7 -3 33t-7 30t-37 18q-23 34 -29 40t-37 23l-76 41l-51 19l-25 12q-31 0 -49 3q-18 4 -59 6q-40 2 -96 12
h-2zM327.5 1020q-0.5 -5 -8.5 -17q-23 -9 -37 -23l3 -3q-1 -26 3 -37t34 -25q-3 -15 -3 -23t4 -39t1 -37t-15 -28t-12 -40q0 -13 21 -13q26 -11 34 -11t28 28q14 -4 16 -4t71 15q51 20 77 26q18 -21 32 -21t28 4l4 21q16 -6 24 -6l47 1l26 -14q9 2 11 2q79 0 125 -21
q29 -14 43 -62q18 1 26 9t16 8t23 -20q29 -26 31 -28t4.5 -18t42.5 -50q5 -45 29 -106q3 -8 3 -44q1 -36 -9 -52t-14 -22q-4 -7 -15 -23h-18q-13 -15 -13 -20l1 -70q0 -3 -10 -13q-9 -10 -33 -41t-57 -50l-67 -59q-32 -31 -44 -37q-76 -32 -120 -43l-25 -8l-84 -14
q-27 0 -41 15l-27 31l-39 -32q-107 29 -108.5 29.5t-31.5 2.5t-53 9q-23 8 -31 8q-8 1 -46 -17t-40 -18q-16 0 -16 23l3 26q31 18 38 25t21 38q16 25 16 29l-9 60q0 56 40 59l6 37l-39 18l6 164l-4 26l22 6l5 22q-25 10 -25 23l3 45q0 6 -11 60l51 52l-53 63l1 3
q23 18 23 34t-22 35q-1 26 -2 117l-3 25q0 7 4 9l73 27l-79 25l3 17l-1 25l5 58q-9 55 -9 71t24 42l-20 50q0 8 3 20q30 10 30 34q0 7 -8 20l-25 4q-4 18 -9 28t-5 15t69 36v32l23 31q0 9 -32 17t-76 22v15q16 12 33 26t24 16l42 11q38 20 54 20t30 -13q-1 -26 -10 -48
t-9 -26l17 -36q0 -2 -38 -33l-10 -46l-44 -32q59 -71 69 -84t10 -21t-1 -16q-20 -25 -20 -39q0 -13 13 -31t13 -39l-8 -58l2 -41q0 -3 -4 -15q2 -21 3 -28l2 -21q1 -13 3 -21t1.5 -13z" />
    <glyph glyph-name="c" unicode="c" horiz-adv-x="956" 
d="M804 777q12 0 29 -13q-5 -26 -14 -34t-33 -15l-6 -27q-32 -15 -44 -24t-16 -10l-15 2h-4l-36 -2h-1l-29 4l-24 2q-34 11 -57 13l-52 3q-8 0 -58 -8t-62 -14q-11 -6 -31 -26t-47 -25q-3 -23 -12 -31t-35 -11q2 -11 2 -17t-27 -46q-8 -12 -8 -122q0 -24 25 -89
q-16 -28 -17 -41q6 -5 34 -12q44 -56 56 -82l24 -3q15 -20 20 -24l38 -25l27 -20q37 -15 45 -17t48 -4l37 -8l35 -2l26 -3q20 2 66 23l18 -5q13 8 19 12t36 26q25 3 43 20t32 25t30 27t26 19t17 -10q-10 -41 -10 -69q-20 -19 -33 -40q-22 -7 -60 -33q-16 -3 -32 -14t-29 -11
l-34 2h-1q-54 -11 -60 -13t-20 -12t-19 -10l-101 1q-6 0 -29 -3q-25 17 -49 19t-77 17l-24 3l-28 9q-37 8 -49 20q-52 51 -52 59t3 20l-1 3l-34 -6l-2 2q-18 37 -30 53t-13 27l-4 40v3l5 28q-28 20 -28 28q0 3 47 30q26 14 26 44t-64 38q13 22 39 76t34 57q18 15 36 31
l23 26l77 70l25 15l23 17l22 9l29 22l53 19q49 18 67 20t36 5q20 -20 29 -21l57 15q1 0 25 -6t39 -7t23 -3q48 14 60 14z" />
    <glyph glyph-name="d" unicode="d" horiz-adv-x="1148" 
d="M555 681q-16 0 -50 -15l-27 2q-24 0 -57 -37l-33 5q-16 -20 -23 -24l-33 -19q-39 -34 -37 -62q-29 -20 -47 -47l-27 -41q-5 -13 -5 -39t7 -49l4 -22l18 -51q19 -31 19 -40t-1 -20q21 -12 24 -19l9 -22q26 -35 33 -45t39 -35l25 -25l27 -14q33 -25 36 -25q18 0 29 51
q36 -21 64 -21l86 3h41l88 20q51 9 61 18q24 36 40 53q-8 16 -7 20l5 27v78l1 64q-6 27 -8 48l34 13q-6 17 -6 27t1 21l-22 6l61 50l-60 69l1 20q0 3 -7 12v34q-17 7 -22 7q-4 0 -18 -6t-34 -6t-32 10l-35 32l-68 21l-39 26q-41 -52 -44 -53h-11zM862 1176q3 98 10 125
l-11 57q0 5 6 19l18 11q-8 17 -11 15q-4 6 -27 6l-6 3l-3 2l81 53l-21 25l-7 47q-1 17 -41 31t-40 20t10 14t75 22q19 27 96 37q4 -8 10 -65v-1q0 -1 -7 -44v-29l-2 -17v-113l-13 -51l4 -74l-20 -37q9 -33 25 -59l-9 -37l4 -29q-7 -23 -7 -27l9 -63q0 -7 -6 -17l-22 -4
q-11 -24 -11 -32t1 -17q34 -21 36 -39l-6 -68l6 -75l-3 -24l1 -24q-13 -23 -13 -26l2 -53l1 -17l2 -59l7 -67l1 -21l4 -47l-3 -49l15 -87l-1 -39q14 -56 15 -76l2 -40q17 -16 17 -28v-18q-12 -6 -71 -12q-45 -10 -74 -13l-14 12q-26 -19 -41 -23t-90 -18q-108 -27 -154 -27
q-72 -11 -127 -11t-107 13l-18 29q-30 -16 -38 -16t-12 18t-13 28q-19 -9 -31 -9t-38 22t-44 34q3 15 3 31q-1 16 -21 33q-20 18 -21 21l-18 98q-1 16 5 36t6 51l17 31q38 96 47 106t31 24l35 -7l7 7l-10 52q20 14 25 16t58 57l27 19q20 17 30 17t36 -5l14 -11q19 14 45 23
v26q8 7 46 20l46 16l34 3q24 8 30 8q6 1 28 -15t32 -21l20 25q30 -9 68 -15t42 -9l24 -15q4 -3 15 -3t33 17q-14 18 -15 22l-6 62l-5 20q61 43 61 49q1 6 -29 36t-30 92l25 13q-9 14 -12 38q-15 46 -16 63z" />
    <glyph glyph-name="e" unicode="e" horiz-adv-x="1054" 
d="M448 592l53 -13l89 15l17 -21q65 13 81 19l57 -5q6 1 6 15t-7 22t-23 28q-16 21 -22 19l-33 16q-6 3 -19 23q-29 4 -99 4l-20 1l-34 -20q-2 -2 -55 -14q-42 -15 -74 -29q-7 -5 -26 -22t-36 -30v-6l2 -2l73 -29l22 -22l39 47q5 4 9 4zM724 548q-4 0 -45 -41q-64 12 -74 12
t-32 -3l-5 4q-16 -2 -87 -2l-37 -4l-46 -4l-47 -8l-42 1q-58 -18 -79 -21q-4 -34 -10 -48t-24 -32q32 -22 34 -31q10 -64 19 -86l18 -10l-5 -37l31 -8q9 -40 25 -54t51 -19q5 -31 15 -37t37 -8l17 -26q11 2 18 2t40 -16q32 -16 46 -15q14 0 52 12l64 7l49 14q35 2 49 8
t60 32q44 28 56 44t25 34q13 20 27 20t31 -13q-7 -36 -13 -47q-42 -71 -53 -94q-13 6 -21 6t-30 -16t-49 -18q-63 -16 -95 -20t-53 -10t-22 -7l-59 9l-35 -6l-31 -2q-30 -2 -115 7l-21 13q-76 22 -82 26t-22 18t-46 34q-30 18 -32 27l-18 32q-4 8 -34 38q10 15 10 21t-26 59
q-7 15 -7 61t13 90t18 51l34 40l22 47q34 32 78 72l73 45l74 51l27 5l76 24l49 4q59 22 65 22q56 0 76 -53l32 20q20 -23 36 -31q16 -7 66 -59t58 -72q9 -22 32 -84l-7 -7q-11 2 -30 9l-38 -14l-34 6l-30 -8q-63 44 -67 44z" />
    <glyph glyph-name="f" unicode="f" horiz-adv-x="713" 
d="M212 637q-10 0 -12 4l-34 46l-49 8q-22 6 -24 6q-25 0 -76 -55q-5 7 -5 14t30 47t45 40q16 0 56 -7l41 26q1 17 4 44l-1 100q0 27 20 65q-20 14 -24 21t-5 107l-1 72l-1 49q0 19 21 52q21 34 21 40t-1 14l-15 7q6 65 66 144q25 38 108 105q17 12 94 53l21 15l30 4
q53 13 55 13l11 -3l74 -3q39 0 68 -32h25q0 -17 -4 -21l-25 -28q-17 -23 -27 -31t-47 -22q-22 12 -63 36t-71 24t-73 -22t-63 -54t-46 -114l-11 -22l-14 -55q-18 -31 -18 -40t20 -15q-7 -19 -7 -34t-1 -53l1 -74q-1 -8 -11 -28t-10 -36t17 -47q5 -9 5 -149q0 -17 -30 -45v-8
q9 -9 25 -14t20 -53q26 -26 36 -29l102 -28l70 27l74 16q41 27 51 29t40 5q20 -22 21 -39q-77 -46 -92 -64q-14 -17 -23 -17q-10 0 -30 7t-40 7l-88 -10q-24 0 -62 8t-46 8t-19 -11.5t-9 -20.5l9 -44l6 -98q0 -5 -5 -14q-21 -7 -21 -24t22 -33q10 -129 18 -165l-10 -10
l-17 4l-17 -16q11 -16 23 -29t11 -20v-1l-3 -32v-3q0 -10 7 -48l-15 -8v-23q-30 -10 -56 -24t-59 -18v6q-13 -8 -20 -8t-21 10q5 14 8 37l9 52q15 47 15 61t-1 61q22 16 22 20l-18 111l1 32v172q1 34 10 37q27 9 37 16v14l-9 9q-10 -3 -20 -3z" />
    <glyph glyph-name="g" unicode="g" horiz-adv-x="1059" 
d="M269 402q0 -14 9 -22q9 -6 37 -11q35 -33 53 -43t59 -9q42 0 76 10l24 1l72 30q6 2 29 2q18 22 40 38t26 18q2 4 12 34t11 48q1 20 -3 57t-44 66q-16 12 -28 31q-12 18 -21 22t-44 12l-16 9l-36 12l-47 -14q-31 5 -40 5t-51 -15l-29 -5q-7 -1 -23 -14q-15 -2 -46 -36
q-32 -34 -37 -41t-10 -41t-5 -58q-1 -24 5 -33t29 -25q-2 -14 -2 -28zM502 -19q8 0 12 7q20 42 26 47q38 26 69 26l35 -3h1l47 3q11 -1 23 -27h14l15 25q16 1 26 1t47 -7l29 -2l29 -14q69 -22 88 -32q-1 -8 -1 -15t20 -32l33 7q28 -14 31 -22t8 -28l14 -39l6 -42l8 -36
q0 -1 -11 -60t-59 -110l-20 -36q-12 -20 -15 -26t-17 -6q-10 -16 -16 -20t-37 -21q-25 -28 -41 -35t-58 -31l-59 -24l-28 -16l-38 -10l-33 -15l-15 -1l-30 -6l-75 -6q-77 -25 -91 -25l-56 4h-1q-27 0 -28 2t-19 44l-22 -43l-42 39l-39 -41l-50 31q-6 0 -36 2t-36 7l-52 33
l-22 19q-36 16 -42 20q-6 5 -24 41t-17 61q-1 25 15 59t26 43q24 4 42 26t35 30q62 25 83 36q11 -13 11 -23q1 -10 -5 -17q-6 -6 -26 -20q-48 -34 -47 -82q0 -6 2 -19q-25 -11 -25 -27t18 -16q8 -1 22 -6q7 -23 40 -47t55 -31l16 -26q56 -14 73 -14l29 4q6 0 45 -47l9 19
q4 21 9 21l141 -5q3 0 13 4t70 15t106 28q44 17 52 19t38 3q8 8 18 25q3 4 58 37q21 16 35 23q4 13 18 25t13 19l-5 37q13 32 14 49t7 31t5 19q0 10 -21 17q-12 50 -27 68t-15 27t2 20q-54 36 -141 49h-18l-5 -1l-55 10l-59 -6l-40 19q-6 0 -43 -18l-63 -11l-52 53l-33 -51
l-19 8q-8 4 -16 4t-19 -1q-16 -23 -31 -23q-55 -1 -109 31q-53 32 -57 43t-10 39t-6 42q0 12 32 44t42.5 40.5t37.5 22.5l26 16q40 5 47 8t28 19v4q-13 6 -22 6l-48 -4q-20 0 -46 14q-25 14 -27 18t-7 24t-27 26t-21 7l-14 23q-19 26 -19 32t6 49q2 47 4 53t12 20
q10 15 10.5 25t-8.5 32q18 16 52 59q12 14 50 37l50 48q10 8 24 11t17.5 5t8.5 12q22 3 112 28l34 4q34 7 45 7t73 -9q44 0 66 -2q22 21 48 31t31 10l71 -9q25 0 67 5h1q9 0 35 -22q19 3 19 23q0 6 -1 14q63 34 77 35t30 6q7 -9 7 -15q0 -48 -75 -79q-2 -18 -7 -25t-31 -27
t-54 -20q-27 0 -28 2l-32 44q-3 4 -7 4q-19 0 -36 -48q13 -14 29 -28t20 -20t10 -25l17 -14v-31l3 -4l-32 -16v-13q19 -13 19 -31t-44 -65l-25 -29l-52 -41l-15 -25q-4 -5 -26 -19l-18 -12q-41 -26 -87 -40t-64 -16t-41 -9q1 -12 1 -24t-12 -25q-46 0 -60.5 -3t-63.5 -22
q-112 -24 -130 -61q-8 -18 -9 -19q6 -13 74 -25q20 -12 29 -32q26 7 41 7l58 -8h1l41 5q9 -2 31 -32q20 -30 28 -30z" />
    <glyph glyph-name="h" unicode="h" horiz-adv-x="1049" 
d="M137 1559q0 10 1 23l-20 20q9 17 41 33l66 34q27 13 45 13t32 -9q-48 -20 -54 -27l-38 -40l77 -73q5 -5 5 -17t-11 -36l-9 -19l-17 -8q-3 -2 -8 -13t-5 -19t4 -22l45 16l-10 -175l3 -49q0 -21 -23 -45q0 -22 5 -27l18 -21q6 -8 6 -20t-11 -54l6 -39q5 -55 5 -57t-11 -34
l7 -42l-2 -20q6 -31 6 -34q0 -4 -7 -34t-7 -66t10 -59q54 30 129 103l42 -8q23 14 60 22t47 8t26 -15l6 -22h24q8 7 14 20t14 12l60 -4q90 -6 94 -9t26 -28t53 -39l-15 -30q13 -9 35 -9q21 -26 21 -56q0 -94 -17 -113l-12 -12l15 -39l-20 -24l-3 -9l27 -28q-5 -14 -5 -18
l1 -25l3 -60l1 -11q-18 -30 -18 -36t13 -69l-2 -86q0 -1 1 -12q-23 -15 -56 -19q-17 -13 -37 -21t-36 -15l-35 31q6 25 22 59t16 58t-14 62l3 13l6 37q12 32 19 84l-17 10l12 130v7q-7 47 -7 48l8 23v1q0 5 -11 28t-21 30t-40 14q-40 20 -46 22t-43 1q-56 8 -66 8l-69 -4
q-38 -1 -94 -14l-58 -30l-35 -12q-73 -65 -73 -73q0 -25 66 -39q-11 -58 -15 -137q-21 0 -29 -8v-6q26 -30 33 -54t9 -83l5 -32l-9 -44l5 -27v-17l1 -18q0 -7 -6 -15t-68 -27q-16 -5 -48 -35l-23 20q1 30 14 75v29q1 2 11 21t10 31l-17 41v1l3 98l2 28l-2 37l5 75l-3 58
q2 10 4 16t16 20q16 14 16 26t-3 31l-24 -7q-12 48 -12 116t5 162l34 4q-12 22 -17 47l-23 16q4 29 4 43l-13 132q0 24 19 39q47 35 47 39v1q-21 21 -71 24q4 15 6 37q12 35 12 45t-21 26q1 26 1 40l-3 81q0 6 6 43q-24 76 -24 86z" />
    <glyph glyph-name="i" unicode="i" horiz-adv-x="435" 
d="M146 1092v1q-2 35 51 76q11 9 19 18t27 24q37 55 49 63t19 9q7 -1 26 -15t19 -32t-32 -40t-74 -62l-63 -42q-29 -15 -35 -15t-6 15zM168 389l-1 35q0 10 10 26q-10 12 -10 25v15l-2 23q65 12 65 21l-8 8q-8 8 -28 8q-19 0 -42 -2q3 14 3 18t-8 101q-1 12 -19 22
q0 13 48 51t96 54l30 -31q-10 -25 -16 -66t-6 -49v-37l-17 -24q0 -25 22 -48q-6 -11 -6 -13l2 -49q-2 -22 -2 -34l-5 -191q1 -15 13 -69l2 -42q6 -30 6 -43q1 -13 -11 -24t-45 -32q-51 -38 -59 -42t-18 -4t-22 12q4 25 5 35t11 42l1 49l7 98l-1 18q1 16 16 16q4 0 10 -1
q5 16 5 23q0 8 -4 24t-8 34l-17 13q3 22 3 30z" />
    <glyph glyph-name="j" unicode="j" horiz-adv-x="435" 
d="M228 1289q11 0 15 -25q19 -12 20 -17q5 -4 5 -30l-185 -131l-23 14q17 48 72 84q5 17 8 20l23 28q47 57 65 57zM247 -194q0 -10 17 -62l-2 -33q-4 -115 -17 -171l-26 -11q0 -17 7 -31t7 -17q0 -4 -16 -76t-27 -97t-34 -74q-16 -3 -19 -12t-10 -16.5t-31 -49.5t-37 -54
l-43 -42l-30 -35q-46 -24 -54 -31t-22 -27q-13 5 -18 5t-42 -12q-38 -12 -66 -15q-28 -2 -92 -12l-35 -1h-17q-30 0 -66 34t-38 58q26 16 34 16t114 -38q31 1 58 1q18 -24 30 -24t27 20q24 5 34 5t26 -2q21 17 85 46q26 9 70 72t46 72l29 76q30 32 30 38t-11 72q-1 6 71 83
l1 1l-54 76l2 3q26 29 26 39t-1 19q-23 18 -22 30v1l4 30l1 51l3 28q-3 41 -3 69t14 48l21 -4q5 15 5 21t-2 15q-14 -3 -24 -3q-18 0 -18 18l5 59l-2 42q-2 42 6 57l22 -7q6 13 6 21t-10 30t-34 36q5 27 5 53t-2 83h29q6 19 6 27t-2 20h-32l-8 26v1q1 6 9 40q22 33 22 37
t-10 39l-4 29l-21 29q-9 139 -13 147t-25 22q12 21 19 24l29 11q13 13 55 39t50 26t17 -1q10 -15 9 -19l-6 -38l4 -32l-3 -61v-56q-21 -47 -21 -53v-9q1 -11 1 -16t-3 -18q33 -9 33 -20q-1 -11 -7 -31t-5 -42l5 -143l1 -2v-2q-1 -2 -5 -12t-4 -23q0 -14 2 -34t2 -42v-26
l8 -87l4 -137q-2 -31 -9 -52q-8 -22 -8 -32z" />
    <glyph glyph-name="k" unicode="k" horiz-adv-x="976" 
d="M189 1404q0 -25 81 -82l-31 -9l2 -88q9 -5 20 -7t11 -10l-5 -42q0 -5 7 -55v-278l-10 -63q0 -31 24 -59l-5 -46v-1q0 -50 9 -70l-62 -79l58 -37q-9 -56 -9 -64t14 -34q10 4 47 35l61 43l216 221q52 65 82 91t62 40q14 -15 39 -26q2 -13 2 -32t-20 -38t-49 -23
q-21 -29 -41 -31t-30 -9q4 -17 4 -33t-30 -34q-30 -20 -42 -31t-16 -14t-26 -4q-4 -19 -10 -28q-3 -3 -39 -25q-63 -52 -73 -62t-15 -26q43 -46 93 -78t51 -38q5 -18 18 -29q-1 -5 -1 -11t22 -24t23 -20q20 6 31 13q88 -40 122 -49l-3 -24q19 -16 27 -16t31 9l28 -12
q18 -6 24 -15q15 3 26 3l25 -5l32 11q6 -6 6 -9q0 -2 -14 -40t-52 -57q-11 -4 -48 -6q-30 -12 -36 -12t-41 14q-72 19 -117 44q3 13 3 21q-1 8 -7 16t-12 9h-9q-35 -6 -39 -6t-22 16t-52 39l-53 45l-33 11q-32 33 -98 86q-40 27 -49 27t-9 -12t4 -28t4 -96l11 -92
q-3 -23 -4 -43q-14 -11 -16 -12t-43 -11t-75 -27l-10 28v1q14 73 19 140l5 143l21 -3l12 29q-27 19 -27 36t24 57l-29 16q54 20 54 38q0 9 -28 27t-30 25q3 27 3 29v1l-5 69q0 11 1 34l28 22v7l-27 19l-9 167l-9 65q31 26 31 42t-30 36q4 13 4 14q-19 120 -19 128t12 76
l-3 17q-1 13 -21 24q1 8 1 13t-8 25l2 34q-9 77 -9 82l2 73q0 19 -7 33l9 36q-6 12 -6 33q22 10 96 61q36 11 57 23q10 -3 10 -12l-14 -56v-14l4 -132q2 -8 -38 -26t-40 -42z" />
    <glyph glyph-name="l" unicode="l" horiz-adv-x="410" 
d="M140 572l12 62l-6 106q0 10 16 45q1 31 6 49l-21 25v220q13 9 18 23t15 36q-21 8 -34 18q7 28 7 36t-18 19q-3 14 -3 36l-1 41l17 39q0 14 -15 44l75 53l-51 69q-39 53 -39 61t4 26t7 40q15 4 32 16t37 20t43 35h9q23 0 23 -27v-2l-2 -19l10 -35l-4 -84q-1 -81 -3 -88
t-16 -24l-6 -32l21 -3q6 -25 6 -40t-21 -36q-2 -27 -2 -37t13 -21q1 -19 1 -28l-5 -125v-127q0 -10 -12 -30q-12 -19 -12 -25l14 -64q0 -10 -21 -29l22 -48l11 -8v-62l3 -225l-18 -11q3 -22 3 -31l-6 -80l31 -4l-3 -7l18 -163l-2 -42l6 -30q-20 -32 -20 -36t5 -12
q-20 -8 -48 -25t-31 -18t-20 -1q-23 -19 -33 -19t-20 4q1 15 1 17l-6 55q0 3 8 31l2 22l4 30l-3 19l84 54l-81 56l2 13l7 36l9 25l-21 47q0 3 13 37t14 59l-23 12v34q-2 23 -2 28z" />
    <glyph glyph-name="m" unicode="m" horiz-adv-x="1310" 
d="M1168 325l-3 -32q0 -5 7 -71l-20 -16v-21q5 1 10 1t10 -8l-3 -55q0 -20 15 -52q-22 -19 -64 -36q-52 -37 -62 -37t-24 3q-2 23 -2 42l12 76l-4 29q-3 30 6 97l2 39q19 36 19 44t-11 23q-11 14 -11 15l55 32l-55 43q16 25 22 64q-21 18 -22 23q-12 80 -20 101
q-19 20 -55 71q-11 15 -46 15t-51 -7l-37 -19l-17 -5l-18 -18q-28 -14 -40 -30q-18 -27 -29 -43v-70q-26 -10 -26 -22t23 -24q3 -44 5 -75q2 -30 3 -52q0 -22 -3 -44l-27 4l-6 -5q2 -9 15 -27t13 -28v-20q-1 -25 -2 -31h2q16 -58 16 -122q0 -15 -12 -23t-45 -29
q-62 -23 -70 -23t-8 28v1l4 128q0 38 5 60h3l17 17q0 17 -5 27l-13 36l-11 25q4 63 5 68q31 22 31 40t-32 23q-4 23 -4 109q-12 56 -22 72t-34 14h-3l-28 -7v5l-20 24q-19 -14 -24 -15l-48 -11q-51 -19 -92 -24q-24 -35 -36 -65t-12 -35v-44l-6 -35l6 -36v-1q-3 -29 -4 -55
l-26 -15q25 -32 27 -40t2 -54l-2 -33q0 -2 2 -26t3 -65t7 -72q-22 -8 -57 -29t-47 -21t-28 4q-1 7 -1 8l2 37l-1 54v52l-2 21l21 35q0 8 -21 17q-2 16 -2 28t26 53q2 2 2 27h-17q-9 29 -9 47t6 81h8l5 5q-1 22 -2 43q-1 22 -9 36t-12 54q-3 40 -15 78q-13 1 -24 8
q9 37 79 76q36 20 39 20t11 -8t19 -15q4 -25 7 -41t3 -28t-4 -38l3 -3q30 6 37 10t26 31q21 2 25 6t18 21q42 23 76 31t48 16q12 6 16 6q21 0 21 -39h29v28q32 18 66 18t57 -32q5 -7 24 -65q3 -11 11 -11t25 20q16 20 47 32q67 40 73 40t38 -5l32 9l53 2l31 3l37 -13l33 -10
q36 -19 44 -29l3 -24q-15 -3 -15 -15q0 -6 5 -16h21q5 -19 6 -60l8 -30v-120q0 -11 -11 -29t-11 -29z" />
    <glyph glyph-name="n" unicode="n" horiz-adv-x="1047" 
d="M254 770q22 0 27 -8q4 -8 5 -62q0 -14 23 -54q40 51 47 50l35 22q40 33 52 33t25 -22q55 40 109 40q11 0 19 -3l20 -6q38 14 48 14t46 -8t59 -11q14 -17 20 -18l23 -4q26 -4 61 -56q21 -33 22 -146q-24 0 -49 -9t-25 -17q0 -1 67 -37q8 -4 8 -20t-10 -40q-10 -23 -10 -31
t21 -28q-3 -21 -3 -33t15 -54l2 -55l3 -48l-3 -42q0 -10 10 -37q-34 -25 -63 -37q-28 -12 -64 -36q-28 29 -28 43t10 55q10 42 11 67l20 7q50 7 51 12q-34 22 -86 33q6 43 15 52l30 28q24 23 24 42q0 4 -66 29l3 36l-5 53l11 37q-16 18 -16 24l1 50q0 10 -16 27t-16 34l-5 6
q-24 7 -27 11l-28 48q-7 13 -21 13t-44 -26t-48 -26q-17 0 -53 8l-19 -19v-5q-21 50 -42 50q-1 0 -13 -6t-31 -10q-19 -5 -60 -29t-53 -43t-12 -31t2 -75v-4q0 -18 -8 -23l-45 -33q-7 -4 -7 -12t29 -24q28 -16 34 -21q6 -6 6 -14t-2 -25l2 -74q0 -6 -10 -20t-10 -26
q0 -13 21 -33l-3 -3q2 -24 4 -58t14 -65q-10 -21 -17 -24t-24 -5t-27 -7t-16 -6t-14 -13t-18 -13q-10 0 -21 11q-10 11 -10 20l9 53l1 76q9 29 9 34l-9 51l3 37l-2 62q0 13 7 33l28 13q-2 9 -7 14q-6 3 -32 5q-1 19 -1 31l5 42q0 23 -11 85l23 13q-19 28 -21 32q-1 4 -3 22
t-25 46q8 35 51 54q46 37 68 37z" />
    <glyph glyph-name="o" unicode="o" horiz-adv-x="1160" 
d="M307 148q0 -6 -10 -27q4 -14 27 -15q10 10 16 10t66 -30q58 -30 94 -29h59l30 -7q19 -5 37 -5t43 6q24 6 60 13q10 3 68 43q39 13 45 19t37 58l25 50q25 24 29 30t4 19q-16 24 -15 32v1l4 20q2 46 12 75q-8 19 -19 60l-16 52q-2 10 -3 41l-4 4h-24q-11 20 -38 54
t-30.5 37.5t-68.5 28.5q-10 35 -32 35q-6 0 -31 -10q-31 8 -59 8q-29 1 -45 -1t-51 -24l-21 15q-15 -20 -23 -24l-43 -22l-127 -109l-9 -7q-2 -28 -6 -35l-20 -35q-10 -28 -25 -47q1 -8 1 -14q0 -23 -35 -37q0 -3 8 -23q27 -20 27 -28t-33 -26v-10l9 -9q10 9 20 10
q8 -35 14 -49t29 -53q24 -39 24 -45zM634 778q69 0 106 -8l4 -21q14 -6 24 -14q15 5 24 26q55 -11 91 -35t40 -29q2 -3 20 -35q20 -31 68 -32q24 -40 31.5 -62.5t20.5 -132.5h-16v-12l-20 -23q4 -17 28 -32q-3 -44 -5 -56t-28 -68q-25 -58 -40 -82q-53 -64 -97 -78l-105 -51
q-40 -22 -47 -23.5t-97 -6.5l-70 -15h-71l-32 -4q-88 15 -110 16q-15 16 -19 18t-32 7t-63 27q-34 22 -61 37l-9 27q-3 10 -16 18q-13 9 -27 31t-14 48t21 41q-9 16 -31 26l-1 4q0 66 8 94t28 81q41 75 47 85t46 36q0 2 12 24t20 28t52 27t71 49q4 4 92 37t157 33z" />
    <glyph glyph-name="p" unicode="p" 
d="M865 573q0 6 4 17q-14 20 -26 20t-43 -5q-22 14 -44 31t-27 18q-6 1 -44 1l-21 12q-14 6 -84 6t-92 -4t-91 -24l-27 -4q-9 -2 -30 -16q-28 -4 -35 -16t-7 -26t1 -29q-47 -6 -80 -24l56 -15l1 -5l8 -8h11q1 -24 1 -42l-3 -45q0 -1 4 -33v-1q0 -9 -17 -42q14 -28 15 -36
l1 -46l4 -55l-5 -38q19 -12 49 -26t36 -18t12 -16q14 11 20 11t20 -5q14 -6 40 -6q27 0 31 -2l66 -22q3 -1 7 -1t74 10l38 -42l31 15q35 18 44 25t30 28l37 26l32 35q43 36 52 46t27 64t18 73l-5 54q0 7 7 22q-23 16 -31 30t-15 47q-23 18 -37 36t-13 25zM353 16l-27 -1
q-6 0 -21 8q-9 -22 -9 -35l5 -94q0 -14 -7 -18l-31 -17q-4 -2 -7 -20t-8 -22l-15 -11q50 -29 53 -32t13 -55q4 -65 6 -88l-24 -6q-2 -12 -2 -21l12 -56q0 -8 -1 -18l18 3q2 -46 4 -61t2 -71l6 -25q0 -5 -5 -18q-18 -2 -28 -8l31 -18q-1 -10 -1 -18l10 -75q-24 -16 -29 -22
t-16 -29l-23 -9q-36 -22 -70 -25h-1l-26 7q32 13 36.5 19.5t6.5 41.5l39 64l-76 85q6 6 20 25l-8 56q6 10 16 20t10 17t-14 16t-16 12q59 25 59 35q0 5 -51 22l-3 2q49 28 49 36t-26 50t-27 57q0 14 13 135l15 9l-3 63q-31 8 -31 38q0 7 5 81l3 49v155q0 7 11 29l-2 40l1 12
q0 11 -21 21q-1 25 -1 37v24q1 26 1 31v8q-2 42 -2 43l5 24v2q-9 78 -13 92t-30 33q4 16 6 19.5t15 13.5t53 43q54 31 66 31t32 -27q-7 -15 -7 -23t7 -23q19 9 88 47l26 7q32 11 54 11t46 -15q15 30 93 34l126 -3q17 -1 25 0t19 1t31 -23q21 -3 63 -20q43 -17 55 -31t16 -28
t14 -27l41 8q34 -37 55 -96q20 -59 20 -94v-44t5 -33v-2q0 -5 -13 -35t-33 -57l-29 -50q-20 -16 -32 -37l-39 9q-13 -54 -46 -69q-3 -2 -23 -2t-29 -4q4 -53 -139 -101q-38 -15 -53 -16h-69l-41 -15q-3 0 -23 8q-39 6 -80 11l3 18q-14 45 -19 45l-10 -20q-12 -29 -16 -34.5
t-16 -5.5h-17z" />
    <glyph glyph-name="q" unicode="q" horiz-adv-x="1106" 
d="M832 172q7 0 21 4q-1 6 -16 37q17 54 35 69t29 24l-20 25l-15 26l-24 31q-8 8 -8 74t-9 100q-5 67 -9 78t-20 25l-98 -25q-53 0 -71 19l-66 -5q-15 12 -26 12h-4l-20 -1q-27 0 -65 -10q-13 -4 -65 -47q-41 -27 -46 -33q-71 -94 -75 -114t-8 -23q-3 -3 -16 -5l-5 -16v-1
q0 -2 4 -12t6 -66q17 -64 22 -85t11 -31t7 -18q0 -8 -1 -17q18 -15 56 -24q-95 -21 -95 -29q54 -13 100 -17q23 9 29 8q54 -13 55 -13q19 -6 39 -33q22 11 29 13t38 2l47 1l27 -57l22 13l59 20l27 19q51 15 63 22t37 36l6 25q6 -1 13 -1zM940 592l3 -44q0 -6 -7 -14h-9
q-12 0 -12 -15t31 -35l2 -10v-178l2 -10q0 -8 -22 -8q0 -22 14 -40h6l3 -2q-3 -13 -3 -20t13 -41q-13 -36 -13 -51l9 -109q0 -3 -5 -32v-200l-2 -2q-20 -3 -20 -23t18 -35q-2 -17 -2 -27t13 -61q-6 -35 -6 -70t16 -139q-9 -52 -9 -58t7 -36t7 -58t-11 -44q-11 -18 -48 -29
t-54 -19t-25 -8.5t-26 11.5q2 13 3 51l22 41l4 34l-7 37l4 73q22 22 22 33t-23 27v120q1 16 12 32l-11 51l36 23q-2 11 -16 33t-14 32t-2 111l-1 37q2 16 21 40q-19 21 -29 57q42 3 55 15t13 17q-1 26 -37 26q-36 1 -66 -13t-31.5 -14.5t-45.5 -8.5l-20 -5l-35 5l-12 -6
q-26 -23 -38.5 -28.5t-31.5 -5.5t-111 5l-42 2l-42 6l-26 1l-80 37q-79 6 -109 60q-12 22 -13 26l5 18q5 18 2 28l-22 -11q-23 24 -23 28q-13 54 -17 72l38 31q-39 4 -39 26q1 38 7 62t59 105l32 2q-1 27 3 35t37 44l28 27l12 13q38 26 58 46t43 24q24 28 33 30l64 13
q5 1 26 17t31 15l52 -3h39q7 -1 26 -13q21 2 49 2q41 0 72 -27q23 3 42 25q10 -3 18 -3t113 39q7 -26 7 -31z" />
    <glyph glyph-name="r" unicode="r" horiz-adv-x="693" 
d="M178 180q0 10 -15 28v25q0 9 -6 47q3 33 3 56q37 13 37 32q0 6 -3 16q-12 -3 -20 -3t-17 8v100q0 8 -1 18v16q0 16 13 43q-13 10 -15 16t-4 68q-1 12 -22 38q6 18 18 31t53 33q43 27 55 27t21 -13l12 -48q-3 -10 -3 -18t11 -20q20 6 54 25l42 14l42 28l27 11q22 11 24 11
l22 -4h3q5 -1 40 11t55 12t24 -3t24 -22l12 -3l36 15q14 -1 30 -15t23 -43q-15 -15 -60 -47q-22 -28 -35 -28t-39 32q-18 -2 -30 -2l-92 24q-9 -20 -35 -22t-33 -4l-40 -12q-4 0 -16 7q-20 -18 -70 -54q-32 -23 -31 -81v-35q1 -17 1 -29t-23 -34q17 -18 17 -28t-2 -20l15 -4
l3 -30l5 -179l-4 -11l-26 -14q-56 -11 -56 -15t63 -13l17 4q10 -32 10 -50t-16 -27t-58 -14q-8 -1 -28 -15t-29 -14q-24 0 -24 21l17 69q0 2 -2 25t1 37l24 7q1 9 1 19z" />
    <glyph glyph-name="s" unicode="s" horiz-adv-x="914" 
d="M266 564q0 -22 54 -44q19 -9 39 -22q-1 -8 -1 -13q0 -21 16 -21t37 26q23 -3 34 -3t62 9l32 -3q43 6 49 6t50 -14l36 4l36 -25q58 -27 76 -49t21 -34l7 -33q14 -60 14 -68t-4 -36q-5 -64 -37 -64q-10 0 -23 3q-12 -50 -20 -57q-45 -52 -58 -70q-51 -7 -75 -25t-27 -19
t-25 -3l-81 -22q-40 7 -45 7t-59 -16l-24 3q-48 3 -86 12t-41 15l-32 21q-59 35 -81 61t-22 59q0 7 22 24l27 25q38 28 43 28t18 -12t13 -39l-4 -32v-1q-1 -10 4 -14t25 -15t37 -27q18 -16 19 -15l37 -15l34 -18h38l24 -5q37 11 65 12t42 8l39 19q32 10 44 20q11 10 43 62
t32 120q0 15 -24 51t-35 58l-26 -19q-39 11 -64 11t-63 -4q-11 23 -30 35l-19 -25q-21 -3 -41 -9t-26 -5q-6 0 -10 1l-38 8q-1 0 -3 -3l-19 20q-16 -7 -24 -7t-20 6q-13 6 -26 11q-77 27 -77 84t41 109q11 15 56 53l20 19l47 28q147 90 231 90q8 0 90 -21l52 9
q77 -5 76.5 -21t-6.5 -22q-6 -7 -53 -35t-53 -28q-65 0 -95 9q-10 21 -21 34h-6l-19 -20q-17 -1 -25 -1l-33 2q-2 0 -26 -6q-8 6 -30 6q-20 -15 -55 -34q-70 -38 -70 -94z" />
    <glyph glyph-name="t" unicode="t" horiz-adv-x="713" 
d="M236 265q-11 33 -12 221q24 15 24 26t-2 22l-29 7l-2 9v1q1 5 5 26t4 85q-42 9 -54 9t-58 -6l-21 -2q-28 -9 -30 -9q-14 0 -14 13q0 20 42 43q8 39 27 39h1l49 -3h2q56 8 64 9v24q0 167 -16 201l-10 21q-4 8 -4 20q0 11 30 39t88 39q13 27 28 27q6 0 15 -10t9 -22
t-9 -170q-11 -42 -15 -52t-23 -25q0 -20 6 -39h23l-6 -51q25 -1 67 -13q41 -12 65 -12t65 12l66 6q51 20 62 20t30 -3q-2 -27 -6 -41q-5 -14 -41 -36t-46 -34t-14 -15q-3 -2 -20 -2t-24 4l-41 22l-25 6l-30 22l-51 -39l-44 6q-5 0 -20 -10q8 -48 8 -72t-1 -56
q-37 -6 -37 -30q0 -9 4 -22q22 -2 37 -6l-2 -125q-15 4 -29 4q-14 1 -14 -13t9 -31q14 9 26 9t13 -19l-3 -40v-2q4 -75 15 -97l12 -21q2 -5 2 -13t-2 -22q31 -18 66 -18t64 15t31 17l55 50q41 34 50 34t25 -9q-3 -19 -7 -49t-11 -38t-61 -25q-41 -21 -124 -49l-34 -11
q-34 -19 -41 -19t-18 18l-18 5l-11 -25q-14 -2 -32 -2t-44 25q-25 25 -31 34t-15 38t-9 34l4 96q1 33 18 50z" />
    <glyph glyph-name="u" unicode="u" horiz-adv-x="1067" 
d="M771 538l-10 90q0 8 20 27q-3 12 -8 14l-13 5q-3 2 -3 16t3 29q3 14 5 32q17 -6 23 -6l99 34q17 -50 16 -65l-7 -113v-66q-8 -76 -13 -94l-20 7q-10 -22 -10 -30t1 -17l32 3q3 -18 3 -27l-1 -26v-57q0 -36 -9 -74q15 -15 17 -22t4 -41q2 -35 10 -47q9 -12 30 -22
q-6 -15 -16 -23q-5 -3 -54 -23q-46 -27 -56 -27t-20 14q-11 13 -11 33t1 38q-20 4 -30 4t-14 -2t-29 -25l-20 -9l-33 -19l-31 -11q-63 -31 -134 -34q-35 -10 -42 -10l-45 14q-9 0 -36 -14l-29 35l-2 1l-56 -15q-14 0 -48 19q-34 18 -52 50t-18 52t14 39l-22 10v114
q20 21 20 29t-15 37v69l-3 49q1 12 17 28v14l-25 -8q6 57 6 78t-1 35l-2 22q-1 28 -4 34l-11 28q2 10 25 18l82 28q20 13 28 13t14 -6t16 -40q0 -2 -8 -24q-8 -23 -8 -55t6 -67q-17 -58 -17 -79t23 -70l-30 -17q10 -43 10 -48t-5 -27t-5 -76q0 -8 13 -35l-3 -33l3 -39
q3 -52 36 -73q13 -8 75 -26t96 -18q35 0 49 14l41 39q4 5 25 14q17 -14 27 -14t16 1q10 22 14 26t31 19q4 4 37 54q30 25 32 29t14 34q10 30 11 46v2q-2 21 -2 29v2q0 6 8 35l-16 9l-6 14v145z" />
    <glyph glyph-name="v" unicode="v" horiz-adv-x="833" 
d="M458 157q16 0 24 25t44 83l9 22l16 29q18 48 28 71q26 4 34 18q-8 33 -8 45q1 12 23 55t22 56t-5 37q23 32 29 48t13 55q4 19 42 40q16 6 67 12l7 -7q-9 -19 -28 -72q-25 -43 -31 -66q-6 -24 -20 -46t-17 -30l-47 -127q-8 -23 -20 -39t-14 -18l-8 -27l-11 -20
q-52 -95 -65 -119l-26 -64q-2 -5 -26 -18l13 -35q-21 -13 -41 -23t-41 -26q-21 -18 -23 -19t-16 -2q-10 9 -14 28t-8 33q-20 15 -23 22l-10 30l-50 101l-12 21q-2 6 -3 28q-2 22 -6 29q-4 8 -28 14v5q14 12 14 28t-17 28t-41 12q-8 30 -20 54t-11 37l8 37q-18 14 -35 26
t-45 66t-47 81q13 21 16.5 24t33.5 18t35 22l13 15q36 0 42 -10t34 -82l1 -26l11 -35q5 -23 9 -29t26 -13q9 -33 20 -56t11 -39t6 -29q17 -12 19 -17l13 -34l14 -20q16 -36 33 -59l-10 -33q23 -12 29 -18t17 -26l24 -37q10 -25 15 -29t12 -5z" />
    <glyph glyph-name="w" unicode="w" horiz-adv-x="1251" 
d="M667 778.5q11 -0.5 26 -10.5t16 -10q1 -2 15 -68t14 -67t-6 -13t-7 -20q0 -20 34 -39l77 -205q48 -121 54 -131t23 -26l31 37q-8 20 -8 32t14 39q14 28 24 72l26 60l2 23l22 73l4 59l11 61q7 74 11 80q16 23 46 41t43 18q14 0 24 -9q-3 -53 -7 -69t-24 -85l-4 -24
l-15 -38q-8 -33 -12 -40t-23 -20q3 -20 3 -40t-30 -88l-43 -137l-17 -41l-5 -56q-4 -35 -6 -41t-65 -54q-10 -7 -32 -38q-3 -1 -7 -1q-4 1 -20 17t-33 27q-4 38 -8 45t-23 25l16 22q-11 20 -17 24l-25 14q-19 11 -22 36q-4 24 -16 54t-24 50q-13 21 -13 27t2 15l23 -3l5 6
q-5 26 -15 36t-39 21q-9 21 -17 39t-22 43q-12 -19 -20 -47t-24 -81l-21 -50l-3 -24l-50 -131l-9 -46l-11 -33q-8 -37 -12 -41t-28 -15l-22 -14q-33 -8 -60 -25l-28 56t-19 44l-15 64l-11 30l-8 27l-22 27q-17 36 -32 54q9 36 9 52t-7 31q-25 3 -31 9t-24 47l-17 20
q-7 8 -11 32t-9 30l-24 25l-70 152q-2 5 -2 9q0 43 69 57q27 30 46 30t28 -14t48 -160l-20 -42q0 -24 23 -24q9 0 42 9l24 -43q-9 -34 -9 -40t17 -49q9 -37 11 -41t19 -21q4 -6 23 -55l7 -28l21 -62q34 -38 40 -38t14 22t16 37q8 16 9 17l6 53l22 48q7 42 23 73t16 32v24
l5 30q5 38 9 46t32 19q-3 15 -28 41q4 26 4 45l-10 57q0 6 2 11q1 1 20 11l21 14q59 17 70 16.5z" />
    <glyph glyph-name="x" unicode="x" horiz-adv-x="885" 
d="M766 -17q-10 0 -21 13l-113 125l-33 69l-24 -4q-33 29 -53 53q-20 23 -36 33t-31 20q-3 27 -24 55h-17q-8 -10 -12 -25t-6.5 -17.5t-37.5 -31.5q-49 -67 -90 -90q-29 -23 -49 -70q-31 -47 -47 -65t-50 -38l-7 -23q-10 -9 -20 -9q-53 0 -53 38q0 14 36 56t78 72
q41 30 42.5 32.5t58.5 76.5q19 17 29 26t30 32t34 37t14 25t-24 33t-33 34l6 36q-14 0 -23 2q-8 2 -36 28q-28 28 -66 52q-6 42 -6 46t-8 11l-33 -5q-19 20 -49 46t-39 39q24 29 60 55q14 8 80 25q9 -21 13 -25l29 -31l52 -67q15 -36 24 -44t31 -9q13 -17 37 -40
q43 -49 43 -57t-4 -23q15 -19 35 -22q27 29 45 58q52 0 52 39q0 8 -1 19l62 64v11q1 14 17 34t26 39q10 18 14 23.5t36 28.5t48 23q23 0 23 -22q-1 -11 -5 -20t-45 -60l-28 -44l-39 -39l-39 -54l-27 -25l-25 -28q-81 -75 -79 -103l35 -3l17 -24h19q97 -108 156 -145l-5 -30
q18 0 36 -17l16 6q37 -39 68 -61q32 -23 38 -31t14 -30q-28 -35 -52 -48t-40 -24q-14 -11 -24 -11z" />
    <glyph glyph-name="y" unicode="y" horiz-adv-x="1035" 
d="M314 -723q-9 0 -64 12q-90 0 -158 60l-29 2q-8 22 -13 27t-36 20t-31 46q0 32 12 66t35 33h8q10 -19 28 -61l28 -38q36 -57 45 -66q27 -3 34 -6l72 -27q6 -2 22 -2t32 1q16 -12 24 -12t24 13q15 -3 24 -3t84 23l37 23q56 32 62 38t40 45q9 10 40 26q33 21 53 83
q21 62 25 70t26 29q-5 37 -5 43l22 118q0 2 -5 35l27 111q0 7 -9 47t-9 95q1 55 7 69t6 25t-8 11t-53 -27l-24 -25l-58 -41l-31 -17l-43 -41l-19 -12q-76 -52 -83 -55.5t-56 -10.5q-33 -10 -75 -15q-22 1 -78 21t-86 64q-2 1 -14 31q-12 29 -12 41t25 30q-22 26 -22 56
t39 89l-8 29v2l3 28q4 40 27 127v37q19 76 19 82t-8 20h-24l-8 9v10q16 14 30 34l58 20q78 48 87 48q9 1 19 -11t10 -20t-14 -38q-14 -29 -21 -83l-28 -103q-4 -49 -11 -60t-35 -12q-13 -18 -13 -28t36 -17q-5 -19 -6 -50l-13 -64q-1 -25 -7 -59t-6 -38q1 -6 17 -34t20 -32
t57 -28q19 -27 33 -27t33 21q51 6 69 16t111 79l57 54l51 33l44 86q3 5 16 20l-7 46q0 2 7 16l-4 29l2 24l-12 33l4 71l-6 24l-8 37q-25 45 -25 48q0 21 39 23l28 27h8l68 10q18 -29 18 -30l-88 -38l68 -22q18 -9 18 -23q0 -23 -71 -80q1 -8 55 -30q21 -21 23 -32t2 -25
l6 -59q-14 -35 -14 -55t27 -47q-6 -35 -6 -55l5 -51v-1q0 -2 -14 -52q-15 -29 -15 -53l21 -17q-8 -39 -8 -57l5 -50q0 -2 -11 -31v-22l-3 -29l5 -40l-13 -34l-7 -38q-16 -27 -16 -35l4 -36q0 -6 -12 -26t-25 -61q-3 -8 -29 -25q-3 -3 -28 -37l-17 -24l-16 -18
q-47 -69 -61 -83t-46 -33l-21 -24l-28 -18l-15 -12l-35 -10l-25 -14l-89 -33l-32 -8q-52 -15 -61 -15z" />
    <glyph glyph-name="z" unicode="z" horiz-adv-x="799" 
d="M22 32v4l12 11l92 128q15 21 41 44q27 23 34 32t18 32q12 -2 20 -2q16 0 39 36l-8 23q20 23 32 36q38 41 82 106l23 3q9 7 14 28t9 27t42 51q38 67 54 89q-20 30 -36 43t-18 12l-116 -41l-70 37l-43 8l-25 12l-32 -18l-69 -9q-13 -4 -37 -34q-11 11 -11 20t26 28t58 58
l54 -6q6 0 23 7q22 -64 48 -64q9 0 13 8l23 38l27 -4l27 3l19 -3l27 -3l38 -15l56 3l39 8l32 -3l32 6q35 1 51 5t36 6q18 -18 18 -29t-30 -51q-46 -55 -59 -75l-38 -3q0 -21 -3.5 -26.5t-27.5 -33.5t-37 -47l-27 -10v-8q-1 -21 -3.5 -25t-32.5 -33q-35 -47 -38 -51
q-9 -8 -29 -21v-23q0 -3 -38 -54q-38 -52 -50 -60t-38 -8q-11 -20 -11 -28t4 -22q-19 -27 -40 -66q26 -3 68 -6t73 -17q20 13 23 13l103 3l125 8q4 1 26 -7t63 -12l5 5l2 20q52 14 83 18q4 -15 4 -23t-12 -26t-19 -32h-12q-13 -33 -20 -36t-30.5 -7t-29.5 -4t-54 14l-98 -1
l-62 21l-32 -6l-41 -5q-21 -3 -26 -3t-53 6q-39 -14 -73 -15h-63q-10 0 -55 -2h-30l-36 -2q-9 0 -17 8t-8 12z" />
    <glyph glyph-name="braceleft" unicode="{" horiz-adv-x="833" 
d="M391 1234q0 23 -60 45q5 9 23 12l-6 20q-16 6 -16 15l1 31v41q8 58 12 68l-6 6l6 40l11 3q6 41 8 49t23 28l10 17l33 20q20 12 23 13t45 8t57 7q13 -1 33 -21t20 -40t-9 -28t-89 -37q-5 -3 -16 -26l-35 -47l-5 -29q-2 -8 -19 -23q13 -24 13 -42l-6 -101l5 -40
q0 -6 -2 -43q-44 -7 -67 -18q71 -43 71 -53t-61 -39l50 -26q10 -5 10 -13t-13 -41q13 -18 13 -28t2 -53l-10 -29l1 -37l1 -24q0 -3 -7 -45q-18 -52 -23 -60q-32 -30 -34.5 -33.5t-7.5 -23.5q28 -11 32 -17t16 -32l11 -19l7 -26q12 -39 13 -54t1 -69l-21 -21q13 -15 28 -45
l-54 -52l54 -49l-5 -32l4 -30l-55 -22l63 -37l-5 -37l8 -46l-2 -35q-4 -52 -4 -57t11 -46l4 -31q17 -65 25 -71h12l16 -16q21 -5 46 -23t33 -34t8 -36q0 -21 -24 -36q-17 5 -22 5l-42 -2l-26 10q-72 19 -88 45q-4 8 -7 33l-5 5l-19 4q-7 23 -15 59l-8 29q0 28 -6 44t-7 34
q0 20 10 40q-17 14 -17 23l9 55q0 5 -8 47q12 41 12 47t-8 45l3 44q0 35 1 39.5t13 23.5q-14 16 -15 24l9 44q0 6 -8 43l-5 66q0 8 7 30q-20 12 -23 19l-12 23q-6 10 -73 53q-3 2 -8 26.5t-5 47.5q0 24 12 36t28 20t19 12q20 33 41 50v40l23 23l-21 49l10 66q0 5 -6 39v39
l-3 20l6 38q0 5 -9 23q0 19 31 49t31 40z" />
    <glyph glyph-name="bar" unicode="|" 
d="M655 1600l-14 -81q0 -19 21 -59l-26 -49l9 -47q0 -5 -12 -20q17 -25 17 -30t-9 -40q8 -9 16 -28q-28 -20 -26 -32l5 -34l1 -34q1 -8 16 -28l-22 -34q12 -22 20 -34t10 -21q-84 -30 -84 -54q0 -11 50 -45l-8 -3l-47 -8l79 -52l-5 -53q0 -7 9 -24l-22 -26l8 -50l-14 -50
q20 -20 25 -60l-28 -16l24 -74q-39 -8 -56 -20t-17 -21q0 -21 87 -58q-14 -21 -28 -39t-14 -32t34 -34q6 -17 6 -32t-33 -53l29 -49l-26 -32l29 -44l-8 -31v-47q2 -13 -20 -67l28 -15l-24 -83l29 -16l-38 -74q22 -33 22 -59t-21 -55q36 -34 36 -45q0 -34 -36 -34
q-12 0 -30 14q-17 14 -21 13t-12 -7t-30 -13l8 46l-19 63q0 17 23 46q-17 41 -17 49t13 32l-21 32q18 23 18 32l-2 38q14 41 14 45q0 24 -34 42l27 55q-30 37 -30 63t31 45q-25 31 -25 50l22 73q0 12 -19 38q3 14 11 26t8 18q0 4 -8 22t-8 100l8 41q8 41 -7 90v1q0 2 9 24
t9 34t-21 38q28 25 35 36l24 39l14 21l-78 48q19 40 19 43l-10 54q0 3 1 8l8 46q0 1 -6 13t-6 20v1l28 56l-36 23l25 49q-23 31 -22 41l4 29l4 95q7 30 7 33l-2 39v17q-1 33 -17 61l29 41q-29 35 -29 47t13 59q40 -9 55 -9l45 4q15 0 19 -15q7 -19 7 -23z" />
    <glyph glyph-name="braceright" unicode="}" horiz-adv-x="836" 
d="M263 -314l-31 58q23 42 65 51l20 15q52 29 61 39.5t9 20.5t-4 24q14 20 14 30t-4 62l3 42l-6 27v79l-6 54q13 46 13 48t-11 30l65 56l-41 26q-20 96 -20 97l13 46q0 1 -6 26q-5 25 -5 45t8 32q8 10 38 36l16 25q14 13 14 17t-14 20q-71 79 -71 114q0 5 11 45
q-10 28 -10 30l7 52l-9 95v1q0 11 29 29t29 30q0 10 -60 18l21 21q-20 25 -20 35t5 14l53 41q4 5 4 9t-62 36l6 41q-17 48 -17 57t1 21h26q2 9 2 15t-10 17l-20 3q-5 24 -9 46t-11 42l-21 4l-15 25q-21 2 -37 18q-32 -1 -44 11t-13 38l2 27q13 12 20 31q25 -2 57 -4t51 -10
l27 -14q30 -10 38 -16t32 -44q25 -38 25 -56l4 -36l11 -28l2 -82q10 -42 10 -49t-7 -45q-11 -10 -15 -25l20 -14v-39q1 -12 1 -24t-19 -33q15 -27 15 -49l-1 -39v-167l-6 -25q16 -15 20 -20t7 -32q11 -9 21 -25t30 -26q42 -20 42 -87q0 -27 -7 -37t-35 -38q-28 -26 -48 -41
q-26 -43 -48 -70t-22 -31t54 -36q6 -4 6 -17l-6 -63l2 -10l-5 -65l18 -38l-5 -38q-2 -13 -2 -48l5 -66q0 -1 -6 -31l3 -46l-6 -39l4 -45l-10 -30l2 -32q0 -5 -5 -19t-10 -33l-26 -8v-34q-22 -19 -32 -34q-14 -6 -26 -14t-19 -8t-23 17q-3 -7 -4 -9q-8 -20 -30 -20l-29 5
q-2 0 -33 -5z" />
    <glyph glyph-name="asciitilde" unicode="~" 
d="M446 724q22 0 36 -27q22 10 33 17t19 7t46 -51l39 10q34 -37 51 -37t63 9l14 -41l76 15q21 -14 26 -13l52 7q42 1 52 4l9 37l44 -4q13 21 24 46t30 41.5t27 16.5t41 -31q-22 -23 -28 -37t-9 -42q-57 -37 -66 -50q-10 -14 -28 -51l-40 10l-26 -29q-9 1 -23 1t-35 -22
q-23 -22 -31 -23q-8 0 -36 20q-7 -7 -8 -7l-74 4q-1 0 -8 -11l-17 28l-59 -18q-10 26 -25 86q-3 13 -28 31t-42 31l-30 -74q-5 -12 -15 -12q-10 1 -32 15t-63 21q-42 7 -74 19q-36 -24 -49 -24t-34 10q-17 -30 -21 -32t-43 -15q-16 -6 -24 -34t-15 -44l-34 14
q-19 -29 -33 -29t-34 11v9l59 32v45l40 6l-17 26l24 16q17 13 34 27l39 20q11 5 32 42l52 -2l17 38l70 -31q30 19 52 19z" />
    <glyph glyph-name="nonbreakingspace" unicode="&#xa0;" horiz-adv-x="437" 
 />
    <glyph glyph-name="exclamdown" unicode="&#xa1;" horiz-adv-x="437" 
d="M264 -157l13 -63l-4 -19q0 -5 4 -14q34 -27 34 -59t-55 -70q-16 -10 -48 -16t-53 -14q-7 16 -7 48t17 65q-10 16 -10 24t13 25q-15 71 -15 81l4 54l-1 25q0 8 12 24q-7 35 -7 44v1l3 25v32l2 22l2 42q9 30 9 48t-17 33q2 21 2 48t13 52q-15 25 -18 37l-11 69l-1 4
q16 19 25 41t34 42q6 -6 7 -6l56 3q33 -19 35 -26v-1q1 -2 -9 -16q-9 -14 -11 -18t-16 -19l-3 -31q-10 -77 -10 -97h-22q-9 -17 -9 -25t4 -20l30 4q4 -17 4 -26l-1 -38v-26q0 -8 -15 -45l15 -39l-2 -11q3 -85 3 -93t8 -16v-16h-34q1 -23 37 -31q-7 -22 -7 -38zM206 874
q15 -15 39 -45l29 -27q4 0 22 -35q27 -1 36 -10q-13 -19 -17 -22l-46 -28l-28 -25q-5 -5 -25 -12q-22 19 -84 62q-19 13 -26 47l13 20l13 23z" />
    <glyph glyph-name="cent" unicode="&#xa2;" 
d="M567 158q24 0 39 3q2 21 4 47t2 30v5q0 9 8 24q-8 14 -8 17l-2 32v6q9 27 9 31l-10 50q0 4 3 31l1 30l2 32v28l1 23l-1 32l4 30q-5 25 -5 29v9q-80 -9 -93 -16t-32 -31l-27 -8l-14 -29l-25 -4q-3 -21 -17 -38t-14 -18l-21 -105l13 -54l-13 -35l1 -4q20 -7 30 -17t34 -59
h16q15 -22 22 -25l33 -17q36 -29 60 -29zM820 725l57 9q5 0 17 -15l-19 -28l-25 -8l-6 -22q-46 -23 -53 -25h-1q-9 23 -18 45q-16 -34 -20 -40t-18 -6t-23 11l-33 41l-15 -44q5 -12 5 -14l-3 -67q-1 -29 -14 -55l12 -7q-4 -12 -4 -19l9 -37q0 -1 -10 -34l7 -19l1 -42
q5 -27 5 -29t-10 -35q10 -28 10 -32l-1 -23l-3 -41l-6 -24v-1l7 -14q22 4 58 16l21 3l45 25q27 6 31 7q2 1 14 15l67 48q10 -10 9 -12l-8 -25q-5 -27 -17 -41q-20 -25 -119 -70q-20 4 -41 4q-20 0 -44 -14t-23 -26l2 -28v-38l3 -47q-1 -12 -15 -23t-26 -11t-33 17q1 26 1 49
t6 45t6 27q0 6 -9 24q-22 0 -32 -2l-40 13l-34 4l-22 7l-27 5l-24 6q-31 8 -36 10t-47 53l9 18q-7 2 -13 2t-21 -7q-8 27 -29 58q-2 3 -2 24t8 48l-21 15q1 9 14 36q2 24 4 33t2 14v2l-5 15q17 20 65 98l35 30l22 22l35 28q45 42 96 63q23 18 43 24t36 11q-4 45 -4 67t-1 24
t-16 20q17 29 33 30q9 2 15 3l1 -1l26 3q5 -7 5 -8l-7 -115l6 -8l35 -14l44 10z" />
    <glyph glyph-name="sterling" unicode="&#xa3;" 
d="M1230 40l-46 6q-23 0 -39 -34l-6 -3l-118 42q-31 -44 -35 -44q-4 -1 -26 23q-20 24 -21 24t-28 -44q-15 5 -54 7l-113 14l-30 2q-16 4 -20 4l-11 -1h-125l-42 -2q-16 0 -44 9t-33 9q-4 0 -19 -16q-2 -16 -18 -16q-3 0 -32 3h-22l-42 6l-32 -13h-69q-35 -6 -38 -6
q-24 0 -24 17q0 5 38 31l27 25l35 15l18 11q28 15 49 28q7 24 30 64q16 46 27 69q23 2 34 5q1 26 10 42l-33 9q1 26 7 101l-1 29v20q0 11 2 38l-25 4v4q-9 8 -63 15h-34l-49 5q-65 6 -81 10t-48 15v6q22 11 50 29t40 22q14 4 32 19q38 -15 52 -15l43 -7l25 -11q2 -1 8 -1
t8 12q-26 23 -44 70t-17 57q0 10 1 19l-13 6l-7 42l26 16v7h-19l-4 29l24 17q0 41 6 62q14 45 38 45l23 -3q9 0 16 13l-14 14q43 38 79 59l31 23l41 14l20 10l17 7q8 7 18 7h16q19 0 40 7t68 15q6 -1 43 -19t41 -26t9 -14q-15 -16 -29 -24t-31 -26l-24 -4q-39 -11 -49 -12
l-30 24l-44 2l-39 5q-22 0 -55 -32q-40 -29 -53 -51t-17 -49t-6 -47q-3 -20 -3 -25l12 -51l-4 -27q0 -3 2 -10q13 -15 27 -27t15 -12l36 -102q5 -12 49 -34q67 -14 73 -14t19 1q13 -34 28 -34q20 0 25 28q25 1 71 10l86 4l45 24q28 17 35 17q17 0 17 -16t-22 -32l-8 -29
q-23 -13 -65 -33t-52 -20h-2q-40 7 -41 7l-69 -6l-35 10q-53 3 -76 9t-39 6t-15 -18q0 -8 5 -27l-11 -20q0 -1 2 -21q12 -24 12 -30t-10 -43q-21 -6 -32 -16q16 -31 16 -41q0 -43 -55 -101q-23 -25 -23 -35t4 -22q10 -7 25 -9t37 -8q21 -64 30 -64q2 -1 12 21t15 22t19 -4
t65 -2t79 -11q27 -13 62 -13t38 7q15 -1 20 -1h9l82 -6q6 0 49 7l66 -3l54 5q34 -47 36 -47q11 0 21 16t15 44q26 1 30 2q5 0 45 16t61 22q-1 -9 -1 -15l4 -35q0 -14 -26 -36t-40 -22z" />
    <glyph glyph-name="currency" unicode="&#xa4;" 
d="M301 785q0 -44 -51 -117q2 -11 2 -19q0 -15 -39 -34q11 -21 23 -29t16 -18l-34 -30v-8l9 -9l18 10q11 -36 16 -50q5 -15 29 -53t24 -44t-11 -28q5 -15 17 -15l30 10q10 -1 52 -25t66 -30q25 -6 103 -8l67 -11q4 0 28 6q24 7 46 9t30 6t58 41q46 18 52 24t31 51l28 55
l22 22q6 6 10 28q-15 23 -15 29t2 18q2 10 4 34q1 24 11 47q-9 19 -20 60l-15 52q-3 10 -3 40l-5 5l-23 -3q-11 21 -37 55t-30 36q-2 2 -25 13l-21 8q-6 3 -25 11l-15 30q-12 4 -18 4t-34 -8q-32 8 -67 8t-58 -12t-28 -11q-5 0 -20 13q-17 -25 -24 -28l-47 -25
q-109 -96 -129 -110zM549 1002l115 11q32 0 83 -8l4 -21q12 -4 18 -8t9 -4q11 0 19 24l74 -20l65 66q28 -5 63 -23q33 -8 56 -23q-13 -24 -33 -30t-20 -7q-1 -1 -16 -22q-5 -3 -44 -28q17 -29 30 -35t43 -8q41 -50 54 -195h-16v-16q-17 -15 -20 -26l27 -26q-2 -59 -20 -94
q-28 -70 -41 -96t-79 -81v-4q18 -12 36 -30t29 -18t29 5q1 -11 1 -23t-12 -40t-12 -30t3 -11l-22 -31h-6q-24 35 -119 130l-4 16q-21 -10 -58 -30t-52 -22t-93 -4q-77 -18 -89 -18h-17q-31 2 -32 2t-29 -4q-86 13 -111 13q-20 21 -38 24t-36 9q-13 -17 -24 -28t-11 -22
t2 -24q-7 -5 -23 -5t-59 27l-15 -6l-38 27l85 76q-19 15 -29 35t-17 25l-16 9q-24 60 -24 77t21 33q-13 18 -30 24v2l-2 10q0 113 53 199l36 64q41 23 45 31t7 19t16 22v20l-4 4h-22l-77 80q6 26 22 60q11 39 16 45t19 13q20 -26 29 -60q18 -10 22 -14l15 -23l17 -22l9 -20
q3 -7 23 -16l13 -20q20 10 58 42q5 4 144 52z" />
    <glyph glyph-name="yen" unicode="&#xa5;" 
d="M529 673l9 -13q26 -14 52 -42l19 -19q5 -6 13 -33q35 24 41.5 29.5t18.5 21.5t14 23t18 28l-13 3zM252 666l-62 -7l-22 -27q-16 22 -18 28t-14 44q-11 10 -12 22t-3 29l117 -7h3l14 1l4 3q14 -14 40 -14l4 13l40 -2q-27 33 -46 85q-15 6 -21 10t-32 43q-19 16 -19 26
t1 20q-22 6 -22 9q0 14 -64 81q15 23 15 39l-7 7l-31 -12l-29 40q0 8 39 31q5 16 29 30t38 15q14 0 14 -10t-7 -30q14 -8 24 -26t25 -36l-5 -29q42 -16 42 -45l-8 -34h32q12 -19 34 -46q38 -58 55 -77q-5 -16 -5 -24t3 -22l32 6q10 -30 24 -36t20 -16h50t40 -18l3 3l20 4
l3 13q9 -4 10 -4l132 6l7 -2l15 -22h12q12 26 32 54t32 48q10 21 37 60l14 32l29 45q4 27 8 35t28 38q28 70 36 78t38 20l5 -5l52 25q9 -12 11 -30q-12 -6 -16 -10t-41 -57l-27 -29l-11 -23q-61 -94 -73 -111t-41 -38l6 -33q-29 -13 -33 -20t-7 -21t-10 -36q21 1 41 1
t45 -11q21 12 23 12q11 0 28 -27q18 -27 28 -27t21 52q14 -26 21 -60q13 -28 16 -51l-11 -10q-17 3 -37 20q-15 -6 -19 -6t-67 20q-10 -10 -21 -10l-29 2h-38q-2 -1 -6 -1t-50 23l-29 -35q-26 -2 -26 -20q0 -8 3 -19q-31 -30 -49 -65q8 4 12 4l25 -5q9 0 23 3l15 -23h11
l19 23h119l15 -12q11 8 16 13l73 -54l14 52q14 -26 22 -64l16 -45q0 -3 -6 -13q-25 5 -42 22q-16 -7 -23 -7l-66 18q-13 -7 -21 -7l-27 1l-38 -1q-6 0 -71 26q-45 -12 -53 -12t-34 6q-4 -13 -4 -20t5 -21q-19 -17 -26 -37q17 -12 24 -24l1 -1l-52 -56l53 -43q-9 -56 -9 -67
t3 -36q11 -10 10 -18l-2 -22q2 -65 2 -92l-22 3q-16 -15 -22 -17l-37 -14q-2 1 -14 -8t-23 -10q-3 6 -3 7l3 19l-2 25l8 69l2 39q2 12 18 41h10l13 19l-32 5l-4 4l52 47l-53 53q0 2 16 7h-10l-3 -4q-4 6 -4 7l49 106l-48 4q0 22 -5 35q-7 -9 -9 -10l-46 13q-7 2 -13 2h-14
l-9 -13q-46 5 -61 5l-73 -5q-11 0 -38 22h-13l-4 -3v-25q-35 50 -38 50q-2 0 -30 -42q-6 -10 -18 -10t-19 1l-19 -28q-18 25 -20 30t-13 44q-13 13 -13 24t1 27q18 -3 82 -4l37 -3q4 0 15 3q14 -10 42 -13l4 13q60 -7 78 -14l11 11q28 0 68 -16l12 15l48 -4l-2 2q4 30 4 36
t-42 8q-7 1 -15 19q-25 35 -32 53q-19 3 -29 21q-56 -6 -61 -6t-42 25l-9 -9v-23q-34 7 -40 7z" />
    <glyph glyph-name="brokenbar" unicode="&#xa6;" 
d="M530 385l78 -13q4 0 33 5l7 -7v-5l-18 -21q30 -17 29 -29l-5 -41q-2 -27 -4 -32t-15 -26l23 -48q-21 -27 -21 -41l19 -86q0 -15 -25 -39q19 -48 19 -49q0 -2 -10 -35l15 -33l-18 -32l5 -38q-15 -49 -15 -55t34 -36l-24 -48q-1 -6 11 -21t12 -29t-7 -50l-43 27
q-29 -23 -44 -23t-33 4l11 29q0 10 -22 43l24 37q-11 21 -13 29t-4 60l-3 37q65 61 65 69q0 16 -66 66q24 30 24 48t-24 46q12 34 25 100l-31 43q15 24 15 42l-3 71q1 31 9 42t30 19zM609 827l-62 -8q-16 25 -16 43t21 41q-16 39 -23 64q19 24 19 42t-34 58q0 3 22 28t22 33
t-3 18q-39 32 -39 53t35 59l-29 49l26 32l-30 45q6 23 8 58t21 86l-27 20l20 60l-11 28q0 3 4 10l37 -11h69q5 1 12 -11t7 -23l-15 -84q0 -8 18 -56l-22 -48l8 -38l-10 -32l14 -35l-7 -42q0 -7 16 -24q-19 -20 -19 -32l1 -34l-2 -29q0 -11 18 -35q-24 -24 -24 -32t30 -56
q-28 -21 -30 -31t-4 -56l-1 -26q1 -13 13 -28t12 -24t-4 -23t-5 -33q-31 24 -36 24z" />
    <glyph glyph-name="section" unicode="&#xa7;" 
d="M500 899q-4 0 -15 -7l-21 15l-3 -20q-25 -9 -39 -13t-31 -23l-27 -9q-50 -26 -70 -30q-10 -17 -32 -27q-22 -9 -36 -41q-15 -32 -15 -65q1 -33 5 -47t24 -36t28 -27q8 -6 62 -30q6 -7 31 -46l34 7q21 -16 29 -17l31 -7l20 -5q49 -2 73 -9q10 -24 23 -32t43 -8h33
q3 0 29 -3l18 1h12q15 0 31 -24q13 -2 19 -2t21 2l3 -3l14 12q49 -12 69 -12q15 11 21 31t28 63q3 6 3 40l74 35l-57 24l51 27l-51 25q7 36 8 44v2q0 8 -1 14v8q0 6 2 19q-21 3 -27 8t-18 23l-16 24q-6 4 -14 18t-12 16t-55 17l-59 23l-19 -3q-26 11 -32 11l-48 -2
q-10 14 -17 18t-42 4q-35 1 -56 9q-22 8 -26 8zM113 -44q0 4 16 29l8 25l20 27q3 1 8 27h17q18 -19 18 -24l2 -61q0 -14 13 -45q17 -3 28 -10q6 -40 24 -59q43 -54 131 -81q56 -21 81 -34t70 -13l24 15q42 -13 49 -13q8 -1 36 7t47 24q23 0 28 2t14 13t23 19t30 20l-5 24
l9 10q24 4 28 10t13 32l21 29v33l10 17v32l15 28l7 32v1l-9 42l9 39q-14 48 -15 54q-27 27 -36 48q-48 55 -66 67t-58 17t-59 25q-10 -3 -23 -57q-16 46 -34 65l-66 -50q-25 16 -39 16t-27 -1l-13 19q-28 3 -78 17t-51 14l-33 22q-2 1 -30 10q-82 31 -116 90q-18 28 -28 62
l-1 35q-5 24 -5 30t9 19v15q0 40 25 74t36 48t41 38t40 30q105 45 131 55v9q-24 10 -86 42q-40 14 -82 40t-74 87q-10 19 -12 27t-1 44l-5 29l21 89q5 10 29 42t36 42t67 51q153 80 182 90q29 11 101 30q46 17 98 19t74 6q20 4 42 4t78 -14t89 -29q-1 -19 -21 -43t-30 -23
q-10 0 -55 12l-25 9h-16q-62 16 -75 16t-34 -4q-31 12 -34 12t-50 -10t-53 -14q-6 -2 -36 -17q-36 8 -41 8t-18 -4q-5 -23 -10 -25t-27 -10q-22 -6 -37 -24q-29 -4 -62 -35q-18 -1 -24 -7q-5 -6 -29 -25t-36 -43t-12 -70q0 -48 30 -76t33 -30l29 -11q29 -11 39 -34t18 -23
l28 1q14 -10 48 -18l34 -10l34 3q8 0 28 -12q7 -27 13 -31q6 -3 81 -7t90 -7v-33q23 13 31 13t17 -2q14 11 24 11q11 0 59 -18t58 -29q10 -12 13 -35q5 -5 18 -9l19 -16q44 -35 46 -38t2 -13t-6 -26q37 -14 37 -66l-7 -38q0 -13 3 -32q-21 -15 -21 -25l10 -51q0 -12 -8 -25
t-7 -29l-17 -17q-9 -11 -11 -49q-2 -8 -36 -52t-34 -52t43 -47l7 -16l15 -17q21 -44 23 -67l6 -37l-9 -34l2 -42l-6 -30l-4 -24l-10 -28v-26l-11 -30q-7 -41 -13 -52t-30 -40l-24 -7q0 -33 -7 -46t-73 -50q-4 -3 -14 -19t-18 -18q-6 -3 -65 -15l-33 -13q-12 -6 -66 -6
t-86 14q-13 -3 -24 -17q-18 5 -26 5h-15q-15 27 -23 27t-21 -17q-22 18 -50 27t-56 22l-3 17q-14 8 -20 18t-14 18l-5 -25q-13 2 -27 13l-8 -1l-20 14q-42 25 -49 33t-23 38l-21 29l-26 44q-12 17 -12 21z" />
    <glyph glyph-name="dieresis" unicode="&#xa8;" horiz-adv-x="836" 
d="M747 1032q0 -6 -18 -35.5t-78 -66.5q-34 37 -51 50q-18 14 -28 28t-15 16t-33 14q12 14 67 56q19 19 40 30q26 -19 71 -44t45 -48zM191 1125q7 1 23 -11t49 -26t43 -26t17 -36q-8 -12 -16 -29q-7 -17 -31 -35t-34 -36q-22 7 -26 10l-32 31q-39 30 -53 50q-13 3 -23 3
t-17 5q3 13 29 33t45 44t26 23z" />
    <glyph glyph-name="copyright" unicode="&#xa9;" horiz-adv-x="1435" 
d="M725 294l31 -1q4 -1 32 3t65 7l58 15l46 9q59 24 73 31t37 18h1l17 -9q-9 -35 -17 -45t-30 -12q-22 -4 -86 -18q-62 -14 -98 -17l-51 -11q-31 -2 -53 -6t-30 -3q-8 0 -36 7l-29 -6l-22 7q-93 13 -147 64q-39 26 -47 34q-59 68 -64 124q-12 46 -12 56q1 11 3 43t6 44
t21 58q15 46 29 56t16 23q16 16 43 50q63 46 104 70q115 55 207 55q40 0 106 -11t76 -13t31 -15q-1 -12 -15 -24t-22 -12q-6 1 -32 13q-56 28 -108 30h-63q-85 -16 -95 -22t-62 -34q-52 -30 -100 -89q-72 -91 -72 -196q0 -46 10 -71l23 -60q10 -30 20 -40q56 -45 99 -72
t137 -30zM156 585v-7q0 -142 76 -270t206 -201q130 -74 280 -74q150 1 281 75t205 202t74 278t-74 278t-205 203q-129 75 -281 75t-282 -74t-204 -206q-76 -130 -76 -279zM730 1199q158 0 299 -83t223 -224q82 -142 82 -304t-81 -303t-225 -224t-311 -83q-228 0 -400 146
q-216 184 -216 458t202 458q176 159 427 159z" />
    <glyph glyph-name="ordfeminine" unicode="&#xaa;" horiz-adv-x="673" 
d="M466 713v4l4 22q-28 -11 -62 -17t-65 -14t-68 -9l-44 -3l-30 6q-43 6 -57 14t-38 29q-24 22 -23 56q-1 3 13 27t16.5 26t53.5 39l53 21q52 27 115 36l25 5l45 3q77 8 74 17q-10 30 -10 37t3 20q-18 12 -55 44q-7 8 -46 9t-60 10q-16 -13 -61 -31q-44 -34 -57 -34t-64 33
v3q21 17 54 25q101 42 183 42q12 0 82 -14q40 -4 40 -24q0 -5 -1 -12l25 9q17 -22 21 -28t10 -37q18 -46 18 -68t-9 -45l15 -20q-5 -25 -5 -40l4 -45v-1q-4 -38 -3 -42t15 -15q-10 -18 -15 -22t-38 -17q-34 -13 -46 -14t-12 15zM456 536l-119 -4q-15 0 -48 1l-44 1
q-34 1 -42 1l-66 -6q-4 0 -35 5l-34 -5q-11 0 -11 17v41l2 3q27 -1 49 -1l20 1q21 1 46 -9l22 5l52 1l59 1q27 -10 28 -10l37 9h4l86 -5l54 4q59 3 85 7l7 -7v-55l-2 -3q-16 1 -28 1l-37 -3l-80 10h-5zM479 863q0 12 -8 47h-53q-7 0 -19 -1l-38 8l-38 -6q-66 -8 -122 -54
l-26 -22l14 -64q0 -1 -7 -4q12 4 28 -10q21 -3 57 -22l35 8h39l39 12q50 13 60 19t32 25q4 10 12 26l-7 8q2 18 2 30z" />
    <glyph glyph-name="guillemotleft" unicode="&#xab;" horiz-adv-x="912" 
d="M689 112q-7 0 -18 -2q-1 24 -19 52t-37 53q-29 33 -33 33t-12 -3q-26 25 -48 47t-35 28l-54 23q-6 3 -17 32l-30 -17l-8 7q14 28 24 37q38 25 115 76q97 51 119 97q23 30 31 51q29 12 58 30t40 17q11 0 34 -14l-2 -13q-21 -13 -26 -20l-15 -25q-22 -21 -34 -38
q-24 -5 -32 -9t-33 -28q-25 -22 -47 -37l-40 -27l5 -42l28 -6l-4 -43l36 -17q3 -27 9 -33t45 -29q35 -37 56 -48l9 -44l59 19q6 0 16 -2q-7 -38 -16 -54q-2 -2 -16 -12l-21 -20l-42 -13l-23 -11q-15 5 -22 5zM355 87q-13 75 -89 159l-25 -4q-18 28 -65 70q-56 24 -60 26
t-20 33l-32 -17l-5 5q20 38 29 44l114 75q58 31 76 47t32 26l4 21l9 3q9 15 17 31t14 18t46 22t52 20t33 -19q-23 -17 -35 -33t-34 -34q-5 -20 -8 -20q-28 -5 -44 -18q-18 -12 -30 -21t-31 -29q-34 -21 -52 -35q2 -37 6 -41l26 -6l-4 -39l36 -20q2 -20 15 -41q32 -15 40 -23
l33 -36q4 -4 25 -14q2 -24 8 -41l65 22q9 -11 9 -14q0 -4 -9 -26q-19 -47 -92 -67q-5 -1 -21 -11t-33 -13z" />
    <glyph glyph-name="logicalnot" unicode="&#xac;" 
d="M953 382l10 40q0 5 -16 24q1 9 12 34l-16 42l20 31l-29 -2h-42q-10 0 -34 -16l-32 25l-56 -31q-16 23 -21 23q-8 7 -42 9l-43 2q-5 0 -55 -23l-50 5q-7 0 -27 -10q-17 69 -34 69q-1 0 -42 -53q-1 -1 -4 -1l-38 13l-68 -25l-16 28l-74 -24q-26 19 -45 19t-53 -35
q-17 28 -32 60t-33 32t-50 -80h-4l-5 44q0 10 10 28t18 36q6 -4 10 -4t8 4l40 27l35 -9q49 0 61 -3t55 -17l15 27l84 -25l17 32q73 -39 75 -39q3 0 21 10t41 10t54 -17l33 29q19 -3 42 -5t25 -3l29 -16q3 -1 5 -1t43 20q44 -20 49 -20l81 19q18 0 41 -24l50 19l47 -13
q27 21 35 21h11q6 -7 6 -12t-7 -21q-7 -17 -7 -35t32 -39l-25 -54q29 -37 29 -63t-31 -47q25 -31 25 -45t-11 -41t-11 -36t18 -41q-6 -22 -21 -41q13 -27 14 -35l3 -57l3 -31q-11 -45 -13 -65q-22 0 -55 -11l-50 14q-6 0 -20 -14q12 29 12 37v56l1 37l-19 50q0 1 8 24t8 47
t-22 56l28 52q-11 23 -11 29z" />
    <glyph glyph-name="sfthyphen" unicode="&#xad;" horiz-adv-x="693" 
d="M140 333q-10 0 -24 2q-15 -13 -25 -13t-33 11q-17 -32 -33 -32q-9 0 -21 3q-4 8 -4 18t9 20t66 51l18 16l24 14q29 19 33 20t47 3l27 2q33 -12 53 -12q-2 -7 -2 -11t9 -13q8 -9 20 -9t20 7l3 15q19 3 37 12q19 -11 36 -12l46 -4l43 3l67 -14q27 0 49 10q21 10 29 10
t13 -5q24 35 45 35q-8 -33 -14 -45q-6 -13 -28 -33t-64 -50t-67 -29l-47 7l-71 -1l-20 11l-39 18l-32 26l-90 -44l-22 11q-10 7 -25 12q-23 -10 -33 -10z" />
    <glyph glyph-name="registered" unicode="&#xae;" horiz-adv-x="1435" 
d="M563 848l-1 -38q0 -1 4 -34q-6 -28 -6 -31l6 -24l-3 -75q51 0 76 12l102 51l40 16q69 50 77 57t9 18q0 59 -140 59h-45l-27 2l-30 -5q-43 -2 -62 -8zM495 754l2 51l-5 25q0 8 2 20l-20 13v15q11 7 16 7t10 -1q8 16 10 16l58 -4h50l22 2l93 -5l45 1q78 -7 98 -11t60 -32
q0 -20 2 -29q2 -10 2 -14t-18 -24t-37 -30q-18 -12 -26 -23l-26 -10l-25 -17l-40 -21q-33 -19 -58 -27q0 -26 14 -37t30 -31t30 -34q14 -16 28 -36t38 -48q24 -26 26 -36t7 -16q40 -16 68 -72q21 -6 33 -17t16 -10h2q23 2 31 2l7 -15q-15 -12 -53 -24q-39 -12 -45 -12t-16 6
q-2 2 -29 41q-19 21 -27 37t-28 37q-20 20 -43 55q-60 58 -74 80q-13 4 -14 5l-42 51q-9 11 -42 35q-22 -7 -36 -11t-27 -21q2 -15 2 -36l2 -54l1 -34v-18q0 -3 -5 -29l6 -98q0 -30 -38 -44t-42 -14q-5 0 -16 3v7l12 29l4 21l7 30q-8 44 -8 50t10 25l-2 33l7 34l-4 26l3 38
l-3 25v103q-5 62 -5 72zM156 585v-7q0 -142 76 -270t206 -200q130 -74 280 -74t281 75t205 203t74 276q0 150 -75 278t-205 204q-130 74 -280 74q-152 0 -282 -74t-205 -206q-75 -130 -75 -279zM729 1199q159 0 300 -83q141 -82 223 -224t82 -303t-82 -303t-224 -224
q-143 -82 -309 -83q-229 0 -401 146t-209 366q-8 47 -8 96q0 269 203 453q174 159 425 159z" />
    <glyph glyph-name="overscore" unicode="&#xaf;" 
d="M982 1966l36 7q6 0 29 -23q31 12 38 12t65 -12q-10 -33 -16 -51l-18 17q-6 10 -54 -79q-22 31 -38 61t-27 29q-11 0 -21 -24l-27 -61q-33 0 -40 5q-10 1 -37 27l-50 -31l-33 27l-43 -30q-26 6 -62 8t-87 20l-13 -28l-83 25l-17 -30l-74 40q-33 -22 -59 -22t-57 18
l-29 -28q-52 7 -63 6t-37 19l-51 -24q-18 18 -28 18t-28 -2q-19 -2 -36 -2l22 69l-17 42q28 -10 38 -10l49 2l46 -2l50 17q42 -14 66 -14t32 4l29 14h3q2 0 52 -72l31 57l35 -8l32 13q32 -8 37 -8t32 16q20 -23 31 -22h1l29 4l40 1q8 1 27 13q23 -21 30 -21t60 29
q26 -36 67 -36t102 25q32 -5 36 -5z" />
    <glyph glyph-name="degree" unicode="&#xb0;" horiz-adv-x="882" 
d="M486 1094q-24 0 -37 26q-47 -6 -83 -36t-40 -33q-27 -18 -27 -37q1 -56 9 -78t38 -46q6 -28 15 -38t29 -30q39 -4 48 -8t34 -21q22 9 54 27t37 20q30 11 29 22l-2 36l7 49q0 5 -17 40t-19 37l-23 23q-21 34 -39 48q-8 -1 -13 -1zM250 976q0 9 -64 33q42 77 86 91
q26 28 35 34q35 18 71 24t93 26h1q3 0 43 -51l49 40l17 -6l21 -6l32 -16l34 -13l12 -25l20 -33l2 -18q0 -1 12 -23t11 -70q1 -48 -5 -59t-30 -41q-34 -49 -47 -59t-102 -43l-36 -15l-39 -6q-56 -13 -76 -13t-42 1q-5 7 -18 18q-13 -1 -29 -11q-9 2 -15 6q-6 5 -16 11t-27 26
q-34 17 -39 23q-9 14 -9 28t1 27l-40 30q4 11 4 17t-5 18q36 29 66 41q29 13 29 14z" />
    <glyph glyph-name="plusminus" unicode="&#xb1;" 
d="M533 248l11 46q0 2 -7 24l8 41q-9 27 -9 37t10 28q-5 17 -5 21l2 26l-2 58q0 7 6 29l-8 51q-39 -50 -40 -50h-1q-8 0 -22 23t-20 23q-7 0 -35 -46q-37 50 -44 50t-38 -50l-34 3q-24 -7 -31 -7t-29 18q-24 -18 -71 -18q-6 0 -12 9l-3 11q6 15 6 19v5q-5 38 -5 40
q5 19 21 19q15 0 31 -10t42 -47l39 51l27 -10l37 7l20 -1l28 2l10 -24l10 -21l3 3l25 44l33 -8q28 4 34 4t20 -2q5 30 4 39l-2 29q0 21 -2 34t-2 24l12 30q0 3 -5 19t-5 49t6 62q-16 7 -16 10q0 9 9 10l38 8l11 5l-56 34l2 4q36 2 50 3t24 1t30 -5q3 -14 3 -21t-7 -28l4 -28
l-6 -24l2 -44l-2 -28l3 -56l-5 -20l2 -14l2 -25l1 -25l1 -14q0 -21 2 -26h31q15 1 21 1t43 -7l25 5l14 -43l22 42l70 -45l21 50l15 -15h5q23 18 54 20t41 3q4 -14 4 -21l-1 -21q2 -26 2 -34t-1 -27q-27 -8 -44 -8t-25 3l-23 8l-29 -4l-22 27h-27q-6 1 -18 13t-18 12t-35 -49
q-33 14 -35 14t-27 -11l-37 42l-28 -50l-2 -10l4 -196l-9 -28q0 -8 15 -21q-3 -14 -4 -69q-2 -10 -18 -18t-29 -8t-57 7q-3 31 -3 37zM222 18l-45 6q-20 0 -20 17l4 32l-2 24v2l7 24q52 2 89 2t70 -23l23 17q14 -2 24 -2l27 3q5 0 12 -8l8 8l66 -50l75 50q23 -14 42 -17
q8 11 10 11l40 5h21l20 1l36 -10q22 5 105 7q14 -1 31 -17l15 18q24 0 66 6t44 6l5 -1q6 -12 6 -23v-12q-1 -43 -3 -72q-6 -2 -22 -3l-22 -3l-12 3h-20l-20 7l-31 -4l-15 5l-30 1l-27 6l-33 -6l-45 43l-30 -43q-26 9 -28 9t-12 -7q-9 -7 -17 -7t-54 8q-33 -6 -54 -6
q1 9 1 19q1 10 -5 22t-12 13q-6 0 -22 -55q-26 7 -30 7t-38 -5q-33 52 -37 52t-49 -28t-55 -27q-10 0 -32 15l-14 -18q-7 -2 -11 -2z" />
    <glyph glyph-name="twosuperior" unicode="&#xb2;" horiz-adv-x="777" 
d="M694 549q0 -12 -24 -36l-6 -17q-20 -3 -71 -30l-40 7l-22 9l-52 -4l-54 6l-78 1l-22 7l-51 -10q-31 4 -38 4t-39 -8t-54 -8t-42 7q4 25 48 48q29 27 47 27q8 30 13 33l52 42l42 44q51 45 62 61t32 60l52 64q33 38 42 58t11 43l6 31q0 17 -64 21q-4 14 -19 26t-18 29
l-22 -7q-56 34 -98 34t-96 -40q-17 6 -34 21l22 44q26 7 34 12l34 22q25 17 57 17q31 0 51 -2q21 -16 29 -16t21 7l16 -18q11 4 24 4t57 -34t52 -46t7 -38q0 -26 -14 -59q-9 -31 -21 -45t-24 -32l-96 -141q-36 -43 -54 -67l-27 -36q-17 -24 -27 -42t-24 -25v-5l10 -10
q27 9 38 9l53 -9l33 2h2l77 -5q12 0 32 -2h37l15 -3l24 1l27 -43l31 33q9 13 27 32q14 -16 14 -28z" />
    <glyph glyph-name="threesuperior" unicode="&#xb3;" horiz-adv-x="777" 
d="M355 1153l25 1l49 -1l43 18q12 0 12 -16q0 -5 -11 -40t-56 -88q-17 -23 -51 -76q1 -42 16 -52l12 23l9 22h1l20 -3l38 -3l28 -13l23 -6l34 -16q24 -7 31 -13t21 -28t14 -25q0 -4 -7 -29q10 -10 10 -46t-10 -85q-2 -7 -37 -51l-11 -21q-20 -36 -29 -56q-17 -7 -24 -21
t-40 -50q-33 -34 -83 -68t-58 -40q-8 -5 -31 -9q-4 -2 -11 -17q-4 -4 -18 -10t-25 -10q-11 -6 -23 -6t-36 7q-26 7 -26 21q0 8 6 13t81 29l20 9q49 13 106 53q61 57 65 61t25 49q28 37 36 55t22 74q-5 16 -6 19l6 20l-20 45q0 6 4 8l48 19q3 1 3 4q0 14 -31 14t-54 -2
l-55 43q-13 -6 -16 -6l-37 6l-37 -3l-24 3l-56 -33q-46 -17 -52 -17t-18 6q6 29 12 37q4 4 31 20l20 19q45 25 55 53q2 4 8 39q44 63 56 94q-10 12 -15 12l-21 -4q-2 0 -45 8l-37 2l-42 4l-53 -19q-19 0 -19 20q0 7 7 11q87 51 89 51t26 -4h2l50 1q47 -6 58 -6h3z" />
    <glyph glyph-name="acute" unicode="&#xb4;" horiz-adv-x="836" 
d="M412 902l-2 20q0 2 7 18t18 50t23 46l16 16q23 22 23 44t-9 31l3 3l-13 10q6 25 14 31t55 9q47 4 66 8t29 4t16 -16q-15 -22 -55 -91q-8 -12 -42 -46l-22 -48l-30 -43q-30 -28 -43 -43v-6z" />
    <glyph glyph-name="mu" unicode="&#xb5;" 
d="M216 154l-16 -45q0 -2 17 -37l-15 -45q13 -28 14 -31t5 -44l7 -34q-11 -46 -11 -64t28 -59q-25 -13 -25 -28t37 -50q-20 -66 -20 -78t24 -52q-23 -17 -35 -37t-22 -33l-42 -4l-9 -12l-28 30q-16 -7 -23 -7t-20 5v30q1 7 1 11t-31 38q14 44 14 68t4 36q4 10 13 29l2 24
q7 43 7 55t-10 38l32 35q-21 37 -23 50q33 45 37 53q-20 19 -19 32l5 40q1 34 4 42t17 27q-20 36 -20 52t37 41l-18 36q16 21 16 29t-20 52q27 29 26 43l-6 63l3 50q0 10 -7 40l21 29l-23 35l100 36q0 9 -99 43l22 37q-26 31 -26 47t27 42q-5 17 -26 44l27 34q-7 11 -24 31
l100 108l-23 31l-22 41l-54 25q-1 1 -7 9q9 5 14 5l58 -4q21 1 50 -14l50 19q7 1 15 -9t8 -23l-7 -77q0 -10 2 -18l8 -34l-110 -65l33 -27l30 -44q43 -25 43 -28l-15 -47l22 -28l-22 -40q26 -28 26 -39t-27 -62l8 -61l-10 -47q25 -64 25 -72t-22 -35l25 -52l-9 -39
q0 -20 5 -47q22 -19 22 -31t-5 -30q28 -29 36 -63q14 -8 38 -9l13 -17q17 3 33 3t90 -27q19 11 30 17q12 6 30 10t34 17h39q23 39 41 51t58 27l5 40q17 12 44 21l-7 10q91 56 91 62t-81 44q-2 1 -2 6l5 34q-16 14 -24 39q20 51 20 54t-22 98q16 21 28 49l-31 27q11 26 26 49
l-9 41l14 58q-18 11 -18 14l2 74l-14 36q0 6 98 44l5 4q-21 15 -104 40q27 41 27 57t-7 39q21 4 35 4t53 -17q13 8 29 30l51 -35l12 11q-11 -24 -11 -34l2 -43l-5 -37l19 -60q-14 -44 -14 -67t6 -34l15 -29l-113 -49l57 -18q38 -12 39 -13v-4l-10 -36q15 -23 15 -27t-4 -5
l-101 -27l109 -38q-14 -14 -22 -27q6 -20 6 -46t15 -55l-23 -30l31 -56q-23 -19 -27 -31t-5 -44l-81 -36l48 -28q38 -22 48 -32t10 -23t-10 -46l47 -65q33 19 46 19t29 -19l33 29l25 -46l-72 14q-12 -77 -44 -77h-20q-28 2 -33 2t-14 -5l-15 -42l-23 18l-49 -24
q-18 33 -50 63l3 43l-33 14l13 57q-24 9 -24 16q-1 29 -3 37q-13 -23 -20 -56l-53 -20q0 -64 -31 -64l-32 15q-16 -15 -27 -50l-65 -6q-28 -41 -49 -41t-45 18l-36 -23q-23 14 -32 14t-35 -12l-23 27q-34 3 -44 13t-20 43l-41 -23l-8 47q-43 27 -65 50l18 42l-15 13
q5 -14 5 -20z" />
    <glyph glyph-name="paragraph" unicode="&#xb6;" 
d="M712 1104q-67 -3 -83 -7q-25 16 -34 16t-13 -1q-5 -18 -16 -22q-43 -15 -59 -15t-47 13q-28 -25 -43 -25l-34 -2q-7 -1 -29 -11q-22 19 -30 19t-18 -3l-3 -26q-92 -26 -119 -50t-27 -48q0 -3 12 -28q22 -69 61 -94q17 -11 68 -25l61 -25l19 1l23 -6l24 -2q29 -12 56 -15
l133 -15l19 -4v-6q11 -4 15 -4t12 2l-3 14l4 3l54 -3l3 2v74l16 5l-2 36v64l-6 33h19q2 8 2 12t-15 31q-17 106 -20 112zM808 -29q19 -64 19 -90q0 -25 -11 -50q18 -23 20 -35t3 -55q13 -41 13 -47t-10 -21q-32 11 -56 17t-39 20l-3 17q-56 7 -56 32l21 83l-7 66q0 9 3 26
h15q12 18 15 42l-24 9v35q1 8 1 11t-6 28l6 6l26 5q1 6 1 10t-5 16l-23 3q-2 12 -2 16l4 179l-3 49q0 10 5 35q2 62 6 78t8 43l-3 3l-8 -2q-6 16 -6 18l-1 76l-1 42q1 7 7 25q-20 4 -48 7t-32 5l-22 12q-11 4 -87 9l-32 10l-23 -3q-10 0 -29 6t-39 10l-7 13q-20 1 -32 1
t-47 11l-33 7l-48 23q-7 2 -28 5q-18 25 -25 27q-5 5 -33 9l-38 37l12 27q-7 6 -21 10t-26 16q-7 -7 -13 -7t-16 32l-16 40l-4 28q0 20 22 34t27 27q20 0 39 15q26 1 42 10t20 11l153 29l38 15q16 -21 29 -21t23 30q29 1 69 11l61 7q48 12 77 13h6q71 -2 107 -17q6 23 21 23
q4 0 48 -16q36 10 82 10t83 -17l9 23q19 -3 64 -20l20 -13q66 -24 70 -32t4 -13t-5 -14l-34 4l-10 -10l9 -35l-17 -17q7 -23 7 -41t-34 -64q4 -16 19 -27q-13 -17 -13 -25t16 -26l-6 -43h-2l-9 -10q2 -18 2 -23l-9 -103q0 -6 10 -49q-10 -24 -10 -53v-39l1 -4l-19 -57l2 -35
v-44l2 -15q0 -9 -11 -27q18 -36 18 -39t1 -19l-3 -45q0 -17 -10 -30l-4 -36l22 -24q-7 -18 -6 -23l4 -24q2 -90 6 -114l-20 -24q11 -26 16 -64l5 -34q0 -13 -12 -39q25 -38 25 -47t-3 -11l-72 -36l85 -35q3 -2 3 -7t-11 -24q-49 21 -69 23t-31 33q-50 4 -50 32l17 69
q-3 52 -3 72t3 32h15q9 18 10 39l-19 12q0 41 -5 73l9 9l18 6q1 5 1 9t-7 14h-10l-9 9l3 17v174l-3 47q0 3 4 17t5 62l9 80h-4l-2 -2q-13 22 -13 40l1 43l-1 33l-1 22q0 10 13 16l-16 81l16 5l-5 70l4 4h12l-2 3l50 95q-35 23 -53 37h12q1 20 -10 38q-13 107 -14 115
q-14 2 -28 2t-31 -12q-15 46 -19 46t-17 -55l11 -33l-15 -15q5 -21 5 -41t-34 -69q8 -13 19 -24l-13 -32q17 -13 17 -22l-2 -8q0 -27 -15 -46q1 -17 1 -25l-7 -92l8 -45l-10 -85q0 -15 4 -37q-22 -21 -22 -31v-12q3 -30 3 -42t-2 -37l9 -11q-12 -20 -12 -24t15 -39l-3 -30
v-53q-14 -23 -14 -41t21 -31l-5 -21v-3l7 -45v-7l-2 -58v-3l6 -26z" />
    <glyph glyph-name="middot" unicode="&#xb7;" horiz-adv-x="437" 
d="M333 394q0 -6 -16 -34t-79 -72q-17 16 -29 30t-43 35l-24 28q-6 6 -32 7q-7 7 -7 9q0 15 33 35t42 31q9 12 33 28q17 -13 61 -38t53 -39q8 -14 8 -20z" />
    <glyph glyph-name="cedilla" unicode="&#xb8;" horiz-adv-x="836" 
d="M327 -308l36 -3q37 -1 55 25t27 87l-17 9l-10 20q-34 -1 -63 -12q-13 27 -13 38t8 57l-1 21q5 48 9 58t20 9.5t33 -18.5q1 -2 -3 -26t-3 -30q0 -6 4 -21q25 -16 37 -16t25 2q17 -20 42 -33t23 -29l-3 -30l11 -43q0 -7 -17 -38q-24 -42 -91 -69l-26 12l-11 -21
q-15 2 -19 2l-55 -2q-35 0 -35 22q0 29 37 29z" />
    <glyph glyph-name="onesuperior" unicode="&#xb9;" horiz-adv-x="777" 
d="M418 1150q14 0 29 -7v-49l-12 -55q0 -10 11 -41l-21 -24l26 -27q-17 -19 -17 -29l1 -25l-46 -34l54 -50l-3 -37l3 -53q1 -55 -1 -69t-15 -38l13 -13l4 -88q-48 -36 -92 -36q-19 0 -19 30l12 48q0 10 -6 24l7 10q-3 13 -3 30t3 23l14 28q-9 34 -9 43t20 29q-13 20 -14 28
t-1 45q-16 48 -16 55l12 135q0 12 -7 32h-62l-4 10v18q10 7 32 15q21 8 39 24l36 32t32 16z" />
    <glyph glyph-name="ordmasculine" unicode="&#xba;" horiz-adv-x="673" 
d="M289 1078q-7 0 -16 -8t-21 -15t-34 -25t-30 -24t-15 -25l-24 -46q-8 -23 -18 -35l13 -13q-1 -9 -1 -26q-1 -17 21 -46t27 -45q21 -13 38 -39t29 -42q-16 1 -31 3l-21 3l-23 13q-33 8 -82 38l-12 20q-29 26 -29 50v1q0 13 1 14v4l-9 35q0 40 42 116l10 21l23 13q5 2 15 18
t32 26t44 24q69 44 187 44q24 0 42 -19q17 9 21 9t33 -11l30 -18l12 -5q13 -24 19 -30t32 -8q22 -34 26 -52t7 -56l-15 -19q9 -24 9 -39t-18.5 -52.5t-34.5 -56.5t-83 -50q13 14 25 54t34 68q-10 19 -10 29t12 28l-26 95l-27 27l-26 29q-41 18 -60 37q-8 -6 -13 -6l-43 4
q-21 0 -47 -13q-8 1 -15 1zM617 521q-114 4 -151 7q-36 3 -56 -1t-44 -3q-22 1 -27 1l-179 -5q-48 7 -51 7l-30 -7q-2 0 -8 2l-3 13v48h77q8 0 14 2l27 -10q22 5 28 5h109l25 -1h37l46 -2l36 2l26 -3h1q51 0 116 10l7 -7v-58zM258 689q29 -2 65 -2l74 11l29 1q5 0 59 26
q-9 -10 -22 -21l-42 -37q-12 -11 -31 -11l-65 6l-29 1q-16 0 -38 26z" />
    <glyph glyph-name="guillemotright" unicode="&#xbb;" horiz-adv-x="904" 
d="M662 326q0 14 -7 28l-33 6l10 36l-38 23q-4 15 -10 25t-45 34l-32 31l-23 16q-10 9 -18 44l-56 -26q-4 0 -16 7q16 63 51 85q1 1 25 9t40 18t31 15q11 -22 13 -30l7 -25l20 -26q29 -43 59 -73l24 5q24 -39 49 -57q24 -17 72 -33q11 -3 30 -36q18 15 31 16l3 -3
q-10 -26 -17 -34t-44 -34l-71 -53q-53 -32 -69 -45t-40 -38q-1 -13 -22 -43t-22 -31q-1 0 -32 -16l-50 -30q-43 11 -46 17q14 18 31 28l14 35l22 14l3 15q29 12 40 19t60 50q50 35 53 39t3 18zM144 88q-14 0 -32 24q22 11 29 22l14 22t26 23l5 17q32 12 42 17t42 33t71 52
v43l-34 12l7 35q-9 11 -33 17q-5 27 -10 34t-47 34q-37 37 -56 48q-4 23 -14 44q-46 -22 -63 -22l-7 7q6 32 30 60t28 24l40 12q6 2 22 12t31 12q7 -21 11 -40t78 -116l27 4q10 -24 61 -66q8 -6 60 -28q7 -3 27 -34l32 15l4 -4q-13 -27 -20 -33t-43 -31l-85 -59
q-39 -21 -51 -30t-50 -44v-14q-15 -11 -25 -31q-11 -20 -19 -26q-8 -5 -46 -25t-52 -20z" />
    <glyph glyph-name="onequarter" unicode="&#xbc;" horiz-adv-x="1673" 
d="M1094 392q0 -4 6 -8h19q31 0 79 -9l32 5q42 -9 52 -9t49 16q1 25 -1 39t-1 20l13 31q0 2 -19 36q0 29 -2 43l-7 7q-10 -19 -14 -21t-21 -12t-45 -34t-89 -63q-51 -28 -51 -41zM919 325q0 17 52 52t101 61t63 38q14 14 35 21l19 16l25 17l12 16l16 12l21 33q17 23 19 25
t22 14q5 4 29 40t37 37q13 0 28 -4q11 -50 11 -63t-2 -34v-32l-6 -53l6 -50q0 -21 -11 -76q16 -9 20 -9l33 3l31 -3l52 6q32 1 70 14q36 12 52 12t16 -19q0 -7 -4 -11t-26 -16t-43 -48q-15 -1 -27 -1t-57 8l-84 -8q-5 0 -23 5q-6 -25 -7 -77t-12 -75q24 -39 24 -117
q0 -13 -6 -22q-5 -9 -31 -21t-44 -24q-18 -14 -24 -14t-15 3q-4 14 -4 21t16 45l4 24q15 26 15 39v1l-7 97q0 32 16 78q-17 9 -21 31q-22 -1 -32 -1t-31 -2l-56 6l-69 -7l-52 8l-37 -10l-45 3l-44 -6q-25 0 -25 17zM615 202q1 8 13 30t32 35v24l27 12q3 40 35 89
q38 58 38 76v19q22 11 29 18t17 32t26 58q17 33 20 59l28 -3q-12 19 -12 33t8 22t23 18q16 10 18 18q2 7 2 50l29 58l2 28q33 57 33 73t1 39l30 24q-6 15 -6 26t14 34q30 49 76 51q39 26 55 26q26 0 26 -26q0 -9 -17 -37t-28 -48q-8 -4 -20 -4t-14 -4t-3 -37l-12 -19
q-15 -26 -25 -36q5 -14 5 -22q1 -8 -19 -35t-21 -35t-2 -17l-32 -21q2 -13 2 -23t-49 -84q-10 -18 -21 -56l-23 -44l-11 -27q-53 -90 -64 -113l-16 -4l2 -11q-1 -9 -14 -51q-27 -14 -31 -21q-4 -6 -5 -20q0 -14 2 -35q-17 -18 -18 -22l-18 -73q-3 -11 -29 -37q0 -41 -4 -58
t-33 -28q7 -17 7 -29t-14 -35t-22 -27q-9 -4 -57 -23q-35 -19 -45 -19t-31 10q9 36 21 57t21 42q29 1 37 11t8 36q15 31 36 56q-7 12 -7 20zM494 1150q14 0 29 -7v-49l-12 -55q0 -10 11 -41l-21 -24l26 -27q-17 -19 -17 -29l1 -25l-46 -34l54 -50l-3 -37l3 -53q1 -55 -1 -69
t-15 -38l13 -13l4 -88q-48 -36 -92 -36q-19 0 -19 30l12 48q0 10 -6 24l7 10q-3 13 -3 30t3 23l14 28q-9 34 -9 43t20 29q-13 20 -14 28t-1 45q-16 48 -16 55l12 135q0 12 -7 32h-62l-4 10v18q10 7 32 15q21 8 39 24l36 32t32 16z" />
    <glyph glyph-name="onehalf" unicode="&#xbd;" horiz-adv-x="1674" 
d="M1169 14l-105 -14q-22 0 -38 6q1 10 2 14q2 4 26 21q24 18 46 39q16 1 23 5q7 29 11 33t26 18t68 65q50 45 58 55t36 66l17 17l33 44q32 35 40 50t21 78q-1 7 -17 24t-45 27t-41 32l-21 -8q-33 41 -67 55t-44 14t-30 -14t-31 -32q-11 -17 -15 -21t-16 -8l-26 22
q12 30 18 36t38 18l44 27q19 11 58 11t65 -17l26 9l14 -18q11 4 15 4t45 -17l21 -17q49 -38 52 -44t7 -36l3 -28l-14 -35q-8 -30 -8 -31q0 -2 -14 -18q-13 -16 -29 -39l-93 -135q-2 -5 -30 -37t-56 -76t-42 -58l6 -9q36 8 41 8t8 -4l30 -46l56 42l42 -4l41 1l28 -5l24 2
q25 -5 38 -5h28q18 0 34 11t21 11t20 -8q1 -7 1 -19t-23 -33q-4 -18 -21 -22q-17 -5 -33 -15t-24 -10t-31 6t-78 7l-119 3q-3 0 -7 -1h-3l-32 50q-21 -39 -27 -45t-19 -6zM919 759l-1 28q0 9 16 33t17 62l29 48q4 7 4 20t-4 39l34 26q-6 17 -6 33t54 73q32 3 53 17t34 14
q14 0 31 -19q-6 -22 -24 -55t-24 -37t-14 -4t-16 1q-2 -12 -3 -44q-11 -11 -20 -27t-22 -29l9 -6l-39 -74q-4 -6 -6 -30l-34 -17q6 -13 6 -23t-51 -88q-10 -17 -20 -52l-22 -41q-18 -45 -39 -77t-27 -48t-12 -18q-6 -3 -16 -4v-4l5 -5q-5 -21 -8 -35t-8 -23q-36 -3 -36 -50
q0 -8 1 -25q-15 -16 -16 -20l-20 -74q-3 -12 -27 -34q1 -36 -1 -52t-36 -38q7 -16 7 -28t-16 -36t-26 -28t-52 -20q-33 -16 -46 -19h-2l-26 12q9 35 19 55t20 44q47 -1 47 22q0 9 -5 22q8 7 18 25t23 31q-6 14 -6 20q1 6 11 28t33 39v24l29 16q-2 7 -2 8q0 31 37 83t37 68
v24q25 12 27 17l59 118q3 4 6 29l28 -3q-11 18 -11 37t19 31t27 20l4 19v1zM440 1150q14 0 29 -7v-49l-12 -55q0 -10 11 -41l-21 -24l26 -27q-17 -19 -17 -29l1 -25l-46 -34l54 -50l-3 -37l3 -53q1 -55 -1 -69t-15 -38l13 -13l4 -88q-48 -36 -92 -36q-19 0 -19 30l12 48
q0 10 -6 24l7 10q-3 13 -3 30t3 23l14 28q-9 34 -9 43t20 29q-13 20 -14 28t-1 45q-16 48 -16 55l12 135q0 12 -7 32h-62l-4 10v18q10 7 32 15q21 8 39 24l36 32t32 16z" />
    <glyph glyph-name="threequarters" unicode="&#xbe;" horiz-adv-x="1674" 
d="M1094 389l5 -5q35 4 97 -10l27 5l61 -7q5 0 48 15l-3 3l-3 68l14 21q-15 21 -16 30l-3 30q0 6 -11 22l-7 -19q-35 -16 -81 -54t-78 -54q-32 -14 -39 -22q-6 -8 -11 -23zM1022 311l-86 -2q-18 0 -17 19q0 28 155 110q48 26 61 39t25 17t19 14q22 12 46 39q19 13 33 37
t47 51q47 65 56 69t17 4t20 -9l6 -36q3 -20 3 -27l-1 -30v-30l-8 -54l6 -27q3 -11 3 -22l-12 -78q15 -11 19 -10l32 5q26 -3 30 -3q4 -1 46 3l42 4l41 14q31 10 48 10t17 -17q0 -11 -26 -27t-47 -50q-19 -2 -31 -2t-54 10q-65 -10 -69 -10t-40 6q-8 -23 -8 -28l1 -98
q0 -4 -10 -27q24 -42 24 -120q0 -20 -34 -37t-50 -29q-17 -12 -24 -12q-18 0 -18 22q0 5 19 48l3 24q15 26 16 37v1q-4 45 -4 73l-1 52q0 4 13 52q-17 15 -20 31h-24q-12 0 -41 -4l-54 6l-69 -6l-52 9zM1151 1151q27 0 27 -25q0 -10 -26 -50q-13 -28 -18 -32t-30 -7
q-8 -10 -8 -14l1 -28q0 -1 -7 -9t-13 -22t-18 -24l3 -34q-9 -11 -23 -28t-17 -47l-33 -19q2 -12 2 -22t-29 -60l-26 -40l-14 -42l-18 -34l-15 -33q-54 -95 -66 -119l-18 -3q5 -7 5 -13t-4 -18t-8 -32q-39 -9 -39 -39q0 -15 3 -35q-20 -23 -21 -30l-18 -71q-2 -8 -26 -32
q1 -47 -5 -61t-32 -25l8 -34q-8 -15 -14 -29t-42 -39q-39 -13 -57 -22t-28 -9t-29 10q11 46 23 64t19 35q30 1 36 11t10 32t35 59q-7 11 -7 17t11 30t33 39v24q20 5 24 11t6 23q0 17 36 67t35 80v14q23 14 29 22t18 38q13 30 28 55t16 53l30 -4q-14 20 -14 38t42 44
q9 2 12 63q0 4 14 25t16 60q8 24 22 38t13 23l-5 47q10 12 35 26l-7 27q-2 19 23 47t37 32q12 3 22 5q11 2 28 14t33 12zM365 1153l25 1l49 -1l43 18q12 0 12 -16q0 -5 -11 -40t-56 -88q-17 -23 -51 -76q1 -42 16 -52l12 23l9 22h1l20 -3l38 -3l28 -13l23 -6l34 -16
q24 -7 31 -13t21 -28t14 -25q0 -4 -7 -29q10 -10 10 -46t-10 -85q-2 -7 -37 -51l-11 -21q-20 -36 -29 -56q-17 -7 -24 -21t-40 -50q-33 -34 -83 -68t-58 -40q-8 -5 -31 -9q-4 -2 -11 -17q-4 -4 -18 -10t-25 -10q-11 -6 -23 -6t-36 7q-26 7 -26 21q0 8 6 13t81 29l20 9
q49 13 106 53q61 57 65 61t25 49q28 37 36 55t22 74q-5 16 -6 19l6 20l-20 45q0 6 4 8l48 19q3 1 3 4q0 14 -31 14t-54 -2l-55 43q-13 -6 -16 -6l-37 6l-37 -3l-24 3l-56 -33q-46 -17 -52 -17t-18 6q6 29 12 37q4 4 31 20l20 19q45 25 55 53q2 4 8 39q44 63 56 94
q-10 12 -15 12l-21 -4q-2 0 -45 8l-37 2l-42 4l-53 -19q-19 0 -19 20q0 7 7 11q87 51 89 51t26 -4h2l50 1q47 -6 58 -6h3z" />
    <glyph glyph-name="questiondown" unicode="&#xbf;" horiz-adv-x="806" 
d="M263 692q9 9 22 33q4 5 28 22t43 35q13 -3 28 -22t52 -56l19 -26q3 -6 34 -11v-12q-16 -12 -74 -47q-20 -21 -40 -30q-19 16 -76 55q-38 27 -36 55v4zM34 -168q0 16 10 34t15 21q21 7 29 10v26q17 13 43 49l20 16q20 20 57 51q17 -13 25 -13t25 13l-10 26q21 19 40 46
l28 32q22 25 22 47t-29 47v5l13 6q-3 24 -21 42q22 31 48 31l67 -13q10 0 18 -24t21 -42l-3 -10l-14 -11q1 -8 1 -19t-32 -33l-20 -32l-21 -28q-24 -31 -42 -47q-65 -57 -133 -106q-3 -24 -13 -50t-11 -30q0 -28 56 -97l20 5q24 -25 101 -36v-5q-7 -11 -7 -21t12 -9
q12 0 24 15t14 15t20 -21t25 -21l54 44h2q30 1 56 9t95 45q-15 46 -19 55q15 14 45 55l21 10q32 19 43 19t30 -7q6 -22 6 -45t-37 -64l-20 -29q-1 -1 -22 -12q-44 -36 -58 -48t-58 -31q-42 -19 -52 -19t-19 1q-25 -22 -45 -22h-28q-8 1 -15 1t-27 -8q-10 11 -16 11l-27 -8
q-5 0 -35 6l-57 -3q-7 -1 -35 9t-49 29q-12 3 -74 22q-10 26 -20 39q-9 13 -23 34q-14 22 -14 38z" />
    <glyph glyph-name="Agrave" unicode="&#xc0;" horiz-adv-x="1993" 
d="M580 430q6 0 20 -13l31 4l12 -21q21 7 57 7h89q25 -1 67 -15q44 -3 65 -7q21 -31 49 -31l63 31l34 -7h57l22 -6l29 4l27 -3l27 2l25 -7l59 10l46 3l89 9l74 -6q16 0 16 8t-6 28q-6 18 -6 34q-19 13 -28 30q-35 71 -40 71l-31 69q5 26 5 40t-8 37l-35 -5q-11 23 -13 30
l-7 25l-22 31l-36 63q-7 41 -23 70t-16 48l20 9q-10 16 -20 16t-19 -1q-9 21 -23 41t-15 23l-6 39l-15 26l-15 35l-33 41l-18 58l-17 30q-13 27 -29 50q-52 -31 -50 -92h-6q-17 -29 -44 -67l-58 -110q-16 -28 -21 -48q-18 -11 -30 -41t-47 -42l5 -28l-15 -7h-1q-19 2 -33 3
l-8 -13l26 -16q-12 -39 -35 -79q-47 -90 -89 -116q-10 -6 -12 -28t-9 -40l-27 -50l-23 -25l-12 -28q-23 -37 -29 -53l-12 -32q22 12 28 12zM91 -312l-33 13q-8 0 -16 -1q-19 19 -42 26q7 13 9 15l29 18q11 8 27 30q15 21 31 33t24 27q-1 9 -1 23q1 14 33 44t40 42l55 100
q1 1 19 6l4 4q-1 11 -1 21t2 13l25 33l99 154l2 10q-8 6 -12 6l-21 -3q-8 0 -19 1q-6 19 -6 26t13 25q8 27 41 74q20 0 28 -3l44 -15q6 4 6 15t-5 26q18 12 20 17l20 38q7 14 39 43q3 24 7 29t38 36q3 4 16 36t62 104l66 128l27 29q2 18 4 21q2 4 16 24t14 26t-2 14
q9 8 19 28t19 34l20 -29q5 13 5 19t-8 22l34 63q1 1 1 13q-1 12 7 24t17 38q9 24 18 45l43 4l-4 13l-26 12v16q15 12 22 27l-11 10v4q15 15 29 39t23 40q-8 14 -8 23v38l81 56l19 -14q11 19 15 31t11 11q7 0 16 -4q5 21 23 33t33 13q30 0 33 -73q12 -48 14 -72t24 -64
q13 -52 13 -66v-26l-40 -21q9 -20 17 -25q5 -2 45 -14q19 -6 37 -51t18 -52t-12 -26q16 -16 31 -29t17 -18l32 -81q3 -6 5 -33q38 -39 38 -94l22 -34l42 -84l-23 -14q6 -19 16 -28l15 -3l-3 -22q102 -97 105 -189q5 -22 51 -108t53 -106t21 -41l62 -137l-2 -29
q60 -32 60 -61q0 -14 -29 -28q8 -17 13 -20q5 -2 21 -8t28 -30t30 -80q43 -66 54 -86q-19 -14 -19 -26t1 -21q-44 -20 -71 -21q-26 -1 -82 -24q-26 59 -30 82t-20 47q-27 74 -27 82t1 17q-18 17 -20 25q-2 7 -4 27t-1 28q0 8 10 29l-30 27q11 16 19 22t8 12t-2 14l-48 -4
q-24 32 -31 48t-18 66l-15 35q-12 64 -18 76q-17 36 -54 36t-41 -75q-9 -3 -15 -3t-29 17t-46 21t-55 19t-46 15q-16 0 -62 -10l-29 5l-32 -3h-27l-27 -4l-47 -1q-30 -1 -40 -1l-15 -1l-62 14l-30 -6q-32 9 -35 9l-103 -20l-28 32q-32 -5 -57 -19t-67 -14l-74 8
q-15 0 -43 -8t-51 -9q-11 -19 -20 -37t-33 -47q-17 -27 -47 -79l-18 4q-8 -8 -8 -15l5 -38q-19 -22 -21 -27l-48 -97l-37 -60l-55 -35q-4 -2 -4 -12t23 -29l-15 -47q-23 -10 -35 -18t-27 -42q-29 -12 -40 -20t-16 -8zM1163 1850q0 -8 -6 -26q24 -8 36 -16l-21 -34h-16
q-17 0 -41 6q-13 38 -21 48t-30 35q-25 36 -29 40t-41 23l-25 42q-30 33 -42 58q18 14 28 13l41 -5q68 -3 85 -7t39 -22l-17 -22q7 -19 11 -35t6 -21l41 -66q2 -3 2 -11z" />
    <glyph glyph-name="Aacute" unicode="&#xc1;" horiz-adv-x="1993" 
d="M580 430q6 0 20 -13l31 4l12 -21q21 7 57 7h89q25 -1 67 -15q44 -3 65 -7q21 -31 49 -31l63 31l34 -7h57l22 -6l29 4l27 -3l27 2l25 -7l59 10l46 3l89 9l74 -6q16 0 16 8t-6 28q-6 18 -6 34q-19 13 -28 30q-35 71 -40 71l-31 69q5 26 5 40t-8 37l-35 -5q-11 23 -13 30
l-7 25l-22 31l-36 63q-7 41 -23 70t-16 48l20 9q-10 16 -20 16t-19 -1q-9 21 -23 41t-15 23l-6 39l-15 26l-15 35l-33 41l-18 58l-17 30q-13 27 -29 50q-52 -31 -50 -92h-6q-17 -29 -44 -67l-58 -110q-16 -28 -21 -48q-18 -11 -30 -41t-47 -42l5 -28l-15 -7h-1q-19 2 -33 3
l-8 -13l26 -16q-12 -39 -35 -79q-47 -90 -89 -116q-10 -6 -12 -28t-9 -40l-27 -50l-23 -25l-12 -28q-23 -37 -29 -53l-12 -32q22 12 28 12zM91 -312l-33 13q-8 0 -16 -1q-19 19 -42 26q7 13 9 15l29 18q11 8 27 30q15 21 31 33t24 27q-1 9 -1 23q1 14 33 44t40 42l55 100
q1 1 19 6l4 4q-1 11 -1 21t2 13l25 33l99 154l2 10q-8 6 -12 6l-21 -3q-8 0 -19 1q-6 19 -6 26t13 25q8 27 41 74q20 0 28 -3l44 -15q6 4 6 15t-5 26q18 12 20 17l20 38q7 14 39 43q3 24 7 29t38 36q3 4 16 36t62 104l66 128l27 29q2 18 4 21q2 4 16 24t14 26t-2 14
q9 8 19 28t19 34l20 -29q5 13 5 19t-8 22l34 63q1 1 1 13q-1 12 7 24t17 38q9 24 18 45l43 4l-4 13l-26 12v16q15 12 22 27l-11 10v4q15 15 29 39t23 40q-8 14 -8 23v38l81 56l19 -14q11 19 15 31t11 11q7 0 16 -4q5 21 23 33t33 13q30 0 33 -73q12 -48 14 -72t24 -64
q13 -52 13 -66v-26l-40 -21q9 -20 17 -25q5 -2 45 -14q19 -6 37 -51t18 -52t-12 -26q16 -16 31 -29t17 -18l32 -81q3 -6 5 -33q38 -39 38 -94l22 -34l42 -84l-23 -14q6 -19 16 -28l15 -3l-3 -22q102 -97 105 -189q5 -22 51 -108t53 -106t21 -41l62 -137l-2 -29
q60 -32 60 -61q0 -14 -29 -28q8 -17 13 -20q5 -2 21 -8t28 -30t30 -80q43 -66 54 -86q-19 -14 -19 -26t1 -21q-44 -20 -71 -21q-26 -1 -82 -24q-26 59 -30 82t-20 47q-27 74 -27 82t1 17q-18 17 -20 25q-2 7 -4 27t-1 28q0 8 10 29l-30 27q11 16 19 22t8 12t-2 14l-48 -4
q-24 32 -31 48t-18 66l-15 35q-12 64 -18 76q-17 36 -54 36t-41 -75q-9 -3 -15 -3t-29 17t-46 21t-55 19t-46 15q-16 0 -62 -10l-29 5l-32 -3h-27l-27 -4l-47 -1q-30 -1 -40 -1l-15 -1l-62 14l-30 -6q-32 9 -35 9l-103 -20l-28 32q-32 -5 -57 -19t-67 -14l-74 8
q-15 0 -43 -8t-51 -9q-11 -19 -20 -37t-33 -47q-17 -27 -47 -79l-18 4q-8 -8 -8 -15l5 -38q-19 -22 -21 -27l-48 -97l-37 -60l-55 -35q-4 -2 -4 -12t23 -29l-15 -47q-23 -10 -35 -18t-27 -42q-29 -12 -40 -20t-16 -8zM1012 1764l-2 20q0 3 13 30q21 56 25 64t27 34t23 44
t-10 31l2 3v3l-11 4l10 33l159 21q9 -10 9 -16q1 -6 -11 -20q-12 -15 -24 -39t-61 -79q-6 -7 -23 -48l-32 -46q-25 -23 -42 -46z" />
    <glyph glyph-name="Acircumflex" unicode="&#xc2;" horiz-adv-x="1993" 
d="M580 430q6 0 20 -13l31 4l12 -21q21 7 57 7h89q25 -1 67 -15q44 -3 65 -7q21 -31 49 -31l63 31l34 -7h57l22 -6l29 4l27 -3l27 2l25 -7l59 10l46 3l89 9l74 -6q16 0 16 8t-6 28q-6 18 -6 34q-19 13 -28 30q-35 71 -40 71l-31 69q5 26 5 40t-8 37l-35 -5q-11 23 -13 30
l-7 25l-22 31l-36 63q-7 41 -23 70t-16 48l20 9q-10 16 -20 16t-19 -1q-9 21 -23 41t-15 23l-6 39l-15 26l-15 35l-33 41l-18 58l-17 30q-13 27 -29 50q-52 -31 -50 -92h-6q-17 -29 -44 -67l-58 -110q-16 -28 -21 -48q-18 -11 -30 -41t-47 -42l5 -28l-15 -7h-1q-19 2 -33 3
l-8 -13l26 -16q-12 -39 -35 -79q-47 -90 -89 -116q-10 -6 -12 -28t-9 -40l-27 -50l-23 -25l-12 -28q-23 -37 -29 -53l-12 -32q22 12 28 12zM91 -312l-33 13q-8 0 -16 -1q-19 19 -42 26q7 13 9 15l29 18q11 8 27 30q15 21 31 33t24 27q-1 9 -1 23q1 14 33 44t40 42l55 100
q1 1 19 6l4 4q-1 11 -1 21t2 13l25 33l99 154l2 10q-8 6 -12 6l-21 -3q-8 0 -19 1q-6 19 -6 26t13 25q8 27 41 74q20 0 28 -3l44 -15q6 4 6 15t-5 26q18 12 20 17l20 38q7 14 39 43q3 24 7 29t38 36q3 4 16 36t62 104l66 128l27 29q2 18 4 21q2 4 16 24t14 26t-2 14
q9 8 19 28t19 34l20 -29q5 13 5 19t-8 22l34 63q1 1 1 13q-1 12 7 24t17 38q9 24 18 45l43 4l-4 13l-26 12v16q15 12 22 27l-11 10v4q15 15 29 39t23 40q-8 14 -8 23v38l81 56l19 -14q11 19 15 31t11 11q7 0 16 -4q5 21 23 33t33 13q30 0 33 -73q12 -48 14 -72t24 -64
q13 -52 13 -66v-26l-40 -21q9 -20 17 -25q5 -2 45 -14q19 -6 37 -51t18 -52t-12 -26q16 -16 31 -29t17 -18l32 -81q3 -6 5 -33q38 -39 38 -94l22 -34l42 -84l-23 -14q6 -19 16 -28l15 -3l-3 -22q102 -97 105 -189q5 -22 51 -108t53 -106t21 -41l62 -137l-2 -29
q60 -32 60 -61q0 -14 -29 -28q8 -17 13 -20q5 -2 21 -8t28 -30t30 -80q43 -66 54 -86q-19 -14 -19 -26t1 -21q-44 -20 -71 -21q-26 -1 -82 -24q-26 59 -30 82t-20 47q-27 74 -27 82t1 17q-18 17 -20 25q-2 7 -4 27t-1 28q0 8 10 29l-30 27q11 16 19 22t8 12t-2 14l-48 -4
q-24 32 -31 48t-18 66l-15 35q-12 64 -18 76q-17 36 -54 36t-41 -75q-9 -3 -15 -3t-29 17t-46 21t-55 19t-46 15q-16 0 -62 -10l-29 5l-32 -3h-27l-27 -4l-47 -1q-30 -1 -40 -1l-15 -1l-62 14l-30 -6q-32 9 -35 9l-103 -20l-28 32q-32 -5 -57 -19t-67 -14l-74 8
q-15 0 -43 -8t-51 -9q-11 -19 -20 -37t-33 -47q-17 -27 -47 -79l-18 4q-8 -8 -8 -15l5 -38q-19 -22 -21 -27l-48 -97l-37 -60l-55 -35q-4 -2 -4 -12t23 -29l-15 -47q-23 -10 -35 -18t-27 -42q-29 -12 -40 -20t-16 -8zM1363 1748q-14 0 -38 6l-2 21q-27 15 -37 15h-17
q-13 24 -20 32t-35 12q-19 25 -43 35l5 46q-23 0 -26 4l-40 53q-4 7 -30 7t-33 -4q-1 -15 -24 -33t-42 -52q-34 -62 -73 -86q-55 -55 -101 -55q-7 0 -24 5q18 36 29 43l60 33l12 18q12 18 39 41q27 22 46 58q37 35 63 69q26 33 40 36l27 12l16 16q33 19 42 29t26 17
q11 29 26 29q20 0 20 -28q0 -9 -14 -23t-14 -26q0 -11 16 -32l-4 -31q19 -11 47 -17q12 -16 37 -40t25 -35t-6 -27q18 -9 34 -13t25 -13q10 -9 13 -43l13 -3h1l60 12l7 -7q-13 -23 -19 -30t-40 -29t-47 -22z" />
    <glyph glyph-name="Atilde" unicode="&#xc3;" horiz-adv-x="1993" 
d="M580 430q6 0 20 -13l31 4l12 -21q21 7 57 7h89q25 -1 67 -15q44 -3 65 -7q21 -31 49 -31l63 31l34 -7h57l22 -6l29 4l27 -3l27 2l25 -7l59 10l46 3l89 9l74 -6q16 0 16 8t-6 28q-6 18 -6 34q-19 13 -28 30q-35 71 -40 71l-31 69q5 26 5 40t-8 37l-35 -5q-11 23 -13 30
l-7 25l-22 31l-36 63q-7 41 -23 70t-16 48l20 9q-10 16 -20 16t-19 -1q-9 21 -23 41t-15 23l-6 39l-15 26l-15 35l-33 41l-18 58l-17 30q-13 27 -29 50q-52 -31 -50 -92h-6q-17 -29 -44 -67l-58 -110q-16 -28 -21 -48q-18 -11 -30 -41t-47 -42l5 -28l-15 -7h-1q-19 2 -33 3
l-8 -13l26 -16q-12 -39 -35 -79q-47 -90 -89 -116q-10 -6 -12 -28t-9 -40l-27 -50l-23 -25l-12 -28q-23 -37 -29 -53l-12 -32q22 12 28 12zM91 -312l-33 13q-8 0 -16 -1q-19 19 -42 26q7 13 9 15l29 18q11 8 27 30q15 21 31 33t24 27q-1 9 -1 23q1 14 33 44t40 42l55 100
q1 1 19 6l4 4q-1 11 -1 21t2 13l25 33l99 154l2 10q-8 6 -12 6l-21 -3q-8 0 -19 1q-6 19 -6 26t13 25q8 27 41 74q20 0 28 -3l44 -15q6 4 6 15t-5 26q18 12 20 17l20 38q7 14 39 43q3 24 7 29t38 36q3 4 16 36t62 104l66 128l27 29q2 18 4 21q2 4 16 24t14 26t-2 14
q9 8 19 28t19 34l20 -29q5 13 5 19t-8 22l34 63q1 1 1 13q-1 12 7 24t17 38q9 24 18 45l43 4l-4 13l-26 12v16q15 12 22 27l-11 10v4q15 15 29 39t23 40q-8 14 -8 23v38l81 56l19 -14q11 19 15 31t11 11q7 0 16 -4q5 21 23 33t33 13q30 0 33 -73q12 -48 14 -72t24 -64
q13 -52 13 -66v-26l-40 -21q9 -20 17 -25q5 -2 45 -14q19 -6 37 -51t18 -52t-12 -26q16 -16 31 -29t17 -18l32 -81q3 -6 5 -33q38 -39 38 -94l22 -34l42 -84l-23 -14q6 -19 16 -28l15 -3l-3 -22q102 -97 105 -189q5 -22 51 -108t53 -106t21 -41l62 -137l-2 -29
q60 -32 60 -61q0 -14 -29 -28q8 -17 13 -20q5 -2 21 -8t28 -30t30 -80q43 -66 54 -86q-19 -14 -19 -26t1 -21q-44 -20 -71 -21q-26 -1 -82 -24q-26 59 -30 82t-20 47q-27 74 -27 82t1 17q-18 17 -20 25q-2 7 -4 27t-1 28q0 8 10 29l-30 27q11 16 19 22t8 12t-2 14l-48 -4
q-24 32 -31 48t-18 66l-15 35q-12 64 -18 76q-17 36 -54 36t-41 -75q-9 -3 -15 -3t-29 17t-46 21t-55 19t-46 15q-16 0 -62 -10l-29 5l-32 -3h-27l-27 -4l-47 -1q-30 -1 -40 -1l-15 -1l-62 14l-30 -6q-32 9 -35 9l-103 -20l-28 32q-32 -5 -57 -19t-67 -14l-74 8
q-15 0 -43 -8t-51 -9q-11 -19 -20 -37t-33 -47q-17 -27 -47 -79l-18 4q-8 -8 -8 -15l5 -38q-19 -22 -21 -27l-48 -97l-37 -60l-55 -35q-4 -2 -4 -12t23 -29l-15 -47q-23 -10 -35 -18t-27 -42q-29 -12 -40 -20t-16 -8zM1060 1982q22 0 56 -21q12 -7 18 -32q8 2 14 2
q6 1 14 -9t61 -38q7 0 24 11q13 -18 23 -18t74 39q6 26 16 32t30 10t35 17q22 -12 29 -28q-48 -39 -66 -62t-36 -31t-24 -23q-25 -9 -48 -23t-46 -19q-16 -23 -30 -23t-46 16t-59 27q-13 28 -25 28l-22 -10q-16 22 -38 31t-27 9l-39 -12q-5 0 -15 4q-27 -23 -49 -32l-13 12
q-16 -6 -21 -6h-8l-6 -6q2 -13 2 -23t-5 -15t-37 -7l-28 -4q-8 0 -17 12q1 30 106 89q40 35 50 41t44 20l79 39q8 3 30 3z" />
    <glyph glyph-name="Adieresis" unicode="&#xc4;" horiz-adv-x="1993" 
d="M580 430q6 0 20 -13l31 4l12 -21q21 7 57 7h89q25 -1 67 -15q44 -3 65 -7q21 -31 49 -31l63 31l34 -7h57l22 -6l29 4l27 -3l27 2l25 -7l59 10l46 3l89 9l74 -6q16 0 16 8t-6 28q-6 18 -6 34q-19 13 -28 30q-35 71 -40 71l-31 69q5 26 5 40t-8 37l-35 -5q-11 23 -13 30
l-7 25l-22 31l-36 63q-7 41 -23 70t-16 48l20 9q-10 16 -20 16t-19 -1q-9 21 -23 41t-15 23l-6 39l-15 26l-15 35l-33 41l-18 58l-17 30q-13 27 -29 50q-52 -31 -50 -92h-6q-17 -29 -44 -67l-58 -110q-16 -28 -21 -48q-18 -11 -30 -41t-47 -42l5 -28l-15 -7h-1q-19 2 -33 3
l-8 -13l26 -16q-12 -39 -35 -79q-47 -90 -89 -116q-10 -6 -12 -28t-9 -40l-27 -50l-23 -25l-12 -28q-23 -37 -29 -53l-12 -32q22 12 28 12zM91 -312l-33 13q-8 0 -16 -1q-19 19 -42 26q7 13 9 15l29 18q11 8 27 30q15 21 31 33t24 27q-1 9 -1 23q1 14 33 44t40 42l55 100
q1 1 19 6l4 4q-1 11 -1 21t2 13l25 33l99 154l2 10q-8 6 -12 6l-21 -3q-8 0 -19 1q-6 19 -6 26t13 25q8 27 41 74q20 0 28 -3l44 -15q6 4 6 15t-5 26q18 12 20 17l20 38q7 14 39 43q3 24 7 29t38 36q3 4 16 36t62 104l66 128l27 29q2 18 4 21q2 4 16 24t14 26t-2 14
q9 8 19 28t19 34l20 -29q5 13 5 19t-8 22l34 63q1 1 1 13q-1 12 7 24t17 38q9 24 18 45l43 4l-4 13l-26 12v16q15 12 22 27l-11 10v4q15 15 29 39t23 40q-8 14 -8 23v38l81 56l19 -14q11 19 15 31t11 11q7 0 16 -4q5 21 23 33t33 13q30 0 33 -73q12 -48 14 -72t24 -64
q13 -52 13 -66v-26l-40 -21q9 -20 17 -25q5 -2 45 -14q19 -6 37 -51t18 -52t-12 -26q16 -16 31 -29t17 -18l32 -81q3 -6 5 -33q38 -39 38 -94l22 -34l42 -84l-23 -14q6 -19 16 -28l15 -3l-3 -22q102 -97 105 -189q5 -22 51 -108t53 -106t21 -41l62 -137l-2 -29
q60 -32 60 -61q0 -14 -29 -28q8 -17 13 -20q5 -2 21 -8t28 -30t30 -80q43 -66 54 -86q-19 -14 -19 -26t1 -21q-44 -20 -71 -21q-26 -1 -82 -24q-26 59 -30 82t-20 47q-27 74 -27 82t1 17q-18 17 -20 25q-2 7 -4 27t-1 28q0 8 10 29l-30 27q11 16 19 22t8 12t-2 14l-48 -4
q-24 32 -31 48t-18 66l-15 35q-12 64 -18 76q-17 36 -54 36t-41 -75q-9 -3 -15 -3t-29 17t-46 21t-55 19t-46 15q-16 0 -62 -10l-29 5l-32 -3h-27l-27 -4l-47 -1q-30 -1 -40 -1l-15 -1l-62 14l-30 -6q-32 9 -35 9l-103 -20l-28 32q-32 -5 -57 -19t-67 -14l-74 8
q-15 0 -43 -8t-51 -9q-11 -19 -20 -37t-33 -47q-17 -27 -47 -79l-18 4q-8 -8 -8 -15l5 -38q-19 -22 -21 -27l-48 -97l-37 -60l-55 -35q-4 -2 -4 -12t23 -29l-15 -47q-23 -10 -35 -18t-27 -42q-29 -12 -40 -20t-16 -8zM1346 1884q0 -42 -81 -100q-7 -4 -11 -4t-33 31
q-37 32 -58 57q-6 7 -36 15v6l102 83q19 -12 25 -16q92 -54 92 -72zM887 1973q6 0 39 -21q92 -44 92 -67q0 -7 -11 -29l-11 -26q-45 -40 -58 -59q-22 8 -26 11l-37 35l-28 21q-24 26 -29 27q-20 1 -31 9q5 13 6 14l58 46q30 39 36 39z" />
    <glyph glyph-name="Aring" unicode="&#xc5;" horiz-adv-x="1993" 
d="M580 430q6 0 20 -13l31 4l12 -21q21 7 57 7h89q25 -1 67 -15q44 -3 65 -7q21 -31 49 -31l63 31l34 -7h57l22 -6l29 4l27 -3l27 2l25 -7l59 10l46 3l89 9l74 -6q16 0 16 8t-6 28q-6 18 -6 34q-19 13 -28 30q-35 71 -40 71l-31 69q5 26 5 40t-8 37l-35 -5q-11 23 -13 30
l-7 25l-22 31l-36 63q-7 41 -23 70t-16 48l20 9q-10 16 -20 16t-19 -1q-9 21 -23 41t-15 23l-6 39l-15 26l-15 35l-33 41l-18 58l-17 30q-13 27 -29 50q-52 -31 -50 -92h-6q-17 -29 -44 -67l-58 -110q-16 -28 -21 -48q-18 -11 -30 -41t-47 -42l5 -28l-15 -7h-1q-19 2 -33 3
l-8 -13l26 -16q-12 -39 -35 -79q-47 -90 -89 -116q-10 -6 -12 -28t-9 -40l-27 -50l-23 -25l-12 -28q-23 -37 -29 -53l-12 -32q22 12 28 12zM91 -312l-33 13q-8 0 -16 -1q-19 19 -42 26q7 13 9 15l29 18q11 8 27 30q15 21 31 33t24 27q-1 9 -1 23q1 14 33 44t40 42l55 100
q1 1 19 6l4 4q-1 11 -1 21t2 13l25 33l99 154l2 10q-8 6 -12 6l-21 -3q-8 0 -19 1q-6 19 -6 26t13 25q8 27 41 74q20 0 28 -3l44 -15q6 4 6 15t-5 26q18 12 20 17l20 38q7 14 39 43q3 24 7 29t38 36q3 4 16 36t62 104l66 128l27 29q2 18 4 21q2 4 16 24t14 26t-2 14
q9 8 19 28t19 34l20 -29q5 13 5 19t-8 22l34 63q1 1 1 13q-1 12 7 24t17 38q9 24 18 45l43 4l-4 13l-26 12v16q15 12 22 27l-11 10v4q15 15 29 39t23 40q-8 14 -8 23v38l81 56l19 -14q11 19 15 31t11 11q7 0 16 -4q5 21 23 33t33 13q30 0 33 -73q12 -48 14 -72t24 -64
q13 -52 13 -66v-26l-40 -21q9 -20 17 -25q5 -2 45 -14q19 -6 37 -51t18 -52t-12 -26q16 -16 31 -29t17 -18l32 -81q3 -6 5 -33q38 -39 38 -94l22 -34l42 -84l-23 -14q6 -19 16 -28l15 -3l-3 -22q102 -97 105 -189q5 -22 51 -108t53 -106t21 -41l62 -137l-2 -29
q60 -32 60 -61q0 -14 -29 -28q8 -17 13 -20q5 -2 21 -8t28 -30t30 -80q43 -66 54 -86q-19 -14 -19 -26t1 -21q-44 -20 -71 -21q-26 -1 -82 -24q-26 59 -30 82t-20 47q-27 74 -27 82t1 17q-18 17 -20 25q-2 7 -4 27t-1 28q0 8 10 29l-30 27q11 16 19 22t8 12t-2 14l-48 -4
q-24 32 -31 48t-18 66l-15 35q-12 64 -18 76q-17 36 -54 36t-41 -75q-9 -3 -15 -3t-29 17t-46 21t-55 19t-46 15q-16 0 -62 -10l-29 5l-32 -3h-27l-27 -4l-47 -1q-30 -1 -40 -1l-15 -1l-62 14l-30 -6q-32 9 -35 9l-103 -20l-28 32q-32 -5 -57 -19t-67 -14l-74 8
q-15 0 -43 -8t-51 -9q-11 -19 -20 -37t-33 -47q-17 -27 -47 -79l-18 4q-8 -8 -8 -15l5 -38q-19 -22 -21 -27l-48 -97l-37 -60l-55 -35q-4 -2 -4 -12t23 -29l-15 -47q-23 -10 -35 -18t-27 -42q-29 -12 -40 -20t-16 -8zM1120 1806h1l24 17l16 6q2 23 3 31t1 16q1 8 -17 31
t-22 27t-23 7v7q-73 -23 -73 -55q0 -17 41 -76q27 -3 37 -7t12 -4zM965 1898q0 29 61 69q12 8 51 17l37 10l23 -5l23 1q10 0 40 -16t38 -53q9 -19 9 -41t-2 -30t-15 -22q-19 -29 -25 -33t-74 -29q-43 -11 -55 -11t-29 1v7l-30 -5q-21 23 -49 38v29l-22 18q2 23 19 38v17z
" />
    <glyph glyph-name="AE" unicode="&#xc6;" horiz-adv-x="3153" 
d="M1540 720l-1 34q0 8 8 14l54 37l-64 17l24 13l5 54q-12 5 -18 13t-14 15q-4 32 -4 42l-4 58q0 10 15 24l-6 10l-19 4v47l14 16q-6 9 -22 29l83 100q-28 74 -32 82q-10 20 -59 23q-12 -13 -26 -26t-21 -40l-16 -13q-3 -3 -11 -14t-21 -27q-14 -16 -35 -42l-14 -16l-14 -24
l-61 -80l-16 -25q-23 -17 -45 -47t-56 -45q0 -38 -33 -38q-10 0 -23 2q-8 -6 -8 -13t19 -20q-17 -31 -58 -81l-30 -39q-49 -54 -51 -56t-39 -26q-21 -18 -26 -50q-6 -11 -63 -81l-23 -20l-22 -32l-30 -34q-28 -41 -28 -45t2 -11q21 -4 51 -2t73 2t60 -6l32 -10q45 -4 65 -8
l6 -22q20 -9 29 -9t69 32l32 -6l54 -1l24 -6l30 4l19 -2h34l25 -6l58 10l39 2q68 8 100 8v15q32 14 32 28q0 4 -22 17q-3 14 -15 25q0 23 5 54l-13 115q2 71 2 77zM1674 687l22 -83q0 -10 -2 -27l-22 -10q-3 -13 -3 -22q0 -18 32 -36q-7 -27 -7 -37l11 -37v-21q0 -33 3 -33
v-1q-1 -8 -19 -22q-17 -14 -29 -50q-12 -34 -26 -56t-13 -28q0 -34 81 -41l-38 -22q-1 -6 -1 -14t12 -29h6q13 9 19 9t20 -13q-13 -32 -13 -40t8 -41l1 -76l7 -75q0 -13 -31 -66q-19 -6 -19 -11q-3 0 -4 -17l48 -16l40 10h193q14 0 32 -10t31 -10t29 13t74 13t111 -8l33 1
l53 -3l43 8q47 -4 52 -4l112 8q16 0 25 -9l38 -37l2 2l24 45q35 -9 41 -9t18 1l5 -34l33 -8v36q12 6 19 6l30 -6l76 15q11 0 29 -16l58 10l4 20q32 12 73 14l32 8l19 1l25 7l19 4q28 14 33 14q18 0 18 -25q1 -9 -7 -23t-13 -33l-20 -17l-10 -31q-34 -16 -47 -20t-54 -5
l-32 -6l-61 1l-52 -9l-52 27l-51 6l-37 17q-75 10 -83 13t-12 3t-19 -47l-21 13q-17 -19 -31 -19l-98 20q-6 0 -45 -11l-76 16h-1l-30 -3h-3l-14 2l-17 -17q-26 4 -38 4t-30 -4l-72 43l-21 -25q-16 -21 -28 -21t-29 5l4 17q-11 -2 -19 -2t-26 -5l-4 -25q-14 -3 -22 -3t-52 9
l-36 -2q-27 5 -33 5t-24 -1l-31 -2q-41 -8 -53 -8l-68 12q-6 0 -63 -10q-62 -3 -76 -5l-50 -12h-2q-5 0 -35 8v15q0 13 7 29q16 0 24 6t26 42q17 36 16 42v46l19 31l-7 28l6 51q0 100 4 118t13 49q28 13 28 40q0 5 -2 14q-12 -21 -24 -21q-18 51 -18 59q0 7 13 41
q-12 10 -42 12t-38 8l-53 24q-13 6 -27 6t-61 -10l-38 4l-22 -2h-27l-30 -4l-78 -2l-27 -2l-49 11h-36l-30 49q-73 -52 -78 -55t-24 -7l-20 33q-26 -4 -50 -14t-85 -20q-70 1 -77 -1t-14 -20h-7l-16 -20q-32 -42 -63 -73t-65 -79l-21 -3l-19 -29l2 -19q-33 -29 -66 -78
t-63 -84t-31 -36t-26 -16t-49 -32q14 -19 14 -27t-30 -60q-30 -11 -46 -25t-31 -25q-13 7 -19 7l-30 -11q-7 0 -20 12l-30 -4l-16 20l-19 3v11q18 11 36 20t25 17l34 40q2 3 11 3h14q6 26 9 27q6 15 56 53t57 54q57 81 65 86t28 12q4 24 8 30t42 47l97 114q51 55 61 74l-5 4
l-52 -4q-9 0 -17 7v32q10 11 12 27q37 56 40 61q23 -2 28 -4l44 -18q8 -3 18 -3t30 9v24q14 13 22 20t40 47l50 47l20 32l45 34l16 26q49 66 70 87q20 21 69 85t59 76q11 12 40 40q12 26 31 44q18 18 20 22t5 16q3 10 11 17t20 24t26 33l4 -2l5 -25h4q12 18 12 26t-2 18
q12 14 35 46l21 26q2 1 3 19q24 25 69 100l43 7v11l-19 20q11 21 52 73q17 28 31 39v17l14 9v16q-14 -1 -34 -1t-20 13q0 37 34 37q12 17 36 33t28 17h6l8 -1h1q6 1 70 4l120 -7h25l26 -60l15 39l29 -4q2 0 17 8t26 9q11 0 62 -18l52 -8l35 -10l34 10l126 -3q34 3 42 3
t17 -14l54 -7l17 21q20 -1 28 -1t78 10l73 -5q7 1 33 7t42 9l100 16q48 8 60 8t34 -10q-12 -31 -18 -37t-57 -35q-45 -42 -69 -42q-1 0 -19 3l-36 5q-19 13 -48 13h-28q-83 5 -95 5t-85 -17l-90 8l-25 -2l-29 5l-45 -8h-31l-25 -5l-115 5l-29 -4q-8 3 -22 31t-26 28
q-6 0 -26 -23t-27 -25h-3q-1 0 -6 1l-27 2l-25 -6l-33 1q-8 0 -28 -11q14 -24 15 -31q2 -51 6 -70l-28 -22l-22 3q-4 -13 -4 -25t23 -21l3 -11q19 -5 19 -15l-7 -33q0 -4 5 -24t7 -41q22 -4 76 -7l66 -12l47 -2l41 -5h32l54 -7l67 -1l51 -4l48 6l53 -10l75 12q36 12 48 12
t37 -9q26 26 61 26l28 -2l83 19q13 0 27 -1l-8 -43l-23 -15l-5 -33q-22 -8 -34 -28q-34 -4 -46 -4t-23 15l-26 37q-37 -49 -43 -49t-33 13q-29 -13 -77 -13t-100 11h-161l-44 -2l-111 9q-30 0 -49 -6t-41 -6t-65 3l-5 -5q13 -28 15 -70l3 -54q0 -4 -1 -37v-8l6 -58
q0 -26 -31 -34l-3 3q-8 -20 -8 -28t2 -19h4l4 4l26 -18v-49z" />
    <glyph glyph-name="Ccedilla" unicode="&#xc7;" horiz-adv-x="2052" 
d="M1096 1647l80 18q16 1 30 -3q12 -4 16 -3l133 4q39 -1 65 -31t31 -30q19 0 35 42q32 -21 46 -21t22 1l26 6l33 -11q130 -34 169 -51v-30h-1q-17 -16 -37 -38t-32 -22t-40 16t-125 47v9l-9 -5v30l-48 -12q-3 0 -43 14q-41 14 -45 21l-8 14q-34 -13 -42 -13h-137l-25 3
q-46 -7 -69 -17l-61 -7q-39 -8 -56 -11t-44 -18l-51 -23l-35 -25q-110 -45 -148 -96q-25 -7 -59 -28q0 -12 -4 -23q-20 -10 -53 -43l-24 -22q-38 -52 -54 -52q-6 0 -14 1q7 -11 7 -14t-49 -83q-38 -39 -42 -47t-26 -55l-21 -50l-9 -29q-27 -49 -33 -69t-14 -64
q-17 -59 -19 -69t-32 -16q3 -26 23 -43q-10 -26 -10 -34l9 -59q0 -9 -9 -13l-79 -30q-9 -3 -9 -9t10 -21t16 -31t18 -26t35 -28l17 -46q7 -15 9 -36h-6l6 -34l14 -4q11 -19 11 -31h3q8 -56 13 -64l18 -36q28 -73 28 -85t-20 -11l10 -25q28 1 50 -13l39 -47l29 -27l23 -29
q13 0 56 -35q1 -20 6 -27q33 -24 57 -31l41 -25l69 -33q35 -13 43 -19t33 -29q17 15 23 15t120 -33q39 4 43 4l48 -3q40 -1 58 -9q19 -8 25 -8t24 17q26 1 95 12l44 4l59 15q34 -10 46 -10t20 5l26 17l40 9l70 22q13 -2 21 -2h1q10 0 30 8t68 18q48 11 71 26q1 1 14 18
l38 19q31 18 47 18t35 -6q1 25 7 31t36 18q32 19 38 19t19 -9q-3 -47 -16 -72t-19 -43q-6 -17 -13 -21t-86 -17q-7 -2 -30 -16l-107 -21l-45 -14l-51 -8q-65 -19 -76 -19t-65 2v-8q0 -17 -24 -17q-3 0 -26 4l-137 -31q-51 -11 -67 -11h-25q-13 1 -23 1l-54 -4
q-10 -7 -18 -15l-33 42l-38 -42q-2 -124 -2 -136v-20q-29 -2 -55 -12q-10 29 -10 46l7 53v32q0 19 6 39q-26 20 -46 20t-33 -20l-50 2l-21 26h-30q-51 0 -85 10t-104 48l-44 18q-83 52 -110 65l-7 18h22v12q0 35 -25 38q-15 -17 -23 -17t-37 25l-67 47l-22 29l-10 11l-35 52
l-22 30l-16 29q-44 78 -66 179l20 12v19l-22 15q0 23 -9 43l-6 21q-11 18 -12 22t-1 38l-4 44l6 20q-10 29 -10 45q1 15 9 27t14 47q-15 9 -15 17q0 26 37 153l43 3l-17 54q0 12 25 81q9 41 23 68t35 62l35 -9q7 0 20 11q13 2 17 6t7 16l-24 3l-10 36q0 10 18 28t30 36
q11 18 22 29t18 30l36 41q7 5 41 28l3 -3l28 14l2 23l129 103q7 6 30 18l28 18l24 7q39 27 47 27t26 -10l14 37l41 -8l4 19q33 10 56 19t59 12l30 9q35 7 42 10t21 17q14 -1 25 -1zM1077 -544q-7 8 -19 18q-12 11 -14 36q5 0 11 1l8 -20l18 -11q-2 -13 -4 -24zM1180 -560
q0 -10 -12 -32q-25 -50 -78 -68q-12 -8 -15 -8l-27 10l-14 -20q-30 -2 -54 -2t-48 8q-3 12 -3 20q-1 8 7 16t22 7h1q79 0 101 35q10 17 17 50l6 -6q13 4 23 123q14 -17 20 -20l32 -18q14 -7 15 -27v-1q-1 -10 -3 -21q10 -37 10 -46z" />
    <glyph glyph-name="Egrave" unicode="&#xc8;" horiz-adv-x="2018" 
d="M418 690l20 -85v-27l-22 -11q-2 -13 -2 -27t31 -31q-9 -15 -8 -18l9 -45l2 -39l4 -24l-4 -30l1 -37l-5 -22l-3 -64q-1 -26 -1 -30t5 -19l-37 -22q0 -18 11 -43h6q13 9 19 9t19 -12q-13 -36 -13 -44t9 -36l1 -71l6 -83q0 -40 -53 -81q1 -41 15 -47q14 -7 31 -20l39 35h44
l78 15l35 -3h55t20 -10q18 -9 26 -9q9 0 42 22l27 -39l38 32q8 12 14 13h5l113 -8l38 -1h35q13 -1 14 -1l42 7l74 -6q1 0 40 5h16l179 3l14 -1q1 -1 9 1t12 2q3 0 19 -4t41 -4l12 -35l29 -5v34l2 3l10 5q29 -49 33 -49t36 27q33 27 45 27t28 -15q23 6 36 8t21 6q3 20 34 28
q23 1 41 1q88 19 102 23q23 14 30 14q16 0 16 -23q0 -9 -9 -27t-14 -36q-16 -8 -17 -13l-7 -21q-26 -33 -103 -32l-32 -6l-54 47l-71 -54l-40 8l-52 2l-36 6h-47l-55 5q-2 0 -14 -3l-14 10q-26 -15 -36 -15t-50 7t-89 7l-88 -6q-1 0 -87 14q-18 -2 -22 -2t-15 2l-16 -17
q-22 4 -25 4l-105 -2h-42l-60 -4q-5 0 -22 5l7 17q-25 0 -51 -8l-3 -27h-22l-2 -1h-2q-2 -1 -14 5t-33 6t-29 -4q-2 0 -21 23t-28 23t-49 -25t-58 -25l-57 11q-6 0 -64 -9l-53 -2q-70 -16 -78 -16t-31 6q-1 10 -1 19t8 27q5 -1 12 -1q7 -1 16 9t38 72l-1 56l17 24
q-6 19 -6 23l6 147q3 71 29 89q9 5 10 23t4 27l-13 -25h-8q-4 14 -15 29v25l-1 43v1l22 29l17 54q4 9 48 27q-1 8 -78 27l33 15v13l-21 10q-5 18 -18 28q0 24 5 48l-12 90l80 59l-80 103l61 26l-63 24l24 13q0 28 7 54q-11 6 -19 15t-15 12q-4 33 -4 43l-4 56q0 11 15 28
q-6 11 -12 11t-11 -1q-3 18 -3 33t17 33q-23 20 -23 39v124q0 23 -6 79t-7 58q-2 2 -14 10v46l-34 -4v5l-5 3h-18q-14 0 -27 4q3 27 15 42h19q13 20 29 30t34 25q16 -6 24 -6l39 7l132 -10q9 0 22 4q34 -24 45 -25h13l21 -3q28 17 44 17t67 -18l42 -7l44 -11q1 0 15 5t24 4
l206 -2l8 -12l55 -4l15 18q65 2 101 6t48 5l66 -6q7 0 141 27l57 7q43 6 47 6t37 -7q-1 -19 -27 -47l-50 -27q-7 -4 -29 -22t-33 -18h-2q-55 4 -86 18h-65q-13 0 -62 6l-57 -5h-41l-62 -12l-73 7l-37 1l-22 2l-61 -6l-52 2l-24 -9l-113 6l-32 -5q-1 0 -19 6t-91 6h-19
q-9 0 -39 -3l-32 7q-7 0 -22 -17q15 -28 16 -56t2 -44q-21 -22 -29 -22t-18 4q-3 -20 -3 -28t14 -18t30 -23q-7 -31 -7 -38t11 -64q21 -5 76 -10l66 -12l47 -2l39 -5l112 -8l70 8l46 -9l78 4q128 1 159 7t35 6l65 -4v14q25 1 39 12l42 -55q15 29 21 35t26 20t32 14
q10 0 26 -3q-2 -33 -8 -36q-1 -7 -27 -22v-27q-22 -12 -34 -29q-25 -7 -37 -7t-37 28t-28 27q-3 0 -38 -49q-1 -1 -4 -1l-35 11q-11 -6 -54 -10q-48 6 -54 6t-62 -7l-36 8l-64 3l-73 -10l-71 11l-91 -2l-30 7l-36 -1l-30 1l-25 -7l-39 -2q-34 -4 -65 -4q11 -27 13 -60l4 -30
l-1 -88l6 -56q-1 -7 -13 -24l-17 -5l-3 3q-8 -20 -8 -28t3 -19l8 4q19 -14 22 -20t3 -28t-19 -36zM930 1850q0 -8 -6 -26q24 -8 36 -16l-21 -34h-16q-17 0 -41 6q-12 38 -20 48t-31 35q-25 36 -29 40t-41 23l-25 42q-30 33 -42 58q18 14 28 13l41 -5q68 -3 85 -7t39 -22
l-17 -22q6 -19 10 -35t7 -21l41 -66q2 -3 2 -11z" />
    <glyph glyph-name="Eacute" unicode="&#xc9;" horiz-adv-x="2018" 
d="M418 690l20 -85v-27l-22 -11q-2 -13 -2 -27t31 -31q-9 -15 -8 -18l9 -45l2 -39l4 -24l-4 -30l1 -37l-5 -22l-3 -64q-1 -26 -1 -30t5 -19l-37 -22q0 -18 11 -43h6q13 9 19 9t19 -12q-13 -36 -13 -44t9 -36l1 -71l6 -83q0 -40 -53 -81q1 -41 15 -47q14 -7 31 -20l39 35h44
l78 15l35 -3h55t20 -10q18 -9 26 -9q9 0 42 22l27 -39l38 32q8 12 14 13h5l113 -8l38 -1h35q13 -1 14 -1l42 7l74 -6q1 0 40 5h16l179 3l14 -1q1 -1 9 1t12 2q3 0 19 -4t41 -4l12 -35l29 -5v34l2 3l10 5q29 -49 33 -49t36 27q33 27 45 27t28 -15q23 6 36 8t21 6q3 20 34 28
q23 1 41 1q88 19 102 23q23 14 30 14q16 0 16 -23q0 -9 -9 -27t-14 -36q-16 -8 -17 -13l-7 -21q-26 -33 -103 -32l-32 -6l-54 47l-71 -54l-40 8l-52 2l-36 6h-47l-55 5q-2 0 -14 -3l-14 10q-26 -15 -36 -15t-50 7t-89 7l-88 -6q-1 0 -87 14q-18 -2 -22 -2t-15 2l-16 -17
q-22 4 -25 4l-105 -2h-42l-60 -4q-5 0 -22 5l7 17q-25 0 -51 -8l-3 -27h-22l-2 -1h-2q-2 -1 -14 5t-33 6t-29 -4q-2 0 -21 23t-28 23t-49 -25t-58 -25l-57 11q-6 0 -64 -9l-53 -2q-70 -16 -78 -16t-31 6q-1 10 -1 19t8 27q5 -1 12 -1q7 -1 16 9t38 72l-1 56l17 24
q-6 19 -6 23l6 147q3 71 29 89q9 5 10 23t4 27l-13 -25h-8q-4 14 -15 29v25l-1 43v1l22 29l17 54q4 9 48 27q-1 8 -78 27l33 15v13l-21 10q-5 18 -18 28q0 24 5 48l-12 90l80 59l-80 103l61 26l-63 24l24 13q0 28 7 54q-11 6 -19 15t-15 12q-4 33 -4 43l-4 56q0 11 15 28
q-6 11 -12 11t-11 -1q-3 18 -3 33t17 33q-23 20 -23 39v124q0 23 -6 79t-7 58q-2 2 -14 10v46l-34 -4v5l-5 3h-18q-14 0 -27 4q3 27 15 42h19q13 20 29 30t34 25q16 -6 24 -6l39 7l132 -10q9 0 22 4q34 -24 45 -25h13l21 -3q28 17 44 17t67 -18l42 -7l44 -11q1 0 15 5t24 4
l206 -2l8 -12l55 -4l15 18q65 2 101 6t48 5l66 -6q7 0 141 27l57 7q43 6 47 6t37 -7q-1 -19 -27 -47l-50 -27q-7 -4 -29 -22t-33 -18h-2q-55 4 -86 18h-65q-13 0 -62 6l-57 -5h-41l-62 -12l-73 7l-37 1l-22 2l-61 -6l-52 2l-24 -9l-113 6l-32 -5q-1 0 -19 6t-91 6h-19
q-9 0 -39 -3l-32 7q-7 0 -22 -17q15 -28 16 -56t2 -44q-21 -22 -29 -22t-18 4q-3 -20 -3 -28t14 -18t30 -23q-7 -31 -7 -38t11 -64q21 -5 76 -10l66 -12l47 -2l39 -5l112 -8l70 8l46 -9l78 4q128 1 159 7t35 6l65 -4v14q25 1 39 12l42 -55q15 29 21 35t26 20t32 14
q10 0 26 -3q-2 -33 -8 -36q-1 -7 -27 -22v-27q-22 -12 -34 -29q-25 -7 -37 -7t-37 28t-28 27q-3 0 -38 -49q-1 -1 -4 -1l-35 11q-11 -6 -54 -10q-48 6 -54 6t-62 -7l-36 8l-64 3l-73 -10l-71 11l-91 -2l-30 7l-36 -1l-30 1l-25 -7l-39 -2q-34 -4 -65 -4q11 -27 13 -60l4 -30
l-1 -88l6 -56q-1 -7 -13 -24l-17 -5l-3 3q-8 -20 -8 -28t3 -19l8 4q19 -14 22 -20t3 -28t-19 -36zM876 1764l-2 20q0 3 13 30q21 56 25 64t27 34t23 44t-10 31l2 3v3l-11 4l10 33l159 21q9 -10 9 -16q1 -6 -11 -20q-12 -15 -24 -39t-61 -79q-6 -7 -23 -48l-32 -46
q-25 -23 -42 -46z" />
    <glyph glyph-name="Ecircumflex" unicode="&#xca;" horiz-adv-x="2018" 
d="M418 690l20 -85v-27l-22 -11q-2 -13 -2 -27t31 -31q-9 -15 -8 -18l9 -45l2 -39l4 -24l-4 -30l1 -37l-5 -22l-3 -64q-1 -26 -1 -30t5 -19l-37 -22q0 -18 11 -43h6q13 9 19 9t19 -12q-13 -36 -13 -44t9 -36l1 -71l6 -83q0 -40 -53 -81q1 -41 15 -47q14 -7 31 -20l39 35h44
l78 15l35 -3h55t20 -10q18 -9 26 -9q9 0 42 22l27 -39l38 32q8 12 14 13h5l113 -8l38 -1h35q13 -1 14 -1l42 7l74 -6q1 0 40 5h16l179 3l14 -1q1 -1 9 1t12 2q3 0 19 -4t41 -4l12 -35l29 -5v34l2 3l10 5q29 -49 33 -49t36 27q33 27 45 27t28 -15q23 6 36 8t21 6q3 20 34 28
q23 1 41 1q88 19 102 23q23 14 30 14q16 0 16 -23q0 -9 -9 -27t-14 -36q-16 -8 -17 -13l-7 -21q-26 -33 -103 -32l-32 -6l-54 47l-71 -54l-40 8l-52 2l-36 6h-47l-55 5q-2 0 -14 -3l-14 10q-26 -15 -36 -15t-50 7t-89 7l-88 -6q-1 0 -87 14q-18 -2 -22 -2t-15 2l-16 -17
q-22 4 -25 4l-105 -2h-42l-60 -4q-5 0 -22 5l7 17q-25 0 -51 -8l-3 -27h-22l-2 -1h-2q-2 -1 -14 5t-33 6t-29 -4q-2 0 -21 23t-28 23t-49 -25t-58 -25l-57 11q-6 0 -64 -9l-53 -2q-70 -16 -78 -16t-31 6q-1 10 -1 19t8 27q5 -1 12 -1q7 -1 16 9t38 72l-1 56l17 24
q-6 19 -6 23l6 147q3 71 29 89q9 5 10 23t4 27l-13 -25h-8q-4 14 -15 29v25l-1 43v1l22 29l17 54q4 9 48 27q-1 8 -78 27l33 15v13l-21 10q-5 18 -18 28q0 24 5 48l-12 90l80 59l-80 103l61 26l-63 24l24 13q0 28 7 54q-11 6 -19 15t-15 12q-4 33 -4 43l-4 56q0 11 15 28
q-6 11 -12 11t-11 -1q-3 18 -3 33t17 33q-23 20 -23 39v124q0 23 -6 79t-7 58q-2 2 -14 10v46l-34 -4v5l-5 3h-18q-14 0 -27 4q3 27 15 42h19q13 20 29 30t34 25q16 -6 24 -6l39 7l132 -10q9 0 22 4q34 -24 45 -25h13l21 -3q28 17 44 17t67 -18l42 -7l44 -11q1 0 15 5t24 4
l206 -2l8 -12l55 -4l15 18q65 2 101 6t48 5l66 -6q7 0 141 27l57 7q43 6 47 6t37 -7q-1 -19 -27 -47l-50 -27q-7 -4 -29 -22t-33 -18h-2q-55 4 -86 18h-65q-13 0 -62 6l-57 -5h-41l-62 -12l-73 7l-37 1l-22 2l-61 -6l-52 2l-24 -9l-113 6l-32 -5q-1 0 -19 6t-91 6h-19
q-9 0 -39 -3l-32 7q-7 0 -22 -17q15 -28 16 -56t2 -44q-21 -22 -29 -22t-18 4q-3 -20 -3 -28t14 -18t30 -23q-7 -31 -7 -38t11 -64q21 -5 76 -10l66 -12l47 -2l39 -5l112 -8l70 8l46 -9l78 4q128 1 159 7t35 6l65 -4v14q25 1 39 12l42 -55q15 29 21 35t26 20t32 14
q10 0 26 -3q-2 -33 -8 -36q-1 -7 -27 -22v-27q-22 -12 -34 -29q-25 -7 -37 -7t-37 28t-28 27q-3 0 -38 -49q-1 -1 -4 -1l-35 11q-11 -6 -54 -10q-48 6 -54 6t-62 -7l-36 8l-64 3l-73 -10l-71 11l-91 -2l-30 7l-36 -1l-30 1l-25 -7l-39 -2q-34 -4 -65 -4q11 -27 13 -60l4 -30
l-1 -88l6 -56q-1 -7 -13 -24l-17 -5l-3 3q-8 -20 -8 -28t3 -19l8 4q19 -14 22 -20t3 -28t-19 -36zM1132 1748q-14 0 -38 6l-2 21q-27 15 -37 15h-17q-13 24 -20 32t-35 12q-19 25 -43 35l5 46q-23 0 -26 4l-40 53q-5 7 -31 7t-32 -4q-1 -15 -24 -33t-42 -52q-34 -62 -73 -86
q-55 -55 -101 -55q-7 0 -24 5q18 36 29 43l60 33q1 0 13 18t38 41q27 22 46 58q37 35 63 69q26 33 40 36l27 12l16 16q33 19 42 29t26 17q11 29 26 29q20 0 20 -28q0 -9 -14 -23t-14 -26q0 -11 16 -32l-4 -31q19 -11 47 -17q12 -16 37 -40t25 -35t-6 -27q17 -9 33 -13
t26 -13t13 -43l13 -3h1l60 12l7 -7q-13 -23 -19 -30q-5 -7 -39 -29t-48 -22z" />
    <glyph glyph-name="Edieresis" unicode="&#xcb;" horiz-adv-x="2018" 
d="M1261 1877q1 -8 -19 -38t-77 -61q-36 38 -51 51t-36 38q-8 9 -37 16v6q14 14 67 51q15 19 36 31q12 -7 32 -20t41 -24q22 -11 33 -27t11 -23zM704 1972q4 0 53 -25q48 -25 59 -34t23 -39q-24 -33 -24 -45q-3 -3 -19 -15t-40 -42q-20 6 -24 10l-29 28l-32 24
q-26 28 -34 30t-25 3l-4 3v14q15 14 36 30t22 17l31 38q3 3 7 3zM418 690l20 -85v-27l-22 -11q-2 -13 -2 -27t31 -31q-9 -15 -8 -18l9 -45l2 -39l4 -24l-4 -30l1 -37l-5 -22l-3 -64q-1 -26 -1 -30t5 -19l-37 -22q0 -18 11 -43h6q13 9 19 9t19 -12q-13 -36 -13 -44t9 -36
l1 -71l6 -83q0 -40 -53 -81q1 -41 15 -47q14 -7 31 -20l39 35h44l78 15l35 -3q52 0 54.5 -0.5t20.5 -9.5t26 -9q9 0 42 22l27 -39l38 32q8 12 14 13h5l113 -8l38 -1h35q13 -1 14 -1l42 7l74 -6q1 0 40 5h16l179 3l14 -1q1 -1 9 1t12 2q3 0 19 -4t41 -4l12 -35l29 -5v34l2 3
l10 5q29 -49 33 -49t36 27q33 27 45 27t28 -15q23 6 36 8t21 6q3 20 34 28q23 1 41 1q88 19 102 23q23 14 30 14q16 0 16 -23q0 -9 -9 -27t-14 -36q-16 -8 -17 -13l-7 -21q-26 -33 -103 -32l-32 -6l-54 47l-71 -54l-40 8l-52 2l-36 6h-47l-55 5q-2 0 -14 -3l-14 10
q-26 -15 -36 -15t-50 7t-89 7l-88 -6q-1 0 -87 14q-18 -2 -22 -2t-15 2l-16 -17q-22 4 -25 4l-105 -2h-42l-60 -4q-5 0 -22 5l7 17q-25 0 -51 -8l-3 -27h-22l-2 -1h-2q-2 -1 -14 5t-33 6t-29 -4q-2 0 -21 23t-28 23t-49 -25t-58 -25l-57 11q-6 0 -64 -9l-53 -2
q-70 -16 -78 -16t-31 6q-1 10 -1 19t8 27q5 -1 12 -1q7 -1 16 9t38 72l-1 56l17 24q-6 19 -6 20l6 150q3 71 29 89q9 5 10 23t4 27l-13 -25h-8q-4 14 -15 29v25l-1 43v1l22 29l17 54q4 9 48 27q-1 8 -78 27l33 15v13l-21 10q-5 18 -18 28q0 24 5 48l-12 90l80 59l-80 103
l61 26l-63 24l24 13q0 28 7 54q-11 6 -19 15t-15 12q-4 33 -4 43l-4 56q0 11 15 28q-6 11 -12 11t-11 -1q-3 18 -3 33t17 33q-23 20 -23 39v124q0 23 -6 79t-7 58q-2 2 -14 10v46l-34 -4v5l-5 3h-18q-14 0 -27 4q3 27 15 42h19q13 20 29 30t34 25q16 -6 24 -6l39 7l132 -10
q9 0 22 4q34 -24 45 -25h13l21 -3q28 17 44 17t67 -18l42 -7l44 -11q1 0 15 5t24 4l206 -2l8 -12l55 -4l15 18q65 2 101 6t39 4l75 -5q7 0 141 27l57 7q43 6 47 6t37 -7q-1 -19 -27 -47l-50 -27q-7 -4 -29 -22t-33 -18h-2q-55 4 -86 18h-65q-13 0 -62 6l-57 -5h-41l-62 -12
l-73 7l-37 1l-22 2l-61 -6l-52 2l-24 -9l-113 6l-32 -5q-1 0 -19 6t-91 6h-19q-9 0 -39 -3l-32 7q-7 0 -22 -17q15 -28 16 -56t2 -44q-21 -22 -29 -22t-18 4q-3 -20 -3 -28t14 -18t30 -23q-7 -31 -7 -38t11 -64q21 -5 76 -10l66 -12l47 -2l39 -5l112 -8l70 8l46 -9l78 4
q128 1 159 7t35 6l65 -4v14q25 1 39 12l42 -55q16 28 21.5 34.5t25.5 20.5t32 14q10 0 26 -3q-2 -33 -8 -36q-1 -7 -27 -22v-27q-22 -12 -34 -29q-25 -7 -37 -7t-37 28t-28 27q-3 0 -38 -49q-1 -1 -4 -1l-35 11q-11 -6 -54 -10q-48 6 -54 6t-62 -7l-36 8l-64 3l-73 -10
l-71 11l-91 -2l-30 7l-36 -1l-30 1l-25 -7l-39 -2q-34 -4 -65 -4q11 -27 13 -60l4 -30l-1 -88l6 -56q-1 -7 -13 -24l-17 -5l-3 3q-8 -20 -8 -28t3 -19l8 4q19 -14 22 -20t3 -28t-19 -36z" />
    <glyph glyph-name="Igrave" unicode="&#xcc;" horiz-adv-x="560" 
d="M217 -42l-14 39l1 39v129q4 27 6 33t15 13v36q22 20 22 34t-1 23l3 2q-9 9 -12 29l-10 42l2 25l-1 41q10 48 10 55t-7 48l3 57v5q-1 10 -1 17l2 110l4 17l-11 59q0 9 17 18v61q-21 10 -21 21l8 105v9q-10 143 -10 150q0 58 40 91q-3 27 -15 42l-31 -4q-3 12 -3 18t12 73
q-13 25 -13 65t-3 70l-25 25h-18l-2 11v1q0 9 3 13t29 18l27 20l20 7q21 8 45 12l10 27q42 2 66 17q10 -29 8 -47q-1 -18 -2 -35l-5 -161v-66q-13 -10 -15 -14t-2 -24t-4 -42l26 -5q-19 -144 -26 -175l16 -16q-1 -50 -17 -115q-1 -8 -2 -48l24 -6q-8 -67 -10 -85v-1l2 -67
q0 -4 -5 -20l-22 -21l10 -51l24 -3l-5 -10v-168l7 -38v-55l1 -39q0 -16 -40 -42q0 -26 5 -30q0 -4 19 -17q3 -16 9 -26t4 -20t-1 -39l4 -198l-20 -21l21 -13v-206q-14 -2 -16 -3l-36 -26q-8 -4 -47 -11q-56 -34 -73 -34q-18 0 -40 9q10 44 23 71q12 26 12 33t-10 23
q11 26 17 68q6 41 12 53q7 12 7 18zM352 1850q0 -8 -6 -26q24 -8 36 -16l-21 -34h-16q-17 0 -41 6q-12 38 -20 48t-31 35q-25 36 -29 40t-41 23l-25 42q-30 33 -42 58q18 14 28 13l41 -5q68 -3 85 -7t39 -22l-17 -22q6 -19 10 -35t7 -21l41 -66q2 -3 2 -11z" />
    <glyph glyph-name="Iacute" unicode="&#xcd;" horiz-adv-x="558" 
d="M218 -42l-14 40l1 39v129q3 26 5 32t16 14v36q22 20 22 34t-1 23l3 2q-9 9 -12 29l-10 42l2 25l-1 41q10 48 10 55t-7 48l3 57v5q-1 10 -1 17l2 110l4 17l-11 59q0 9 17 18v61q-21 10 -21 21l8 105v9q-10 143 -10 150q0 58 40 91q-3 27 -15 42l-31 -4q-3 11 -3 17t12 74
q-13 26 -13 66t-3 69l-25 25h-18l-2 11v1q0 8 3 12t29 19l27 20l20 7q21 8 45 12l10 27q42 2 66 17q10 -29 8 -47q-1 -18 -2 -35l-5 -161v-66q-12 -9 -14 -13t-4 -25q0 -20 -3 -42l26 -5q-19 -144 -26 -175l16 -16q-1 -50 -17 -115q-1 -8 -2 -48l24 -6q-8 -67 -10 -85v-1
l2 -67q0 -4 -5 -20l-22 -21l10 -51l24 -3l-5 -10v-168l7 -38v-55l1 -39q0 -16 -40 -42q0 -26 5 -30q0 -4 19 -17q3 -17 9 -27t4 -19q-2 -10 -1 -39l4 -198l-20 -21l21 -13v-206q-14 -2 -16 -3l-36 -26q-8 -4 -47 -11q-56 -34 -73 -34q-18 0 -40 9q10 44 23 71q12 26 12 33
t-10 23q10 26 16 68t13 54q7 10 7 16zM217 1764l-2 20q0 3 13 30q20 56 24 64t28 34q23 26 23 44t-10 31l2 3v3l-11 4l10 33l159 21q9 -10 9 -16t-12 -20q-12 -15 -24 -39t-60 -79q-6 -7 -23 -48l-32 -46q-25 -23 -42 -46z" />
    </font>
</defs>
</svg>
