<svg xmlns="http://www.w3.org/2000/svg" id="Layer_1" data-name="Layer 1" viewBox="0 0 500 500"><defs><style>.cls-1{fill:#fff;stroke:#000;stroke-miterlimit:10;}</style></defs><title>codepen</title><circle class="cls-1" cx="253.74" cy="253.74" r="229.28"/><path d="M250,0C111.93,0,0,111.93,0,250S111.93,500,250,500,500,388.08,500,250,388.07,0,250,0Zm0,458.94C134.79,458.94,41.06,365.21,41.06,250S134.79,41.06,250,41.06,458.94,134.79,458.94,250,365.21,458.94,250,458.94Z"/><path d="M404.46,201.17c0-.2-.08-.38-.11-.58-.07-.37-.14-.75-.23-1.11s-.14-.43-.21-.64-.21-.65-.34-1-.2-.44-.3-.65-.29-.59-.45-.88-.25-.42-.38-.62-.36-.55-.56-.81l-.45-.58c-.21-.24-.43-.49-.66-.72s-.35-.36-.53-.52-.5-.43-.75-.63-.39-.31-.6-.46l-.22-.16-141.3-94.2a13.28,13.28,0,0,0-14.74,0l-141.29,94.2-.22.16c-.21.15-.4.3-.6.46s-.51.41-.75.63-.36.34-.53.52-.45.47-.66.72-.31.38-.46.58-.38.53-.56.81-.26.41-.38.62-.31.58-.45.88-.21.43-.3.65-.24.64-.34,1-.15.42-.21.64-.16.74-.23,1.11c0,.2-.08.38-.11.58a12.9,12.9,0,0,0-.12,1.73v94.2a13,13,0,0,0,.12,1.74c0,.19.07.38.11.57.07.37.13.75.23,1.11s.14.43.21.64.21.65.34,1,.19.43.3.64.29.59.45.89l.38.61c.17.28.36.55.56.81s.3.39.46.58.43.49.66.72.35.36.53.52.49.43.75.64.39.31.6.45l.22.16,141.29,94.2a13.26,13.26,0,0,0,14.74,0l141.29-94.2.22-.16c.21-.14.4-.3.6-.45s.51-.41.75-.64.35-.34.53-.52.45-.47.66-.72.31-.37.45-.58.38-.53.56-.81l.38-.61c.17-.29.31-.58.45-.89s.21-.42.3-.64.23-.65.34-1,.15-.42.21-.64.17-.74.23-1.11c0-.19.08-.38.11-.57a13.85,13.85,0,0,0,.12-1.74V202.9A13.59,13.59,0,0,0,404.46,201.17ZM263.29,133.53l104.09,69.39L320.88,234l-57.6-38.53Zm-26.57,0v62L179.12,234l-46.5-31.1ZM122,227.77,155.23,250,122,272.23Zm114.72,138.7L132.63,297.08,179.12,266l57.59,38.52v62Zm13.29-85L203,250l47-31.43L297,250Zm13.29,85v-62L320.88,266l46.49,31.09ZM378,272.23,344.78,250,378,227.77Z"/></svg>